{
.appVersion = "113";
DisplayStrings = (
"1"
);
copyright = "Copyright (c) 2015 CJ Type. All rights reserved.";
date = "2016-10-14 02:40:29 +0000";
designer = "CJ Dunn";
designerURL = "http://cjtype.com";
familyName = DunbarTall;
featurePrefixes = (
{
automatic = 1;
code = "languagesystem DFLT dflt;\012languagesystem latn dflt;\012languagesystem latn ROM;\012languagesystem latn NLD;\012languagesystem latn MOL;\012languagesystem latn CAT;\012";
name = Languagesystems;
}
);
features = (
{
automatic = 1;
code = "feature locl;\012feature frac;\012feature ordn;\012";
name = aalt;
},
{
automatic = 1;
code = "script latn;\012language ROM;\012sub Scedilla by Scommaaccent;\012sub scedilla by scommaaccent;\012language NLD;\012sub iacute j' by jacute;\012sub Iacute J' by Jacute;\012language MOL;\012sub Scedilla by Scommaaccent;\012sub scedilla by scommaaccent;\012language CAT;\012sub  l' periodcentered' l by ldot;\012sub  L' periodcentered' L by Ldot;\012";
name = locl;
},
{
automatic = 1;
code = "lookup FRAC {\012	sub slash by fraction;\012} FRAC;\012lookup UP {\012	sub [zero one two three four five six seven eight nine] by [zero.numr one.numr two.numr three.numr four.numr five.numr six.numr seven.numr eight.numr nine.numr];\012} UP;\012lookup DOWN {\012	sub fraction [zero.numr one.numr two.numr three.numr four.numr five.numr six.numr seven.numr eight.numr nine.numr]' by [zero.dnom one.dnom two.dnom three.dnom four.dnom five.dnom six.dnom seven.dnom eight.dnom nine.dnom];\012	sub [zero.dnom one.dnom two.dnom three.dnom four.dnom five.dnom six.dnom seven.dnom eight.dnom nine.dnom] [zero.numr one.numr two.numr three.numr four.numr five.numr six.numr seven.numr eight.numr nine.numr]' by [zero.dnom one.dnom two.dnom three.dnom four.dnom five.dnom six.dnom seven.dnom eight.dnom nine.dnom];\012} DOWN;\012";
name = frac;
},
{
automatic = 1;

glyphs = (
{
glyphname = A;
layers = (
{
layerId = "952C609B-CA64-4350-B6E7-D316939CE488";
paths = (
{
closed = 1;
nodes = (
"491 239 LINE",
"216 239 LINE",
"354 597 LINE"
);
},
{
closed = 1;
nodes = (
"583 0 LINE",
"708 0 LINE",
"414 746 LINE",
"297 746 LINE",
"2 0 LINE",
"124 0 LINE",
"178 141 LINE",
"529 141 LINE"
);
}
);
userData = {
assembly = "PUSHB[ ]	/* 6 values pushed */\0121 1 0 3 1 74 \012MPPEM[ ]	/* MeasurePixelPerEm */\012PUSHB[ ]	/* 1 value pushed */\01233 \012LT[ ]	/* LessThan */\012IF[ ]	/* If */\012NPUSHB[ ]	/* 22 values pushed */\0125 1 0 0 1 2 0 1 98 0 3 3 20 75 6 4 2 2 2 21 2 76 \012ELSE[ ]	/* Else */\012MPPEM[ ]	/* MeasurePixelPerEm */\012PUSHB[ ]	/* 1 value pushed */\01243 \012LT[ ]	/* LessThan */\012IF[ ]	/* If */\012NPUSHB[ ]	/* 22 values pushed */\0120 3 0 3 114 5 1 0 0 1 2 0 1 98 6 4 2 2 2 24 2 76 \012ELSE[ ]	/* Else */\012NPUSHB[ ]	/* 30 values pushed */\0120 3 0 3 114 6 4 2 2 1 2 115 5 1 0 1 1 0 85 5 1 0 0 1 90 0 1 0 1 78 \012EIF[ ]	/* EndIf */\012EIF[ ]	/* EndIf */\012NPUSHB[ ]	/* 21 values pushed */\0123 3 0 0 3 10 3 10 9 8 7 6 5 4 0 2 0 2 7 7 20 \012CALL[ ]	/* CallFunction */";
};
width = 710;
}
);
leftKerningGroup = A;
note = A;
rightKerningGroup = A;
unicode = 0041;
},
{
glyphname = Aogonek;
layers = (
{
layerId = "952C609B-CA64-4350-B6E7-D316939CE488";
paths = (
{
closed = 1;
nodes = (
"668.333 -174.667 OFFCURVE",
"702.667 -157.333 OFFCURVE",
"720 -140 CURVE",
"685 -96 LINE",
"677 -102.667 OFFCURVE",
"665 -110 OFFCURVE",
"649 -110 CURVE SMOOTH",
"630.333 -110 OFFCURVE",
"618 -97 OFFCURVE",
"618 -81 CURVE SMOOTH",
"618 -65 OFFCURVE",
"628.667 -51.667 OFFCURVE",
"658 -33 CURVE SMOOTH",
"708 0 LINE",
"414 746 LINE",
"297 746 LINE",
"2 0 LINE",
"124 0 LINE",
"178 141 LINE",
"529 141 LINE",
"587 -9 LINE",
"555 -30.333 OFFCURVE",
"529 -61.333 OFFCURVE",
"529 -100 CURVE SMOOTH",
"529 -138.667 OFFCURVE",
"557.667 -176 OFFCURVE",
"623 -176 CURVE SMOOTH"
);
},
{
closed = 1;
nodes = (
"492 239 LINE",
"216 239 LINE",
"354 597 LINE"
);
}
);
userData = {
assembly = "NPUSHB[ ]	/* 20 values pushed */\01228 1 5 3 23 6 2 4 2 24 1 0 4 3 74 13 1 2 1 73 \012MPPEM[ ]	/* MeasurePixelPerEm */\012PUSHB[ ]	/* 1 value pushed */\01233 \012LT[ ]	/* LessThan */\012IF[ ]	/* If */\012NPUSHB[ ]	/* 28 values pushed */\0127 1 5 0 1 2 5 1 98 0 4 6 1 0 4 0 95 0 3 3 20 75 0 2 2 21 2 76 \012ELSE[ ]	/* Else */\012MPPEM[ ]	/* MeasurePixelPerEm */\012PUSHB[ ]	/* 1 value pushed */\01243 \012LT[ ]	/* LessThan */\012IF[ ]	/* If */\012NPUSHB[ ]	/* 28 values pushed */\0120 3 5 3 114 7 1 5 0 1 2 5 1 98 0 4 6 1 0 4 0 95 0 2 2 24 2 76 \012ELSE[ ]	/* Else */\012NPUSHB[ ]	/* 39 values pushed */\0120 3 5 3 114 0 2 1 4 1 2 4 112 7 1 5 0 1 2 5 1 98 0 4 0 0 4 87 0 4 4 0 91 6 1 0 4 0 79 \012EIF[ ]	/* EndIf */\012EIF[ ]	/* EndIf */\012NPUSHB[ ]	/* 23 values pushed */\01227 27 1 0 27 29 27 29 21 19 12 11 10 9 8 7 0 26 1 26 8 7 20 \012CALL[ ]	/* CallFunction */";
};
width = 710;
}
);
leftKerningGroup = A;
note = Aogonek;
rightKerningGroup = A;
unicode = 0104;
},
{
glyphname = AE;
layers = (
{
layerId = "952C609B-CA64-4350-B6E7-D316939CE488";
paths = (
{
closed = 1;
nodes = (
"480 239 LINE",
"209 239 LINE",
"344 622 LINE"
);
},
{
closed = 1;
nodes = (
"565 0 LINE",
"945 0 LINE",
"945 102 LINE",
"651 102 LINE",
"561 338 LINE",
"818 338 LINE",
"818 440 LINE",
"522 440 LINE",
"444 644 LINE",
"729 644 LINE",
"729 746 LINE",
"288 746 LINE",
"2 0 LINE",
"125 0 LINE",
"175 141 LINE",
"515 141 LINE"
);
}
);
userData = {
assembly = "PUSHB[ ]	/* 6 values pushed */\0121 1 5 4 1 74 \012MPPEM[ ]	/* MeasurePixelPerEm */\012PUSHB[ ]	/* 1 value pushed */\01233 \012LT[ ]	/* LessThan */\012IF[ ]	/* If */\012NPUSHB[ ]	/* 40 values pushed */\0120 5 0 6 0 5 6 97 9 1 0 0 1 7 0 1 97 0 4 4 3 89 0 3 3 20 75 0 7 7 2 89 10 8 2 2 2 21 2 76 \012ELSE[ ]	/* Else */\012MPPEM[ ]	/* MeasurePixelPerEm */\012PUSHB[ ]	/* 1 value pushed */\01243 \012LT[ ]	/* LessThan */\012IF[ ]	/* If */\012NPUSHB[ ]	/* 38 values pushed */\0120 3 0 4 5 3 4 97 0 5 0 6 0 5 6 97 9 1 0 0 1 7 0 1 97 0 7 7 2 89 10 8 2 2 2 24 2 76 \012ELSE[ ]	/* Else */\012NPUSHB[ ]	/* 43 values pushed */\0120 3 0 4 5 3 4 97 0 5 0 6 0 5 6 97 9 1 0 0 1 7 0 1 97 0 7 2 2 7 85 0 7 7 2 89 10 8 2 2 7 2 77 \012EIF[ ]	/* EndIf */\012EIF[ ]	/* EndIf */\012NPUSHB[ ]	/* 29 values pushed */\0123 3 0 0 3 18 3 18 17 16 15 14 13 12 11 10 9 8 7 6 5 4 0 2 0 2 11 7 20 \012CALL[ ]	/* CallFunction */";
};
width = 947;
}
);
leftKerningGroup = A;
note = AE;
rightKerningGroup = AE;
unicode = 00C6;
},
{
glyphname = B;
layers = (
{
layerId = "952C609B-CA64-4350-B6E7-D316939CE488";
paths = (
{
closed = 1;
nodes = (
"434.183 0 OFFCURVE",
"517 88.335 OFFCURVE",
"517 201 CURVE SMOOTH",
"517 283.667 OFFCURVE",
"473 355.667 OFFCURVE",
"397 393 CURVE",
"455.667 430.333 OFFCURVE",
"489 491.667 OFFCURVE",
"489 557 CURVE SMOOTH",
"489 673.672 OFFCURVE",
"415.873 746 OFFCURVE",
"259 746 CURVE SMOOTH",
"51 746 LINE",
"51 0 LINE",
"280 0 LINE SMOOTH"
);
},
{
closed = 1;
nodes = (
"347 646 OFFCURVE",
"380 601.333 OFFCURVE",
"380 544 CURVE SMOOTH",
"380 478.667 OFFCURVE",
"325.667 431 OFFCURVE",
"235 431 CURVE SMOOTH",
"169 431 LINE",
"169 646 LINE",
"239 646 LINE SMOOTH"
);
},
{
closed = 1;
nodes = (
"342 336 OFFCURVE",
"398 288.667 OFFCURVE",
"398 214 CURVE SMOOTH",
"396.667 155.333 OFFCURVE",
"364.667 100 OFFCURVE",
"254 100 CURVE SMOOTH",
"169 100 LINE",
"169 336 LINE",
"250 336 LINE SMOOTH"
);
}
);
userData = {
assembly = "PUSHB[ ]	/* 6 values pushed */\01211 1 4 3 1 74 \012MPPEM[ ]	/* MeasurePixelPerEm */\012PUSHB[ ]	/* 1 value pushed */\01233 \012LT[ ]	/* LessThan */\012IF[ ]	/* If */\012NPUSHB[ ]	/* 32 values pushed */\0120 3 8 1 4 5 3 4 97 7 1 2 2 1 89 0 1 1 20 75 0 5 5 0 89 6 1 0 0 21 0 76 \012ELSE[ ]	/* Else */\012MPPEM[ ]	/* MeasurePixelPerEm */\012PUSHB[ ]	/* 1 value pushed */\01243 \012LT[ ]	/* LessThan */\012IF[ ]	/* If */\012NPUSHB[ ]	/* 30 values pushed */\0120 1 7 1 2 3 1 2 99 0 3 8 1 4 5 3 4 97 0 5 5 0 89 6 1 0 0 24 0 76 \012ELSE[ ]	/* Else */\012NPUSHB[ ]	/* 35 values pushed */\0120 1 7 1 2 3 1 2 99 0 3 8 1 4 5 3 4 97 0 5 0 0 5 85 0 5 5 0 89 6 1 0 5 0 77 \012EIF[ ]	/* EndIf */\012EIF[ ]	/* EndIf */\012NPUSHB[ ]	/* 27 values pushed */\01229 28 20 19 1 0 32 30 28 36 29 36 23 21 19 27 20 27 4 2 0 18 1 18 9 7 20 \012CALL[ ]	/* CallFunction */";
};
width = 547;
}
);
leftKerningGroup = B;
note = B;
rightKerningGroup = B;
unicode = 0042;
},
{
glyphname = C;
layers = (
{
layerId = "952C609B-CA64-4350-B6E7-D316939CE488";
paths = (
{
closed = 1;
nodes = (
"552 757.333 OFFCURVE",
"495.333 770 OFFCURVE",
"434 770 CURVE SMOOTH",
"319.333 770 OFFCURVE",
"216.167 725.833 OFFCURVE",
"143.5 654.5 CURVE SMOOTH",
"70.833 583.167 OFFCURVE",
"26 483.333 OFFCURVE",
"26 374 CURVE SMOOTH",
"26 264.667 OFFCURVE",
"70.833 163.833 OFFCURVE",
"143.5 92.5 CURVE SMOOTH",
"216.167 21.167 OFFCURVE",
"319.333 -24 OFFCURVE",
"434 -24 CURVE SMOOTH",
"495.333 -24 OFFCURVE",
"553.333 -11.333 OFFCURVE",
"604 14 CURVE",
"604 131 LINE",
"556 101.667 OFFCURVE",
"500 84 OFFCURVE",
"440 84 CURVE SMOOTH",
"277.012 84 OFFCURVE",
"145 217.15 OFFCURVE",
"145 375 CURVE SMOOTH",
"145 529.569 OFFCURVE",
"277.72 662 OFFCURVE",
"440 662 CURVE SMOOTH",
"500 662 OFFCURVE",
"556 645.667 OFFCURVE",
"604 615 CURVE",
"604 732 LINE"
);
}
);
userData = {
assembly = "NPUSHB[ ]	/* 15 values pushed */\0120 1 0 3 17 1 2 1 0 18 1 2 1 3 74 \012MPPEM[ ]	/* MeasurePixelPerEm */\012PUSHB[ ]	/* 1 value pushed */\01233 \012LT[ ]	/* LessThan */\012IF[ ]	/* If */\012NPUSHB[ ]	/* 21 values pushed */\0120 0 0 3 91 0 3 3 28 75 0 1 1 2 91 0 2 2 29 2 76 \012ELSE[ ]	/* Else */\012MPPEM[ ]	/* MeasurePixelPerEm */\012PUSHB[ ]	/* 1 value pushed */\01243 \012LT[ ]	/* LessThan */\012IF[ ]	/* If */\012NPUSHB[ ]	/* 21 values pushed */\0120 0 0 3 91 0 3 3 22 75 0 1 1 2 91 0 2 2 32 2 76 \012ELSE[ ]	/* Else */\012MPPEM[ ]	/* MeasurePixelPerEm */\012PUSHB[ ]	/* 1 value pushed */\01249 \012LT[ ]	/* LessThan */\012IF[ ]	/* If */\012NPUSHB[ ]	/* 18 values pushed */\0120 1 0 2 1 2 95 0 0 0 3 91 0 3 3 22 0 76 \012ELSE[ ]	/* Else */\012NPUSHB[ ]	/* 24 values pushed */\0120 3 0 0 1 3 0 99 0 1 2 2 1 87 0 1 1 2 91 0 2 1 2 79 \012EIF[ ]	/* EndIf */\012EIF[ ]	/* EndIf */\012EIF[ ]	/* EndIf */\012PUSHB[ ]	/* 7 values pushed */\01240 37 40 35 4 7 24 \012CALL[ ]	/* CallFunction */";
};
width = 639;
}
);
leftKerningGroup = C;
note = C;
rightKerningGroup = C;
unicode = 0043;
},
{
glyphname = D;
layers = (
{
layerId = "952C609B-CA64-4350-B6E7-D316939CE488";
paths = (
{
closed = 1;
nodes = (
"51 0 LINE",
"247 0 LINE SMOOTH",
"345.667 0 OFFCURVE",
"440.5 32.333 OFFCURVE",
"510.5 95 CURVE SMOOTH",
"580.5 157.667 OFFCURVE",
"627 251.333 OFFCURVE",
"627 374 CURVE SMOOTH",
"627 495.333 OFFCURVE",
"580.5 588.333 OFFCURVE",
"510.5 651 CURVE SMOOTH",
"440.5 713.667 OFFCURVE",
"344.333 746 OFFCURVE",
"247 746 CURVE SMOOTH",
"51 746 LINE"
);
},
{
closed = 1;
nodes = (
"169 640 LINE",
"247 640 LINE SMOOTH",
"391.492 640 OFFCURVE",
"508 540.154 OFFCURVE",
"508 374 CURVE SMOOTH",
"508 205.836 OFFCURVE",
"391.565 106 OFFCURVE",
"247 106 CURVE SMOOTH",
"169 106 LINE"
);
}
);
userData = {
assembly = "MPPEM[ ]	/* MeasurePixelPerEm */\012PUSHB[ ]	/* 1 value pushed */\01233 \012LT[ ]	/* LessThan */\012IF[ ]	/* If */\012NPUSHB[ ]	/* 23 values pushed */\0125 1 3 3 0 89 0 0 0 20 75 0 2 2 1 89 4 1 1 1 21 1 76 \012ELSE[ ]	/* Else */\012MPPEM[ ]	/* MeasurePixelPerEm */\012PUSHB[ ]	/* 1 value pushed */\01243 \012LT[ ]	/* LessThan */\012IF[ ]	/* If */\012NPUSHB[ ]	/* 21 values pushed */\0120 0 5 1 3 2 0 3 97 0 2 2 1 89 4 1 1 1 24 1 76 \012ELSE[ ]	/* Else */\012NPUSHB[ ]	/* 26 values pushed */\0120 0 5 1 3 2 0 3 97 0 2 1 1 2 85 0 2 2 1 89 4 1 1 2 1 77 \012EIF[ ]	/* EndIf */\012EIF[ ]	/* EndIf */\012NPUSHB[ ]	/* 18 values pushed */\01213 13 0 0 13 25 13 24 16 14 0 12 0 11 33 6 7 21 \012CALL[ ]	/* CallFunction */";
};
width = 657;
}
);
leftKerningGroup = B;
note = D;
rightKerningGroup = D;
unicode = 0044;
},
{
glyphname = Eth;
layers = (
{
layerId = "952C609B-CA64-4350-B6E7-D316939CE488";
paths = (
{
closed = 1;
nodes = (
"351.667 0 OFFCURVE",
"447.5 32.333 OFFCURVE",
"517.5 95 CURVE SMOOTH",
"587.5 157.667 OFFCURVE",
"633 251.333 OFFCURVE",
"633 374 CURVE SMOOTH",
"633 495.333 OFFCURVE",
"586.5 588.333 OFFCURVE",
"516.5 651 CURVE SMOOTH",
"446.5 713.667 OFFCURVE",
"351.667 746 OFFCURVE",
"253 746 CURVE SMOOTH",
"57 746 LINE",
"57 428 LINE",
"6 428 LINE",
"6 333 LINE",
"57 333 LINE",
"57 0 LINE",
"253 0 LINE SMOOTH"
);
},
{
closed = 1;
nodes = (
"175 106 LINE",
"175 333 LINE",
"309 333 LINE",
"309 428 LINE",
"175 428 LINE",
"175 640 LINE",
"253 640 LINE SMOOTH",
"398.079 640 OFFCURVE",
"514 541.1 OFFCURVE",
"514 374 CURVE SMOOTH",
"514 205.305 OFFCURVE",
"397.712 106 OFFCURVE",
"253 106 CURVE SMOOTH"
);
}
);
userData = {
assembly = "MPPEM[ ]	/* MeasurePixelPerEm */\012PUSHB[ ]	/* 1 value pushed */\01233 \012LT[ ]	/* LessThan */\012IF[ ]	/* If */\012NPUSHB[ ]	/* 32 values pushed */\0126 1 2 7 1 1 4 2 1 97 0 5 5 3 89 0 3 3 20 75 0 4 4 0 89 8 1 0 0 21 0 76 \012ELSE[ ]	/* Else */\012MPPEM[ ]	/* MeasurePixelPerEm */\012PUSHB[ ]	/* 1 value pushed */\01243 \012LT[ ]	/* LessThan */\012IF[ ]	/* If */\012NPUSHB[ ]	/* 30 values pushed */\0120 3 0 5 2 3 5 97 6 1 2 7 1 1 4 2 1 97 0 4 4 0 89 8 1 0 0 24 0 76 \012ELSE[ ]	/* Else */\012NPUSHB[ ]	/* 35 values pushed */\0120 3 0 5 2 3 5 97 6 1 2 7 1 1 4 2 1 97 0 4 0 0 4 85 0 4 4 0 89 8 1 0 4 0 77 \012EIF[ ]	/* EndIf */\012EIF[ ]	/* EndIf */\012NPUSHB[ ]	/* 23 values pushed */\0121 0 33 32 31 30 29 27 19 17 8 6 5 4 3 2 0 16 1 16 9 7 20 \012CALL[ ]	/* CallFunction */";
};
width = 663;
}
);
note = Eth;
rightKerningGroup = D;
unicode = 00D0;
},
{
glyphname = E;
layers = (
{
layerId = "952C609B-CA64-4350-B6E7-D316939CE488";
paths = (
{
closed = 1;
nodes = (
"51 0 LINE",
"448 0 LINE",
"448 102 LINE",
"169 102 LINE",
"169 338 LINE",
"417 338 LINE",
"417 440 LINE",
"169 440 LINE",
"169 644 LINE",
"440 644 LINE",
"440 746 LINE",
"51 746 LINE"
);
}
);
userData = {
assembly = "MPPEM[ ]	/* MeasurePixelPerEm */\012PUSHB[ ]	/* 1 value pushed */\01233 \012LT[ ]	/* LessThan */\012IF[ ]	/* If */\012NPUSHB[ ]	/* 30 values pushed */\0120 2 0 3 4 2 3 97 0 1 1 0 89 0 0 0 20 75 0 4 4 5 89 6 1 5 5 21 5 76 \012ELSE[ ]	/* Else */\012MPPEM[ ]	/* MeasurePixelPerEm */\012PUSHB[ ]	/* 1 value pushed */\01243 \012LT[ ]	/* LessThan */\012IF[ ]	/* If */\012NPUSHB[ ]	/* 28 values pushed */\0120 0 0 1 2 0 1 97 0 2 0 3 4 2 3 97 0 4 4 5 89 6 1 5 5 24 5 76 \012ELSE[ ]	/* Else */\012NPUSHB[ ]	/* 33 values pushed */\0120 0 0 1 2 0 1 97 0 2 0 3 4 2 3 97 0 4 5 5 4 85 0 4 4 5 89 6 1 5 4 5 77 \012EIF[ ]	/* EndIf */\012EIF[ ]	/* EndIf */\012NPUSHB[ ]	/* 14 values pushed */\0120 0 0 11 0 11 17 17 17 17 17 7 7 25 \012CALL[ ]	/* CallFunction */";
};
width = 490;
}
);
leftKerningGroup = B;
note = E;
rightKerningGroup = E;
unicode = 0045;
},
{
glyphname = Eogonek;
layers = (
{
layerId = "952C609B-CA64-4350-B6E7-D316939CE488";
paths = (
{
closed = 1;
nodes = (
"425 -96 LINE",
"417 -102.667 OFFCURVE",
"405 -110 OFFCURVE",
"389 -110 CURVE SMOOTH",
"370.333 -110 OFFCURVE",
"358 -97 OFFCURVE",
"358 -81 CURVE SMOOTH",
"358 -65 OFFCURVE",
"368.667 -51.667 OFFCURVE",
"398 -33 CURVE SMOOTH",
"448 0 LINE",
"448 102 LINE",
"169 102 LINE",
"169 338 LINE",
"417 338 LINE",
"417 440 LINE",
"169 440 LINE",
"169 644 LINE",
"440 644 LINE",
"440 746 LINE",
"51 746 LINE",
"51 0 LINE",
"347 0 LINE",
"326 -15 LINE",
"292.667 -36.333 OFFCURVE",
"268 -64 OFFCURVE",
"268 -100 CURVE SMOOTH",
"268 -138.667 OFFCURVE",
"297.667 -176 OFFCURVE",
"363 -176 CURVE SMOOTH",
"408.333 -174.667 OFFCURVE",
"442.667 -157.333 OFFCURVE",
"460 -140 CURVE"
);
}
);
userData = {
assembly = "NPUSHB[ ]	/* 11 values pushed */\01232 1 7 1 1 74 22 1 1 1 73 \012MPPEM[ ]	/* MeasurePixelPerEm */\012PUSHB[ ]	/* 1 value pushed */\01233 \012LT[ ]	/* LessThan */\012IF[ ]	/* If */\012NPUSHB[ ]	/* 36 values pushed */\0120 4 0 5 6 4 5 97 0 7 0 0 7 0 95 0 3 3 2 89 0 2 2 20 75 0 6 6 1 89 0 1 1 21 1 76 \012ELSE[ ]	/* Else */\012MPPEM[ ]	/* MeasurePixelPerEm */\012PUSHB[ ]	/* 1 value pushed */\01243 \012LT[ ]	/* LessThan */\012IF[ ]	/* If */\012NPUSHB[ ]	/* 34 values pushed */\0120 2 0 3 4 2 3 97 0 4 0 5 6 4 5 97 0 7 0 0 7 0 95 0 6 6 1 89 0 1 1 24 1 76 \012ELSE[ ]	/* Else */\012NPUSHB[ ]	/* 40 values pushed */\0120 2 0 3 4 2 3 97 0 4 0 5 6 4 5 97 0 6 0 1 7 6 1 97 0 7 0 0 7 87 0 7 7 0 91 0 0 7 0 79 \012EIF[ ]	/* EndIf */\012EIF[ ]	/* EndIf */\012NPUSHB[ ]	/* 11 values pushed */\01239 17 17 17 17 17 22 34 8 7 28 \012CALL[ ]	/* CallFunction */";
};
width = 490;
}
);
leftKerningGroup = B;
note = Eogonek;
rightKerningGroup = E;
unicode = 0118;
},
{
glyphname = F;
layers = (
{
layerId = "952C609B-CA64-4350-B6E7-D316939CE488";
paths = (
{
closed = 1;
nodes = (
"51 0 LINE",
"169 0 LINE",
"169 320 LINE",
"437 320 LINE",
"437 422 LINE",
"169 422 LINE",
"169 644 LINE",
"468 644 LINE",
"468 746 LINE",
"51 746 LINE"
);
}
);
userData = {
assembly = "MPPEM[ ]	/* MeasurePixelPerEm */\012PUSHB[ ]	/* 1 value pushed */\01233 \012LT[ ]	/* LessThan */\012IF[ ]	/* If */\012NPUSHB[ ]	/* 25 values pushed */\0120 2 0 3 4 2 3 97 0 1 1 0 89 0 0 0 20 75 5 1 4 4 21 4 76 \012ELSE[ ]	/* Else */\012MPPEM[ ]	/* MeasurePixelPerEm */\012PUSHB[ ]	/* 1 value pushed */\01243 \012LT[ ]	/* LessThan */\012IF[ ]	/* If */\012NPUSHB[ ]	/* 23 values pushed */\0120 0 0 1 2 0 1 97 0 2 0 3 4 2 3 97 5 1 4 4 24 4 76 \012ELSE[ ]	/* Else */\012NPUSHB[ ]	/* 30 values pushed */\0125 1 4 3 4 115 0 0 0 1 2 0 1 97 0 2 3 3 2 85 0 2 2 3 89 0 3 2 3 77 \012EIF[ ]	/* EndIf */\012EIF[ ]	/* EndIf */\012NPUSHB[ ]	/* 13 values pushed */\0120 0 0 9 0 9 17 17 17 17 6 7 24 \012CALL[ ]	/* CallFunction */";
};
width = 499;
}
);
leftKerningGroup = B;
note = F;
rightKerningGroup = F;
unicode = 0046;
},
{
glyphname = G;
layers = (
{
layerId = "952C609B-CA64-4350-B6E7-D316939CE488";
paths = (
{
closed = 1;
nodes = (
"812 413 LINE",
"501 413 LINE",
"455 308 LINE",
"690 309 LINE",
"671.121 182.239 OFFCURVE",
"565.72 84 OFFCURVE",
"434 84 CURVE SMOOTH",
"273.719 84 OFFCURVE",
"145 217.188 OFFCURVE",
"145 375 CURVE SMOOTH",
"145 529.159 OFFCURVE",
"274.135 662 OFFCURVE",
"434 662 CURVE SMOOTH",
"510 662 OFFCURVE",
"577.667 635.333 OFFCURVE",
"635 582 CURVE",
"716 662 LINE",
"646.667 727.333 OFFCURVE",
"543.333 770 OFFCURVE",
"434 770 CURVE SMOOTH",
"320.667 770 OFFCURVE",
"217.333 725.833 OFFCURVE",
"144 654.5 CURVE SMOOTH",
"70.667 583.167 OFFCURVE",
"26 483.333 OFFCURVE",
"26 374 CURVE SMOOTH",
"26 264.667 OFFCURVE",
"70.667 163.833 OFFCURVE",
"144 92.5 CURVE SMOOTH",
"217.333 21.167 OFFCURVE",
"320.667 -24 OFFCURVE",
"434 -24 CURVE SMOOTH",
"539.333 -24 OFFCURVE",
"635.167 21.333 OFFCURVE",
"702.5 92 CURVE SMOOTH",
"769.833 162.667 OFFCURVE",
"812 262 OFFCURVE",
"812 370 CURVE SMOOTH"
);
}
);
userData = {
assembly = "NPUSHB[ ]	/* 11 values pushed */\01219 1 5 2 1 74 18 1 2 1 73 \012MPPEM[ ]	/* MeasurePixelPerEm */\012PUSHB[ ]	/* 1 value pushed */\01233 \012LT[ ]	/* LessThan */\012IF[ ]	/* If */\012NPUSHB[ ]	/* 29 values pushed */\0120 5 0 4 3 5 4 97 0 2 2 1 91 0 1 1 28 75 0 3 3 0 91 0 0 0 29 0 76 \012ELSE[ ]	/* Else */\012MPPEM[ ]	/* MeasurePixelPerEm */\012PUSHB[ ]	/* 1 value pushed */\01243 \012LT[ ]	/* LessThan */\012IF[ ]	/* If */\012NPUSHB[ ]	/* 29 values pushed */\0120 5 0 4 3 5 4 97 0 2 2 1 91 0 1 1 22 75 0 3 3 0 91 0 0 0 32 0 76 \012ELSE[ ]	/* Else */\012MPPEM[ ]	/* MeasurePixelPerEm */\012PUSHB[ ]	/* 1 value pushed */\01249 \012LT[ ]	/* LessThan */\012IF[ ]	/* If */\012NPUSHB[ ]	/* 26 values pushed */\0120 5 0 4 3 5 4 97 0 3 0 0 3 0 95 0 2 2 1 91 0 1 1 22 2 76 \012ELSE[ ]	/* Else */\012NPUSHB[ ]	/* 32 values pushed */\0120 1 0 2 5 1 2 99 0 5 0 4 3 5 4 97 0 3 0 0 3 87 0 3 3 0 91 0 0 3 0 79 \012EIF[ ]	/* EndIf */\012EIF[ ]	/* EndIf */\012EIF[ ]	/* EndIf */\012NPUSHB[ ]	/* 9 values pushed */\01217 20 40 37 40 36 6 7 26 \012CALL[ ]	/* CallFunction */";
};
width = 837;
}
);
leftKerningGroup = C;
note = G;
rightKerningGroup = G;
unicode = 0047;
},
{
glyphname = H;
layers = (
{
layerId = "952C609B-CA64-4350-B6E7-D316939CE488";
paths = (
{
closed = 1;
nodes = (
"51 0 LINE",
"169 0 LINE",
"169 345 LINE",
"494 345 LINE",
"494 0 LINE",
"612 0 LINE",
"612 746 LINE",
"494 746 LINE",
"494 450 LINE",
"169 450 LINE",
"169 746 LINE",
"51 746 LINE"
);
}
);
userData = {
assembly = "MPPEM[ ]	/* MeasurePixelPerEm */\012PUSHB[ ]	/* 1 value pushed */\01233 \012LT[ ]	/* LessThan */\012IF[ ]	/* If */\012NPUSHB[ ]	/* 22 values pushed */\0120 1 0 4 3 1 4 97 2 1 0 0 20 75 6 5 2 3 3 21 3 76 \012ELSE[ ]	/* Else */\012MPPEM[ ]	/* MeasurePixelPerEm */\012PUSHB[ ]	/* 1 value pushed */\01243 \012LT[ ]	/* LessThan */\012IF[ ]	/* If */\012NPUSHB[ ]	/* 22 values pushed */\0120 1 0 4 3 1 4 97 2 1 0 0 3 89 6 5 2 3 3 24 3 76 \012ELSE[ ]	/* Else */\012NPUSHB[ ]	/* 28 values pushed */\0122 1 0 1 3 0 85 0 1 0 4 3 1 4 97 2 1 0 0 3 89 6 5 2 3 0 3 77 \012EIF[ ]	/* EndIf */\012EIF[ ]	/* EndIf */\012NPUSHB[ ]	/* 14 values pushed */\0120 0 0 11 0 11 17 17 17 17 17 7 7 25 \012CALL[ ]	/* CallFunction */";
};
width = 662;
}
);
leftKerningGroup = B;
note = H;
unicode = 0048;
},
{
glyphname = Hbar;
layers = (
{
layerId = "952C609B-CA64-4350-B6E7-D316939CE488";
paths = (
{
closed = 1;
nodes = (
"172 450 LINE",
"172 545 LINE",
"497 545 LINE",
"497 450 LINE"
);
},
{
closed = 1;
nodes = (
"172 345 LINE",
"497 345 LINE",
"497 0 LINE",
"615 0 LINE",
"615 545 LINE",
"662 545 LINE",
"662 640 LINE",
"615 640 LINE",
"615 746 LINE",
"497 746 LINE",
"497 640 LINE",
"172 640 LINE",
"172 746 LINE",
"54 746 LINE",
"54 640 LINE",
"7 640 LINE",
"7 545 LINE",
"54 545 LINE",
"54 0 LINE",
"172 0 LINE"
);
}
);
userData = {
assembly = "MPPEM[ ]	/* MeasurePixelPerEm */\012PUSHB[ ]	/* 1 value pushed */\01233 \012LT[ ]	/* LessThan */\012IF[ ]	/* If */\012NPUSHB[ ]	/* 34 values pushed */\0128 6 2 4 9 3 2 1 0 4 1 97 0 0 12 1 11 2 0 11 97 7 1 5 5 20 75 10 1 2 2 21 2 76 \012ELSE[ ]	/* Else */\012MPPEM[ ]	/* MeasurePixelPerEm */\012PUSHB[ ]	/* 1 value pushed */\01243 \012LT[ ]	/* LessThan */\012IF[ ]	/* If */\012NPUSHB[ ]	/* 34 values pushed */\0128 6 2 4 9 3 2 1 0 4 1 97 0 0 12 1 11 2 0 11 97 7 1 5 5 2 89 10 1 2 2 24 2 76 \012ELSE[ ]	/* Else */\012NPUSHB[ ]	/* 40 values pushed */\0127 1 5 4 2 5 85 8 6 2 4 9 3 2 1 0 4 1 97 0 0 12 1 11 2 0 11 97 7 1 5 5 2 89 10 1 2 5 2 77 \012EIF[ ]	/* EndIf */\012EIF[ ]	/* EndIf */\012NPUSHB[ ]	/* 22 values pushed */\0124 4 4 23 4 23 22 21 20 19 17 17 17 17 17 17 18 17 16 13 7 29 \012CALL[ ]	/* CallFunction */";
};
width = 670;
}
);
leftKerningGroup = Hbar;
note = Hbar;
rightKerningGroup = Hbar;
unicode = 0126;
},
{
glyphname = I;
layers = (
{
layerId = "952C609B-CA64-4350-B6E7-D316939CE488";
paths = (
{
closed = 1;
nodes = (
"52 0 LINE",
"170 0 LINE",
"170 746 LINE",
"52 746 LINE"
);
}
);
userData = {
assembly = "MPPEM[ ]	/* MeasurePixelPerEm */\012PUSHB[ ]	/* 1 value pushed */\01233 \012LT[ ]	/* LessThan */\012IF[ ]	/* If */\012NPUSHB[ ]	/* 12 values pushed */\0120 0 0 20 75 2 1 1 1 21 1 76 \012ELSE[ ]	/* Else */\012MPPEM[ ]	/* MeasurePixelPerEm */\012PUSHB[ ]	/* 1 value pushed */\01243 \012LT[ ]	/* LessThan */\012IF[ ]	/* If */\012NPUSHB[ ]	/* 12 values pushed */\0120 0 0 1 89 2 1 1 1 24 1 76 \012ELSE[ ]	/* Else */\012NPUSHB[ ]	/* 17 values pushed */\0120 0 1 1 0 85 0 0 0 1 89 2 1 1 0 1 77 \012EIF[ ]	/* EndIf */\012EIF[ ]	/* EndIf */\012NPUSHB[ ]	/* 10 values pushed */\0120 0 0 3 0 3 17 3 7 21 \012CALL[ ]	/* CallFunction */";
};
width = 221;
}
);
note = I;
rightKerningGroup = I;
unicode = 0049;
},
{
glyphname = Iogonek;
layers = (
{
layerId = "952C609B-CA64-4350-B6E7-D316939CE488";
paths = (
{
closed = 1;
nodes = (
"129.333 -174.667 OFFCURVE",
"163.333 -157.333 OFFCURVE",
"182 -140 CURVE",
"147 -96 LINE",
"137.667 -102.667 OFFCURVE",
"126 -110 OFFCURVE",
"110 -110 CURVE SMOOTH",
"91.333 -110 OFFCURVE",
"80 -97 OFFCURVE",
"80 -81 CURVE SMOOTH",
"80 -65 OFFCURVE",
"91 -51.667 OFFCURVE",
"119 -33 CURVE SMOOTH",
"170 0 LINE",
"170 746 LINE",
"52 746 LINE",
"52 -4 LINE",
"44 -8 LINE",
"13.333 -32 OFFCURVE",
"-10 -61.333 OFFCURVE",
"-10 -100 CURVE SMOOTH",
"-10 -138.667 OFFCURVE",
"18.667 -176 OFFCURVE",
"84 -176 CURVE SMOOTH"
);
}
);
userData = {
assembly = "NPUSHB[ ]	/* 12 values pushed */\01220 10 7 3 2 1 21 1 0 2 2 74 \012MPPEM[ ]	/* MeasurePixelPerEm */\012PUSHB[ ]	/* 1 value pushed */\01233 \012LT[ ]	/* LessThan */\012IF[ ]	/* If */\012NPUSHB[ ]	/* 14 values pushed */\0120 2 3 1 0 2 0 96 0 1 1 20 1 76 \012ELSE[ ]	/* Else */\012NPUSHB[ ]	/* 22 values pushed */\0120 1 2 1 114 0 2 0 0 2 87 0 2 2 0 92 3 1 0 2 0 80 \012EIF[ ]	/* EndIf */\012NPUSHB[ ]	/* 13 values pushed */\0121 0 18 16 9 8 0 23 1 23 4 7 20 \012CALL[ ]	/* CallFunction */";
};
width = 221;
}
);
note = Iogonek;
rightKerningGroup = I;
unicode = 012E;
},
{
glyphname = J;
layers = (
{
layerId = "952C609B-CA64-4350-B6E7-D316939CE488";
paths = (
{
closed = 1;
nodes = (
"32 -9.333 OFFCURVE",
"59.333 -15 OFFCURVE",
"90 -15 CURVE SMOOTH",
"228.667 -13.667 OFFCURVE",
"283 54.667 OFFCURVE",
"283 212 CURVE SMOOTH",
"283 746 LINE",
"165 746 LINE",
"165 245 LINE SMOOTH",
"165 135.584 OFFCURVE",
"137.368 93 OFFCURVE",
"76 93 CURVE SMOOTH",
"52 93 OFFCURVE",
"29.333 99.667 OFFCURVE",
"8 109 CURVE",
"8 0 LINE"
);
}
);
userData = {
assembly = "NPUSHB[ ]	/* 10 values pushed */\0121 1 0 1 0 1 2 0 2 74 \012MPPEM[ ]	/* MeasurePixelPerEm */\012PUSHB[ ]	/* 1 value pushed */\01233 \012LT[ ]	/* LessThan */\012IF[ ]	/* If */\012NPUSHB[ ]	/* 16 values pushed */\0120 1 1 20 75 0 0 0 2 92 0 2 2 32 2 76 \012ELSE[ ]	/* Else */\012MPPEM[ ]	/* MeasurePixelPerEm */\012PUSHB[ ]	/* 1 value pushed */\01243 \012LT[ ]	/* LessThan */\012IF[ ]	/* If */\012NPUSHB[ ]	/* 16 values pushed */\0120 1 0 1 114 0 0 0 2 92 0 2 2 32 2 76 \012ELSE[ ]	/* Else */\012NPUSHB[ ]	/* 21 values pushed */\0120 1 0 1 114 0 0 2 2 0 87 0 0 0 2 92 0 2 0 2 80 \012EIF[ ]	/* EndIf */\012EIF[ ]	/* EndIf */\012PUSHB[ ]	/* 6 values pushed */\01235 21 35 3 7 23 \012CALL[ ]	/* CallFunction */";
};
width = 334;
}
);
leftKerningGroup = J;
note = J;
rightKerningGroup = J;
unicode = 004A;
},
{
glyphname = K;
layers = (
{
layerId = "952C609B-CA64-4350-B6E7-D316939CE488";
paths = (
{
closed = 1;
nodes = (
"464 0 LINE",
"616 0 LINE",
"288 386 LINE",
"590 746 LINE",
"451 746 LINE",
"169 401 LINE",
"169 746 LINE",
"51 746 LINE",
"51 0 LINE",
"169 0 LINE",
"169 355 LINE"
);
}
);
userData = {
assembly = "PUSHB[ ]	/* 8 values pushed */\0129 6 1 3 0 1 1 74 \012MPPEM[ ]	/* MeasurePixelPerEm */\012PUSHB[ ]	/* 1 value pushed */\01233 \012LT[ ]	/* LessThan */\012IF[ ]	/* If */\012NPUSHB[ ]	/* 14 values pushed */\0122 1 1 1 20 75 4 3 2 0 0 21 0 76 \012ELSE[ ]	/* Else */\012MPPEM[ ]	/* MeasurePixelPerEm */\012PUSHB[ ]	/* 1 value pushed */\01243 \012LT[ ]	/* LessThan */\012IF[ ]	/* If */\012NPUSHB[ ]	/* 14 values pushed */\0122 1 1 1 0 89 4 3 2 0 0 24 0 76 \012ELSE[ ]	/* Else */\012NPUSHB[ ]	/* 20 values pushed */\0122 1 1 0 0 1 85 2 1 1 1 0 89 4 3 2 0 1 0 77 \012EIF[ ]	/* EndIf */\012EIF[ ]	/* EndIf */\012NPUSHB[ ]	/* 12 values pushed */\0120 0 0 10 0 10 18 17 18 5 7 23 \012CALL[ ]	/* CallFunction */";
};
width = 638;
}
);
leftKerningGroup = B;
note = K;
rightKerningGroup = K;
unicode = 004B;
},
{
glyphname = L;
layers = (
{
layerId = "952C609B-CA64-4350-B6E7-D316939CE488";
paths = (
{
closed = 1;
nodes = (
"51 746 LINE",
"51 0 LINE",
"435 0 LINE",
"435 106 LINE",
"169 106 LINE",
"169 746 LINE"
);
}
);
userData = {
assembly = "MPPEM[ ]	/* MeasurePixelPerEm */\012PUSHB[ ]	/* 1 value pushed */\01233 \012LT[ ]	/* LessThan */\012IF[ ]	/* If */\012NPUSHB[ ]	/* 16 values pushed */\0120 0 0 20 75 0 1 1 2 90 0 2 2 21 2 76 \012ELSE[ ]	/* Else */\012MPPEM[ ]	/* MeasurePixelPerEm */\012PUSHB[ ]	/* 1 value pushed */\01243 \012LT[ ]	/* LessThan */\012IF[ ]	/* If */\012NPUSHB[ ]	/* 16 values pushed */\0120 0 1 0 114 0 1 1 2 90 0 2 2 24 2 76 \012ELSE[ ]	/* Else */\012NPUSHB[ ]	/* 21 values pushed */\0120 0 1 0 114 0 1 2 2 1 85 0 1 1 2 90 0 2 1 2 78 \012EIF[ ]	/* EndIf */\012EIF[ ]	/* EndIf */\012PUSHB[ ]	/* 6 values pushed */\01217 17 16 3 7 23 \012CALL[ ]	/* CallFunction */";
};
width = 447;
}
);
leftKerningGroup = B;
note = L;
rightKerningGroup = L;
unicode = 004C;
},
{
glyphname = Lslash;
layers = (
{
layerId = "952C609B-CA64-4350-B6E7-D316939CE488";
paths = (
{
closed = 1;
nodes = (
"435 0 LINE",
"435 106 LINE",
"169 106 LINE",
"169 357 LINE",
"344 444 LINE",
"343 548 LINE",
"169 461 LINE",
"169 746 LINE",
"51 746 LINE",
"51 402 LINE",
"4 378 LINE",
"4 274 LINE",
"51 298 LINE",
"51 0 LINE"
);
}
);
userData = {
assembly = "NPUSHB[ ]	/* 13 values pushed */\01211 10 9 8 5 4 3 2 8 2 1 1 74 \012MPPEM[ ]	/* MeasurePixelPerEm */\012PUSHB[ ]	/* 1 value pushed */\01233 \012LT[ ]	/* LessThan */\012IF[ ]	/* If */\012NPUSHB[ ]	/* 16 values pushed */\0120 1 1 20 75 0 2 2 0 90 0 0 0 21 0 76 \012ELSE[ ]	/* Else */\012MPPEM[ ]	/* MeasurePixelPerEm */\012PUSHB[ ]	/* 1 value pushed */\01243 \012LT[ ]	/* LessThan */\012IF[ ]	/* If */\012NPUSHB[ ]	/* 16 values pushed */\0120 1 2 1 114 0 2 2 0 90 0 0 0 24 0 76 \012ELSE[ ]	/* Else */\012NPUSHB[ ]	/* 21 values pushed */\0120 1 2 1 114 0 2 0 0 2 85 0 2 2 0 90 0 0 2 0 78 \012EIF[ ]	/* EndIf */\012EIF[ ]	/* EndIf */\012PUSHB[ ]	/* 6 values pushed */\01221 21 16 3 7 23 \012CALL[ ]	/* CallFunction */";
};
width = 454;
}
);
leftKerningGroup = Lslash;
note = Lslash;
rightKerningGroup = L;
unicode = 0141;
},
{
glyphname = M;
layers = (
{
layerId = "952C609B-CA64-4350-B6E7-D316939CE488";
paths = (
{
closed = 1;
nodes = (
"417 135 LINE",
"436 135 LINE",
"675 527 LINE",
"675 0 LINE",
"793 0 LINE",
"793 746 LINE",
"675 746 LINE",
"428 335 LINE",
"170 746 LINE",
"51 746 LINE",
"51 0 LINE",
"169 0 LINE",
"169 529 LINE"
);
}
);
userData = {
assembly = "PUSHB[ ]	/* 8 values pushed */\01211 6 1 3 4 1 1 74 \012MPPEM[ ]	/* MeasurePixelPerEm */\012PUSHB[ ]	/* 1 value pushed */\01233 \012LT[ ]	/* LessThan */\012IF[ ]	/* If */\012NPUSHB[ ]	/* 22 values pushed */\0125 1 4 1 0 1 4 0 112 2 1 1 1 20 75 3 1 0 0 21 0 76 \012ELSE[ ]	/* Else */\012MPPEM[ ]	/* MeasurePixelPerEm */\012PUSHB[ ]	/* 1 value pushed */\01243 \012LT[ ]	/* LessThan */\012IF[ ]	/* If */\012NPUSHB[ ]	/* 22 values pushed */\0125 1 4 1 0 1 4 0 112 2 1 1 1 0 89 3 1 0 0 24 0 76 \012ELSE[ ]	/* Else */\012NPUSHB[ ]	/* 28 values pushed */\0125 1 4 1 0 1 4 0 112 2 1 1 4 0 1 85 2 1 1 1 0 89 3 1 0 1 0 77 \012EIF[ ]	/* EndIf */\012EIF[ ]	/* EndIf */\012NPUSHB[ ]	/* 13 values pushed */\0120 0 0 12 0 12 17 18 17 18 6 7 24 \012CALL[ ]	/* CallFunction */";
};
width = 844;
}
);
leftKerningGroup = B;
note = M;
unicode = 004D;
},
{
glyphname = N;
layers = (
{
layerId = "952C609B-CA64-4350-B6E7-D316939CE488";
paths = (
{
closed = 1;
nodes = (
"560 0 LINE",
"675 0 LINE",
"675 746 LINE",
"557 746 LINE",
"557 199 LINE",
"169 746 LINE",
"51 746 LINE",
"51 0 LINE",
"169 0 LINE",
"169 548 LINE"
);
}
);
userData = {
assembly = "PUSHB[ ]	/* 7 values pushed */\0126 1 2 0 1 1 74 \012MPPEM[ ]	/* MeasurePixelPerEm */\012PUSHB[ ]	/* 1 value pushed */\01233 \012LT[ ]	/* LessThan */\012IF[ ]	/* If */\012NPUSHB[ ]	/* 14 values pushed */\0122 1 1 1 20 75 4 3 2 0 0 21 0 76 \012ELSE[ ]	/* Else */\012MPPEM[ ]	/* MeasurePixelPerEm */\012PUSHB[ ]	/* 1 value pushed */\01243 \012LT[ ]	/* LessThan */\012IF[ ]	/* If */\012NPUSHB[ ]	/* 14 values pushed */\0122 1 1 1 0 89 4 3 2 0 0 24 0 76 \012ELSE[ ]	/* Else */\012NPUSHB[ ]	/* 20 values pushed */\0122 1 1 0 0 1 85 2 1 1 1 0 89 4 3 2 0 1 0 77 \012EIF[ ]	/* EndIf */\012EIF[ ]	/* EndIf */\012NPUSHB[ ]	/* 12 values pushed */\0120 0 0 9 0 9 18 17 18 5 7 23 \012CALL[ ]	/* CallFunction */";
};
width = 726;
}
);
leftKerningGroup = B;
note = N;
unicode = 004E;
},
{
glyphname = Eng;
layers = (
{
layerId = "952C609B-CA64-4350-B6E7-D316939CE488";
paths = (
{
closed = 1;
nodes = (
"600 -226 OFFCURVE",
"675 -155.667 OFFCURVE",
"675 -1 CURVE SMOOTH",
"675 746 LINE",
"557 746 LINE",
"557 199 LINE",
"169 746 LINE",
"51 746 LINE",
"51 0 LINE",
"169 0 LINE",
"169 548 LINE",
"560 -1 LINE",
"560 -81 OFFCURVE",
"525 -129 OFFCURVE",
"469 -129 CURVE SMOOTH",
"452 -129 LINE",
"452 -226 LINE",
"472 -226 LINE SMOOTH"
);
}
);
userData = {
assembly = "NPUSHB[ ]	/* 11 values pushed */\01212 7 2 2 3 6 1 1 2 2 74 \012MPPEM[ ]	/* MeasurePixelPerEm */\012PUSHB[ ]	/* 1 value pushed */\01233 \012LT[ ]	/* LessThan */\012IF[ ]	/* If */\012NPUSHB[ ]	/* 23 values pushed */\0124 1 3 3 20 75 0 2 2 21 75 0 1 1 0 92 5 1 0 0 33 0 76 \012ELSE[ ]	/* Else */\012MPPEM[ ]	/* MeasurePixelPerEm */\012PUSHB[ ]	/* 1 value pushed */\01243 \012LT[ ]	/* LessThan */\012IF[ ]	/* If */\012NPUSHB[ ]	/* 23 values pushed */\0124 1 3 3 2 89 0 2 2 24 75 0 1 1 0 92 5 1 0 0 33 0 76 \012ELSE[ ]	/* Else */\012NPUSHB[ ]	/* 21 values pushed */\0124 1 3 0 2 1 3 2 97 0 1 1 0 92 5 1 0 0 33 0 76 \012EIF[ ]	/* EndIf */\012EIF[ ]	/* EndIf */\012NPUSHB[ ]	/* 17 values pushed */\0121 0 14 13 11 10 9 8 4 2 0 17 1 17 6 7 20 \012CALL[ ]	/* CallFunction */";
};
width = 726;
}
);
leftKerningGroup = B;
note = Eng;
unicode = 014A;
},
{
glyphname = O;
layers = (
{
layerId = "952C609B-CA64-4350-B6E7-D316939CE488";
paths = (
{
closed = 1;
nodes = (
"320.667 770 OFFCURVE",
"217.333 725.833 OFFCURVE",
"144 654.5 CURVE SMOOTH",
"70.667 583.167 OFFCURVE",
"26 483.333 OFFCURVE",
"26 374 CURVE SMOOTH",
"26 264.667 OFFCURVE",
"70.667 163.833 OFFCURVE",
"144 92.5 CURVE SMOOTH",
"217.333 21.167 OFFCURVE",
"320.667 -24 OFFCURVE",
"434 -24 CURVE SMOOTH",
"547.333 -24 OFFCURVE",
"649.667 21.167 OFFCURVE",
"723 92.5 CURVE SMOOTH",
"796.333 163.833 OFFCURVE",
"841 264.667 OFFCURVE",
"841 374 CURVE SMOOTH",
"841 483.333 OFFCURVE",
"796.333 583.167 OFFCURVE",
"723 654.5 CURVE SMOOTH",
"649.667 725.833 OFFCURVE",
"547.333 770 OFFCURVE",
"434 770 CURVE SMOOTH"
);
},
{
closed = 1;
nodes = (
"593.717 662 OFFCURVE",
"722 529.887 OFFCURVE",
"722 374 CURVE SMOOTH",
"722 214.547 OFFCURVE",
"593.945 84 OFFCURVE",
"434 84 CURVE SMOOTH",
"274.196 84 OFFCURVE",
"145 217.041 OFFCURVE",
"145 374 CURVE SMOOTH",
"145 529.389 OFFCURVE",
"273.942 662 OFFCURVE",
"434 662 CURVE SMOOTH"
);
}
);
userData = {
assembly = "MPPEM[ ]	/* MeasurePixelPerEm */\012PUSHB[ ]	/* 1 value pushed */\01233 \012LT[ ]	/* LessThan */\012IF[ ]	/* If */\012NPUSHB[ ]	/* 23 values pushed */\0125 1 2 2 0 91 4 1 0 0 28 75 0 3 3 1 91 0 1 1 29 1 76 \012ELSE[ ]	/* Else */\012MPPEM[ ]	/* MeasurePixelPerEm */\012PUSHB[ ]	/* 1 value pushed */\01243 \012LT[ ]	/* LessThan */\012IF[ ]	/* If */\012NPUSHB[ ]	/* 23 values pushed */\0125 1 2 2 0 91 4 1 0 0 22 75 0 3 3 1 91 0 1 1 32 1 76 \012ELSE[ ]	/* Else */\012MPPEM[ ]	/* MeasurePixelPerEm */\012PUSHB[ ]	/* 1 value pushed */\01249 \012LT[ ]	/* LessThan */\012IF[ ]	/* If */\012NPUSHB[ ]	/* 20 values pushed */\0120 3 0 1 3 1 95 5 1 2 2 0 91 4 1 0 0 22 2 76 \012ELSE[ ]	/* Else */\012NPUSHB[ ]	/* 26 values pushed */\0124 1 0 5 1 2 3 0 2 99 0 3 1 1 3 87 0 3 3 1 91 0 1 3 1 79 \012EIF[ ]	/* EndIf */\012EIF[ ]	/* EndIf */\012EIF[ ]	/* EndIf */\012NPUSHB[ ]	/* 19 values pushed */\01221 20 1 0 31 29 20 39 21 39 11 9 0 19 1 19 6 7 20 \012CALL[ ]	/* CallFunction */";
};
width = 868;
}
);
leftKerningGroup = C;
note = O;
rightKerningGroup = O;
unicode = 004F;
},
{
glyphname = Oslash;
layers = (
{
layerId = "952C609B-CA64-4350-B6E7-D316939CE488";
paths = (
{
closed = 1;
nodes = (
"145 529.389 OFFCURVE",
"273.942 662 OFFCURVE",
"434 662 CURVE SMOOTH",
"478 662 OFFCURVE",
"519.667 651.333 OFFCURVE",
"557 634 CURVE",
"233 166 LINE",
"178.333 219.333 OFFCURVE",
"145 294 OFFCURVE",
"145 374 CURVE SMOOTH"
);
},
{
closed = 1;
nodes = (
"388.667 84 OFFCURVE",
"347.333 94.667 OFFCURVE",
"310 112 CURVE",
"635 580 LINE",
"688.333 526.667 OFFCURVE",
"722 452.667 OFFCURVE",
"722 374 CURVE SMOOTH",
"722 214.547 OFFCURVE",
"593.945 84 OFFCURVE",
"434 84 CURVE SMOOTH"
);
},
{
closed = 1;
nodes = (
"547.333 -24 OFFCURVE",
"649.667 21.167 OFFCURVE",
"723 92.5 CURVE SMOOTH",
"796.333 163.833 OFFCURVE",
"841 264.667 OFFCURVE",
"841 374 CURVE SMOOTH",
"841 494 OFFCURVE",
"786.667 603 OFFCURVE",
"700 675 CURVE",
"783 794 LINE",
"668 794 LINE",
"621 726 LINE",
"565 754 OFFCURVE",
"502 770 OFFCURVE",
"434 770 CURVE SMOOTH",
"320.667 770 OFFCURVE",
"217.333 725.833 OFFCURVE",
"144 654.5 CURVE SMOOTH",
"70.667 583.167 OFFCURVE",
"26 483.333 OFFCURVE",
"26 374 CURVE SMOOTH",
"26 254 OFFCURVE",
"80.333 144 OFFCURVE",
"167 72 CURVE",
"84 -48 LINE",
"199 -48 LINE",
"246 20 LINE",
"302 -8 OFFCURVE",
"366 -24 OFFCURVE",
"434 -24 CURVE SMOOTH"
);
}
);
userData = {
assembly = "NPUSHB[ ]	/* 19 values pushed */\01244 41 2 0 4 21 20 4 3 4 1 0 30 27 2 2 1 3 74 \012MPPEM[ ]	/* MeasurePixelPerEm */\012PUSHB[ ]	/* 1 value pushed */\01233 \012LT[ ]	/* LessThan */\012IF[ ]	/* If */\012NPUSHB[ ]	/* 33 values pushed */\0120 3 2 3 115 0 5 5 22 75 0 0 0 4 91 0 4 4 28 75 6 1 1 1 2 91 7 1 2 2 29 2 76 \012ELSE[ ]	/* Else */\012MPPEM[ ]	/* MeasurePixelPerEm */\012PUSHB[ ]	/* 1 value pushed */\01236 \012LT[ ]	/* LessThan */\012IF[ ]	/* If */\012NPUSHB[ ]	/* 33 values pushed */\0120 3 2 3 115 0 5 5 22 75 0 0 0 4 91 0 4 4 22 75 6 1 1 1 2 91 7 1 2 2 32 2 76 \012ELSE[ ]	/* Else */\012MPPEM[ ]	/* MeasurePixelPerEm */\012PUSHB[ ]	/* 1 value pushed */\01243 \012LT[ ]	/* LessThan */\012IF[ ]	/* If */\012NPUSHB[ ]	/* 33 values pushed */\0120 5 4 5 114 0 3 2 3 115 0 0 0 4 91 0 4 4 22 75 6 1 1 1 2 91 7 1 2 2 32 2 76 \012ELSE[ ]	/* Else */\012MPPEM[ ]	/* MeasurePixelPerEm */\012PUSHB[ ]	/* 1 value pushed */\01249 \012LT[ ]	/* LessThan */\012IF[ ]	/* If */\012NPUSHB[ ]	/* 31 values pushed */\0120 5 4 5 114 0 3 2 3 115 6 1 1 7 1 2 3 1 2 99 0 0 0 4 91 0 4 4 22 0 76 \012ELSE[ ]	/* Else */\012NPUSHB[ ]	/* 37 values pushed */\0120 5 4 5 114 0 3 2 3 115 0 4 0 0 1 4 0 99 6 1 1 2 2 1 87 6 1 1 1 2 91 7 1 2 1 2 79 \012EIF[ ]	/* EndIf */\012EIF[ ]	/* EndIf */\012EIF[ ]	/* EndIf */\012EIF[ ]	/* EndIf */\012NPUSHB[ ]	/* 22 values pushed */\01225 24 13 12 43 42 39 37 29 28 24 51 25 51 12 23 13 23 38 8 7 21 \012CALL[ ]	/* CallFunction */";
};
width = 881;
}
);
leftKerningGroup = C;
note = Oslash;
rightKerningGroup = O;
unicode = 00D8;
},
{
glyphname = OE;
layers = (
{
layerId = "952C609B-CA64-4350-B6E7-D316939CE488";
paths = (
{
closed = 1;
nodes = (
"284.209 106 OFFCURVE",
"148 202.4 OFFCURVE",
"148 374 CURVE SMOOTH",
"148 543.608 OFFCURVE",
"284.239 640 OFFCURVE",
"444 640 CURVE SMOOTH",
"510 640 LINE",
"510 106 LINE",
"444 106 LINE SMOOTH"
);
},
{
closed = 1;
nodes = (
"908 0 LINE",
"908 102 LINE",
"628 102 LINE",
"628 338 LINE",
"884 338 LINE",
"884 440 LINE",
"628 440 LINE",
"628 644 LINE",
"900 644 LINE",
"900 746 LINE",
"444 746 LINE SMOOTH",
"337.333 746 OFFCURVE",
"233.167 713.667 OFFCURVE",
"156.5 651 CURVE SMOOTH",
"79.833 588.333 OFFCURVE",
"29 495.333 OFFCURVE",
"29 374 CURVE SMOOTH",
"29 251.333 OFFCURVE",
"80 157.667 OFFCURVE",
"156 95 CURVE SMOOTH",
"232 32.333 OFFCURVE",
"337 0 OFFCURVE",
"445 0 CURVE SMOOTH"
);
}
);
userData = {
assembly = "MPPEM[ ]	/* MeasurePixelPerEm */\012PUSHB[ ]	/* 1 value pushed */\01233 \012LT[ ]	/* LessThan */\012IF[ ]	/* If */\012NPUSHB[ ]	/* 33 values pushed */\0120 5 0 6 0 5 6 97 4 1 1 1 3 89 0 3 3 20 75 7 8 2 0 0 2 89 9 1 2 2 21 2 76 \012ELSE[ ]	/* Else */\012MPPEM[ ]	/* MeasurePixelPerEm */\012PUSHB[ ]	/* 1 value pushed */\01243 \012LT[ ]	/* LessThan */\012IF[ ]	/* If */\012NPUSHB[ ]	/* 31 values pushed */\0120 3 4 1 1 5 3 1 99 0 5 0 6 0 5 6 97 7 8 2 0 0 2 89 9 1 2 2 24 2 76 \012ELSE[ ]	/* Else */\012NPUSHB[ ]	/* 38 values pushed */\0120 3 4 1 1 5 3 1 99 0 5 0 6 0 5 6 97 7 8 2 0 2 2 0 87 7 8 2 0 0 2 89 9 1 2 0 2 77 \012EIF[ ]	/* EndIf */\012EIF[ ]	/* EndIf */\012NPUSHB[ ]	/* 27 values pushed */\01214 13 1 0 32 31 30 29 28 27 26 25 24 22 13 33 14 33 4 2 0 12 1 12 10 7 20 \012CALL[ ]	/* CallFunction */";
};
width = 956;
}
);
leftKerningGroup = C;
note = OE;
rightKerningGroup = E;
unicode = 0152;
},
{
glyphname = P;
layers = (
{
layerId = "952C609B-CA64-4350-B6E7-D316939CE488";
paths = (
{
closed = 1;
nodes = (
"384.567 246 OFFCURVE",
"519 342.241 OFFCURVE",
"519 505 CURVE SMOOTH",
"519 666.803 OFFCURVE",
"404.336 746 OFFCURVE",
"235 746 CURVE SMOOTH",
"51 746 LINE",
"51 0 LINE",
"169 0 LINE",
"169 246 LINE",
"229 246 LINE SMOOTH"
);
},
{
closed = 1;
nodes = (
"352 636 OFFCURVE",
"396.667 579.667 OFFCURVE",
"398 505 CURVE SMOOTH",
"398 415.667 OFFCURVE",
"328 355 OFFCURVE",
"228 355 CURVE SMOOTH",
"169 355 LINE",
"169 636 LINE",
"228 636 LINE SMOOTH"
);
}
);
userData = {
assembly = "MPPEM[ ]	/* MeasurePixelPerEm */\012PUSHB[ ]	/* 1 value pushed */\01233 \012LT[ ]	/* LessThan */\012IF[ ]	/* If */\012NPUSHB[ ]	/* 26 values pushed */\0120 4 5 1 0 1 4 0 99 6 1 3 3 2 89 0 2 2 20 75 0 1 1 21 1 76 \012ELSE[ ]	/* Else */\012MPPEM[ ]	/* MeasurePixelPerEm */\012PUSHB[ ]	/* 1 value pushed */\01243 \012LT[ ]	/* LessThan */\012IF[ ]	/* If */\012NPUSHB[ ]	/* 24 values pushed */\0120 2 6 1 3 4 2 3 99 0 4 5 1 0 1 4 0 99 0 1 1 24 1 76 \012ELSE[ ]	/* Else */\012NPUSHB[ ]	/* 31 values pushed */\0120 1 0 1 115 0 2 6 1 3 4 2 3 99 0 4 0 0 4 87 0 4 4 0 91 5 1 0 4 0 79 \012EIF[ ]	/* EndIf */\012EIF[ ]	/* EndIf */\012NPUSHB[ ]	/* 21 values pushed */\01216 15 1 0 19 17 15 23 16 23 6 4 3 2 0 14 1 14 7 7 20 \012CALL[ ]	/* CallFunction */";
};
width = 535;
}
);
leftKerningGroup = B;
note = P;
rightKerningGroup = P;
unicode = 0050;
},
{
glyphname = Thorn;
layers = (
{
layerId = "952C609B-CA64-4350-B6E7-D316939CE488";
paths = (
{
closed = 1;
nodes = (
"351 530 OFFCURVE",
"388.667 476.667 OFFCURVE",
"390 406 CURVE SMOOTH",
"390 332.667 OFFCURVE",
"331 282 OFFCURVE",
"247 282 CURVE SMOOTH",
"169 282 LINE",
"169 530 LINE",
"247 530 LINE SMOOTH"
);
},
{
closed = 1;
nodes = (
"380.762 172 OFFCURVE",
"509 253.196 OFFCURVE",
"509 406 CURVE SMOOTH",
"509 574 OFFCURVE",
"400.333 640 OFFCURVE",
"239 640 CURVE SMOOTH",
"169 640 LINE",
"169 746 LINE",
"51 746 LINE",
"51 0 LINE",
"169 0 LINE",
"169 172 LINE",
"233 172 LINE SMOOTH"
);
}
);
userData = {
assembly = "MPPEM[ ]	/* MeasurePixelPerEm */\012PUSHB[ ]	/* 1 value pushed */\01233 \012LT[ ]	/* LessThan */\012IF[ ]	/* If */\012NPUSHB[ ]	/* 29 values pushed */\0120 5 6 1 0 1 5 0 97 0 1 7 1 2 3 1 2 99 0 4 4 20 75 0 3 3 21 3 76 \012ELSE[ ]	/* Else */\012MPPEM[ ]	/* MeasurePixelPerEm */\012PUSHB[ ]	/* 1 value pushed */\01243 \012LT[ ]	/* LessThan */\012IF[ ]	/* If */\012NPUSHB[ ]	/* 29 values pushed */\0120 5 6 1 0 1 5 0 97 0 1 7 1 2 3 1 2 99 0 4 4 3 89 0 3 3 24 3 76 \012ELSE[ ]	/* Else */\012NPUSHB[ ]	/* 34 values pushed */\0120 4 5 3 4 85 0 5 6 1 0 1 5 0 97 0 1 7 1 2 3 1 2 99 0 4 4 3 89 0 3 4 3 77 \012EIF[ ]	/* EndIf */\012EIF[ ]	/* EndIf */\012NPUSHB[ ]	/* 23 values pushed */\01210 9 1 0 17 15 14 13 12 11 9 23 10 23 4 2 0 8 1 8 8 7 20 \012CALL[ ]	/* CallFunction */";
};
width = 523;
}
);
leftKerningGroup = B;
note = Thorn;
rightKerningGroup = Thorn;
unicode = 00DE;
},
{
glyphname = Q;
layers = (
{
layerId = "952C609B-CA64-4350-B6E7-D316939CE488";
paths = (
{
closed = 1;
nodes = (
"593.717 662 OFFCURVE",
"722 529.887 OFFCURVE",
"722 374 CURVE SMOOTH",
"722 214.547 OFFCURVE",
"593.945 84 OFFCURVE",
"434 84 CURVE SMOOTH",
"274.196 84 OFFCURVE",
"145 217.041 OFFCURVE",
"145 374 CURVE SMOOTH",
"145 529.389 OFFCURVE",
"273.942 662 OFFCURVE",
"434 662 CURVE SMOOTH"
);
},
{
closed = 1;
nodes = (
"832 -23 LINE",
"852 79 LINE",
"659 64 LINE",
"764.333 126.667 OFFCURVE",
"841 243.333 OFFCURVE",
"841 374 CURVE SMOOTH",
"841 483.333 OFFCURVE",
"796.333 583.167 OFFCURVE",
"723 654.5 CURVE SMOOTH",
"649.667 725.833 OFFCURVE",
"547.333 770 OFFCURVE",
"434 770 CURVE SMOOTH",
"320.667 770 OFFCURVE",
"217.333 725.833 OFFCURVE",
"144 654.5 CURVE SMOOTH",
"70.667 583.167 OFFCURVE",
"26 483.333 OFFCURVE",
"26 374 CURVE SMOOTH",
"26 264.667 OFFCURVE",
"70.667 163.833 OFFCURVE",
"144 92.5 CURVE SMOOTH",
"217.333 21.167 OFFCURVE",
"320.667 -24 OFFCURVE",
"434 -24 CURVE SMOOTH",
"438.667 -24 OFFCURVE",
"443.333 -24 OFFCURVE",
"448 -24 CURVE SMOOTH",
"452.667 -24 OFFCURVE",
"457.333 -23.667 OFFCURVE",
"462 -23 CURVE"
);
}
);
userData = {
assembly = "PUSHB[ ]	/* 7 values pushed */\01243 42 2 2 1 1 74 \012MPPEM[ ]	/* MeasurePixelPerEm */\012PUSHB[ ]	/* 1 value pushed */\0129 \012LT[ ]	/* LessThan */\012IF[ ]	/* If */\012NPUSHB[ ]	/* 19 values pushed */\0120 1 0 2 1 2 93 4 1 0 0 3 91 0 3 3 28 0 76 \012ELSE[ ]	/* Else */\012MPPEM[ ]	/* MeasurePixelPerEm */\012PUSHB[ ]	/* 1 value pushed */\01221 \012LT[ ]	/* LessThan */\012IF[ ]	/* If */\012NPUSHB[ ]	/* 22 values pushed */\0124 1 0 0 3 91 0 3 3 28 75 0 1 1 2 89 0 2 2 21 2 76 \012ELSE[ ]	/* Else */\012MPPEM[ ]	/* MeasurePixelPerEm */\012PUSHB[ ]	/* 1 value pushed */\01233 \012LT[ ]	/* LessThan */\012IF[ ]	/* If */\012NPUSHB[ ]	/* 19 values pushed */\0120 1 0 2 1 2 93 4 1 0 0 3 91 0 3 3 28 0 76 \012ELSE[ ]	/* Else */\012MPPEM[ ]	/* MeasurePixelPerEm */\012PUSHB[ ]	/* 1 value pushed */\01249 \012LT[ ]	/* LessThan */\012IF[ ]	/* If */\012NPUSHB[ ]	/* 19 values pushed */\0120 1 0 2 1 2 93 4 1 0 0 3 91 0 3 3 22 0 76 \012ELSE[ ]	/* Else */\012NPUSHB[ ]	/* 25 values pushed */\0120 3 4 1 0 1 3 0 99 0 1 2 2 1 87 0 1 1 2 89 0 2 1 2 77 \012EIF[ ]	/* EndIf */\012EIF[ ]	/* EndIf */\012EIF[ ]	/* EndIf */\012EIF[ ]	/* EndIf */\012NPUSHB[ ]	/* 15 values pushed */\0121 0 35 33 25 20 11 9 0 19 1 19 5 7 20 \012CALL[ ]	/* CallFunction */";
};
width = 868;
}
);
leftKerningGroup = C;
note = Q;
rightKerningGroup = O;
unicode = 0051;
},
{
glyphname = R;
layers = (
{
layerId = "952C609B-CA64-4350-B6E7-D316939CE488";
paths = (
{
closed = 1;
nodes = (
"351.667 636 OFFCURVE",
"400 580.667 OFFCURVE",
"400 514 CURVE SMOOTH",
"400 432.667 OFFCURVE",
"330.333 375 OFFCURVE",
"233 375 CURVE SMOOTH",
"169 375 LINE",
"169 636 LINE",
"233 636 LINE SMOOTH"
);
},
{
closed = 1;
nodes = (
"396 0 LINE",
"541 0 LINE",
"309 281 LINE",
"427.712 307.98 OFFCURVE",
"519 391.601 OFFCURVE",
"519 514 CURVE SMOOTH",
"519 588.667 OFFCURVE",
"488.833 647.167 OFFCURVE",
"437.5 686.5 CURVE SMOOTH",
"386.167 725.833 OFFCURVE",
"311 746 OFFCURVE",
"223 746 CURVE SMOOTH",
"51 746 LINE",
"51 0 LINE",
"169 0 LINE",
"169 269 LINE",
"170 269 LINE"
);
}
);
userData = {
assembly = "PUSHB[ ]	/* 7 values pushed */\01225 10 2 2 1 1 74 \012MPPEM[ ]	/* MeasurePixelPerEm */\012PUSHB[ ]	/* 1 value pushed */\01233 \012LT[ ]	/* LessThan */\012IF[ ]	/* If */\012NPUSHB[ ]	/* 27 values pushed */\0120 1 0 2 0 1 2 112 5 1 0 0 3 89 0 3 3 20 75 6 4 2 2 2 21 2 76 \012ELSE[ ]	/* Else */\012MPPEM[ ]	/* MeasurePixelPerEm */\012PUSHB[ ]	/* 1 value pushed */\01243 \012LT[ ]	/* LessThan */\012IF[ ]	/* If */\012NPUSHB[ ]	/* 25 values pushed */\0120 1 0 2 0 1 2 112 0 3 5 1 0 1 3 0 99 6 4 2 2 2 24 2 76 \012ELSE[ ]	/* Else */\012NPUSHB[ ]	/* 31 values pushed */\0120 1 0 2 0 1 2 112 6 4 2 2 2 113 0 3 0 0 3 85 0 3 3 0 91 5 1 0 3 0 79 \012EIF[ ]	/* EndIf */\012EIF[ ]	/* EndIf */\012NPUSHB[ ]	/* 21 values pushed */\0129 9 1 0 9 26 9 26 16 14 13 12 4 2 0 8 1 8 7 7 20 \012CALL[ ]	/* CallFunction */";
};
width = 560;
}
);
leftKerningGroup = B;
note = R;
rightKerningGroup = R;
unicode = 0052;
},
{
glyphname = S;
layers = (
{
layerId = "952C609B-CA64-4350-B6E7-D316939CE488";
paths = (
{
closed = 1;
nodes = (
"382 751.333 OFFCURVE",
"325.333 761 OFFCURVE",
"280 761 CURVE SMOOTH",
"125.336 761 OFFCURVE",
"38 681.709 OFFCURVE",
"38 575 CURVE SMOOTH",
"38 492.333 OFFCURVE",
"82 431 OFFCURVE",
"214 347 CURVE SMOOTH",
"264.667 315 OFFCURVE",
"301.333 287.5 OFFCURVE",
"324 264.5 CURVE SMOOTH",
"346.667 241.5 OFFCURVE",
"358 217.667 OFFCURVE",
"358 193 CURVE SMOOTH",
"358 141 OFFCURVE",
"314.667 89 OFFCURVE",
"224 89 CURVE SMOOTH",
"156 89 OFFCURVE",
"83.667 108.667 OFFCURVE",
"41 130 CURVE",
"39 20 LINE",
"73.333 2.834 OFFCURVE",
"169.626 -12 OFFCURVE",
"216 -12 CURVE SMOOTH",
"364.254 -12 OFFCURVE",
"478 68.072 OFFCURVE",
"478 198 CURVE SMOOTH",
"478 288.667 OFFCURVE",
"413 355 OFFCURVE",
"293 431 CURVE SMOOTH",
"243.667 462.333 OFFCURVE",
"208.5 488.833 OFFCURVE",
"187.5 510.5 CURVE SMOOTH",
"166.5 532.167 OFFCURVE",
"156 554.333 OFFCURVE",
"156 577 CURVE SMOOTH",
"156 618.333 OFFCURVE",
"189 660 OFFCURVE",
"281 660 CURVE SMOOTH",
"329 660 OFFCURVE",
"382.667 646.333 OFFCURVE",
"420 629 CURVE",
"422 738 LINE"
);
}
);
userData = {
assembly = "NPUSHB[ ]	/* 15 values pushed */\0120 1 0 3 24 1 2 2 0 23 1 1 2 3 74 \012MPPEM[ ]	/* MeasurePixelPerEm */\012PUSHB[ ]	/* 1 value pushed */\01233 \012LT[ ]	/* LessThan */\012IF[ ]	/* If */\012NPUSHB[ ]	/* 21 values pushed */\0120 0 0 3 91 0 3 3 28 75 0 2 2 1 91 0 1 1 32 1 76 \012ELSE[ ]	/* Else */\012MPPEM[ ]	/* MeasurePixelPerEm */\012PUSHB[ ]	/* 1 value pushed */\01243 \012LT[ ]	/* LessThan */\012IF[ ]	/* If */\012NPUSHB[ ]	/* 19 values pushed */\0120 3 0 0 2 3 0 99 0 2 2 1 91 0 1 1 32 1 76 \012ELSE[ ]	/* Else */\012NPUSHB[ ]	/* 24 values pushed */\0120 3 0 0 2 3 0 99 0 2 1 1 2 87 0 2 2 1 91 0 1 2 1 79 \012EIF[ ]	/* EndIf */\012EIF[ ]	/* EndIf */\012PUSHB[ ]	/* 7 values pushed */\01244 39 44 35 4 7 24 \012CALL[ ]	/* CallFunction */";
};
width = 506;
}
);
leftKerningGroup = S;
note = S;
rightKerningGroup = S;
unicode = 0053;
},
{
glyphname = T;
layers = (
{
layerId = "952C609B-CA64-4350-B6E7-D316939CE488";
paths = (
{
closed = 1;
nodes = (
"166 0 LINE",
"284 0 LINE",
"284 641 LINE",
"440 641 LINE",
"440 746 LINE",
"9 746 LINE",
"9 641 LINE",
"166 641 LINE"
);
}
);
userData = {
assembly = "MPPEM[ ]	/* MeasurePixelPerEm */\012PUSHB[ ]	/* 1 value pushed */\01233 \012LT[ ]	/* LessThan */\012IF[ ]	/* If */\012NPUSHB[ ]	/* 18 values pushed */\0122 1 0 0 1 89 0 1 1 20 75 4 1 3 3 21 3 76 \012ELSE[ ]	/* Else */\012MPPEM[ ]	/* MeasurePixelPerEm */\012PUSHB[ ]	/* 1 value pushed */\01243 \012LT[ ]	/* LessThan */\012IF[ ]	/* If */\012NPUSHB[ ]	/* 16 values pushed */\0120 1 2 1 0 3 1 0 97 4 1 3 3 24 3 76 \012ELSE[ ]	/* Else */\012NPUSHB[ ]	/* 23 values pushed */\0124 1 3 0 3 115 0 1 0 0 1 85 0 1 1 0 89 2 1 0 1 0 77 \012EIF[ ]	/* EndIf */\012EIF[ ]	/* EndIf */\012NPUSHB[ ]	/* 12 values pushed */\0120 0 0 7 0 7 17 17 17 5 7 23 \012CALL[ ]	/* CallFunction */";
};
width = 449;
}
);
leftKerningGroup = T;
note = T;
rightKerningGroup = T;
unicode = 0054;
},
{
glyphname = Tbar;
layers = (
{
layerId = "952C609B-CA64-4350-B6E7-D316939CE488";
paths = (
{
closed = 1;
nodes = (
"362 315 LINE",
"362 410 LINE",
"284 410 LINE",
"284 641 LINE",
"440 641 LINE",
"440 746 LINE",
"9 746 LINE",
"9 641 LINE",
"166 641 LINE",
"166 410 LINE",
"88 410 LINE",
"88 315 LINE",
"166 315 LINE",
"166 0 LINE",
"284 0 LINE",
"284 315 LINE"
);
}
);
userData = {
assembly = "MPPEM[ ]	/* MeasurePixelPerEm */\012PUSHB[ ]	/* 1 value pushed */\01233 \012LT[ ]	/* LessThan */\012IF[ ]	/* If */\012NPUSHB[ ]	/* 27 values pushed */\0127 1 3 2 1 0 1 3 0 97 6 1 4 4 5 89 0 5 5 20 75 0 1 1 21 1 76 \012ELSE[ ]	/* Else */\012MPPEM[ ]	/* MeasurePixelPerEm */\012PUSHB[ ]	/* 1 value pushed */\01243 \012LT[ ]	/* LessThan */\012IF[ ]	/* If */\012NPUSHB[ ]	/* 25 values pushed */\0120 5 6 1 4 3 5 4 97 7 1 3 2 1 0 1 3 0 97 0 1 1 24 1 76 \012ELSE[ ]	/* Else */\012NPUSHB[ ]	/* 33 values pushed */\0120 1 0 1 115 0 5 6 1 4 3 5 4 97 7 1 3 0 0 3 85 7 1 3 3 0 89 2 1 0 3 0 77 \012EIF[ ]	/* EndIf */\012EIF[ ]	/* EndIf */\012NPUSHB[ ]	/* 11 values pushed */\01217 17 17 17 17 17 17 16 8 7 28 \012CALL[ ]	/* CallFunction */";
};
width = 449;
}
);
leftKerningGroup = T;
note = Tbar;
rightKerningGroup = T;
unicode = 0166;
},
{
glyphname = U;
layers = (
{
layerId = "952C609B-CA64-4350-B6E7-D316939CE488";
paths = (
{
closed = 1;
nodes = (
"615 746 LINE",
"497 746 LINE",
"497 270 LINE SMOOTH",
"497 153.474 OFFCURVE",
"425.315 84 OFFCURVE",
"332 84 CURVE SMOOTH",
"240.793 84 OFFCURVE",
"169 154.168 OFFCURVE",
"169 270 CURVE SMOOTH",
"169 746 LINE",
"51 746 LINE",
"51 299 LINE SMOOTH",
"51 99 OFFCURVE",
"149.333 -24 OFFCURVE",
"332 -24 CURVE SMOOTH",
"516 -24 OFFCURVE",
"615 99 OFFCURVE",
"615 299 CURVE SMOOTH"
);
}
);
userData = {
assembly = "MPPEM[ ]	/* MeasurePixelPerEm */\012PUSHB[ ]	/* 1 value pushed */\01233 \012LT[ ]	/* LessThan */\012IF[ ]	/* If */\012NPUSHB[ ]	/* 17 values pushed */\0123 1 1 1 20 75 0 2 2 0 91 0 0 0 29 0 76 \012ELSE[ ]	/* Else */\012MPPEM[ ]	/* MeasurePixelPerEm */\012PUSHB[ ]	/* 1 value pushed */\01243 \012LT[ ]	/* LessThan */\012IF[ ]	/* If */\012NPUSHB[ ]	/* 17 values pushed */\0123 1 1 2 1 114 0 2 2 0 91 0 0 0 32 0 76 \012ELSE[ ]	/* Else */\012NPUSHB[ ]	/* 22 values pushed */\0123 1 1 2 1 114 0 2 0 0 2 87 0 2 2 0 91 0 0 2 0 79 \012EIF[ ]	/* EndIf */\012EIF[ ]	/* EndIf */\012PUSHB[ ]	/* 7 values pushed */\01221 37 19 34 4 7 24 \012CALL[ ]	/* CallFunction */";
};
width = 665;
}
);
leftKerningGroup = U;
note = U;
rightKerningGroup = U;
unicode = 0055;
},
{
glyphname = Uogonek;
layers = (
{
layerId = "952C609B-CA64-4350-B6E7-D316939CE488";
paths = (
{
closed = 1;
nodes = (
"446.333 -174.667 OFFCURVE",
"480.333 -157.333 OFFCURVE",
"499 -140 CURVE",
"464 -96 LINE",
"456 -102.667 OFFCURVE",
"444 -110 OFFCURVE",
"428 -110 CURVE SMOOTH",
"408 -110 OFFCURVE",
"397 -96 OFFCURVE",
"397 -80 CURVE SMOOTH",
"397 -60 OFFCURVE",
"407.333 -43.667 OFFCURVE",
"438 -21 CURVE SMOOTH",
"483 12 LINE",
"483 12 LINE",
"569.667 61.333 OFFCURVE",
"615 163 OFFCURVE",
"615 299 CURVE SMOOTH",
"615 746 LINE",
"497 746 LINE",
"497 270 LINE SMOOTH",
"497 153.474 OFFCURVE",
"425.315 84 OFFCURVE",
"332 84 CURVE SMOOTH",
"240.793 84 OFFCURVE",
"169 154.168 OFFCURVE",
"169 270 CURVE SMOOTH",
"169 746 LINE",
"51 746 LINE",
"51 299 LINE SMOOTH",
"51 99 OFFCURVE",
"149.333 -24 OFFCURVE",
"332 -24 CURVE SMOOTH",
"333.333 -24 OFFCURVE",
"335 -24 OFFCURVE",
"337 -24 CURVE SMOOTH",
"339 -24 OFFCURVE",
"340.667 -24 OFFCURVE",
"342 -24 CURVE",
"320.667 -45.333 OFFCURVE",
"307 -69.667 OFFCURVE",
"307 -99 CURVE SMOOTH",
"307 -137.667 OFFCURVE",
"335.667 -176 OFFCURVE",
"401 -176 CURVE SMOOTH"
);
}
);
userData = {
assembly = "NPUSHB[ ]	/* 10 values pushed */\01242 1 5 1 43 1 0 5 2 74 \012MPPEM[ ]	/* MeasurePixelPerEm */\012PUSHB[ ]	/* 1 value pushed */\01233 \012LT[ ]	/* LessThan */\012IF[ ]	/* If */\012NPUSHB[ ]	/* 25 values pushed */\0120 5 6 1 0 5 0 95 4 1 2 2 20 75 0 3 3 1 91 0 1 1 29 1 76 \012ELSE[ ]	/* Else */\012MPPEM[ ]	/* MeasurePixelPerEm */\012PUSHB[ ]	/* 1 value pushed */\01243 \012LT[ ]	/* LessThan */\012IF[ ]	/* If */\012NPUSHB[ ]	/* 25 values pushed */\0124 1 2 3 2 114 0 5 6 1 0 5 0 95 0 3 3 1 91 0 1 1 32 1 76 \012ELSE[ ]	/* Else */\012NPUSHB[ ]	/* 31 values pushed */\0124 1 2 3 2 114 0 3 0 1 5 3 1 99 0 5 0 0 5 87 0 5 5 0 91 6 1 0 5 0 79 \012EIF[ ]	/* EndIf */\012EIF[ ]	/* EndIf */\012NPUSHB[ ]	/* 19 values pushed */\0121 0 40 38 27 26 21 19 14 13 10 6 0 45 1 45 7 7 20 \012CALL[ ]	/* CallFunction */";
};
width = 665;
}
);
leftKerningGroup = U;
note = Uogonek;
rightKerningGroup = U;
unicode = 0172;
},
{
glyphname = V;
layers = (
{
layerId = "952C609B-CA64-4350-B6E7-D316939CE488";
paths = (
{
closed = 1;
nodes = (
"412 0 LINE",
"696 746 LINE",
"574 746 LINE",
"351 148 LINE",
"128 746 LINE",
"2 746 LINE",
"285 0 LINE"
);
}
);
userData = {
assembly = "PUSHB[ ]	/* 6 values pushed */\0124 1 0 1 1 74 \012MPPEM[ ]	/* MeasurePixelPerEm */\012PUSHB[ ]	/* 1 value pushed */\01233 \012LT[ ]	/* LessThan */\012IF[ ]	/* If */\012NPUSHB[ ]	/* 12 values pushed */\0122 1 1 1 20 75 0 0 0 21 0 76 \012ELSE[ ]	/* Else */\012MPPEM[ ]	/* MeasurePixelPerEm */\012PUSHB[ ]	/* 1 value pushed */\01243 \012LT[ ]	/* LessThan */\012IF[ ]	/* If */\012NPUSHB[ ]	/* 12 values pushed */\0122 1 1 0 1 114 0 0 0 24 0 76 \012ELSE[ ]	/* Else */\012NPUSHB[ ]	/* 10 values pushed */\0122 1 1 0 1 114 0 0 0 105 \012EIF[ ]	/* EndIf */\012EIF[ ]	/* EndIf */\012PUSHB[ ]	/* 6 values pushed */\01218 17 16 3 7 23 \012CALL[ ]	/* CallFunction */";
};
width = 698;
}
);
leftKerningGroup = V;
note = V;
rightKerningGroup = V;
unicode = 0056;
},
{
glyphname = W;
layers = (
{
layerId = "952C609B-CA64-4350-B6E7-D316939CE488";
paths = (
{
closed = 1;
nodes = (
"647 0 LINE",
"773 0 LINE",
"985 746 LINE",
"869 746 LINE",
"712 168 LINE",
"560 746 LINE",
"436 746 LINE",
"283 168 LINE",
"127 746 LINE",
"3 746 LINE",
"214 0 LINE",
"340 0 LINE",
"495 563 LINE"
);
}
);
userData = {
assembly = "PUSHB[ ]	/* 8 values pushed */\0129 6 1 3 0 1 1 74 \012MPPEM[ ]	/* MeasurePixelPerEm */\012PUSHB[ ]	/* 1 value pushed */\01233 \012LT[ ]	/* LessThan */\012IF[ ]	/* If */\012NPUSHB[ ]	/* 15 values pushed */\0123 2 2 1 1 20 75 5 4 2 0 0 21 0 76 \012ELSE[ ]	/* Else */\012MPPEM[ ]	/* MeasurePixelPerEm */\012PUSHB[ ]	/* 1 value pushed */\01243 \012LT[ ]	/* LessThan */\012IF[ ]	/* If */\012NPUSHB[ ]	/* 15 values pushed */\0123 2 2 1 0 1 114 5 4 2 0 0 24 0 76 \012ELSE[ ]	/* Else */\012NPUSHB[ ]	/* 13 values pushed */\0123 2 2 1 0 1 114 5 4 2 0 0 105 \012EIF[ ]	/* EndIf */\012EIF[ ]	/* EndIf */\012NPUSHB[ ]	/* 13 values pushed */\0120 0 0 12 0 12 18 18 17 18 6 7 24 \012CALL[ ]	/* CallFunction */";
};
width = 988;
}
);
leftKerningGroup = W;
note = W;
rightKerningGroup = W;
unicode = 0057;
},
{
glyphname = X;
layers = (
{
layerId = "952C609B-CA64-4350-B6E7-D316939CE488";
paths = (
{
closed = 1;
nodes = (
"509 0 LINE",
"638 0 LINE",
"397 396 LINE",
"611 746 LINE",
"484 746 LINE",
"322 478 LINE",
"161 746 LINE",
"28 746 LINE",
"242 394 LINE",
"6 0 LINE",
"137 0 LINE",
"321 314 LINE"
);
}
);
userData = {
assembly = "NPUSHB[ ]	/* 9 values pushed */\01210 7 4 1 4 0 1 1 74 \012MPPEM[ ]	/* MeasurePixelPerEm */\012PUSHB[ ]	/* 1 value pushed */\01233 \012LT[ ]	/* LessThan */\012IF[ ]	/* If */\012NPUSHB[ ]	/* 14 values pushed */\0122 1 1 1 20 75 4 3 2 0 0 21 0 76 \012ELSE[ ]	/* Else */\012MPPEM[ ]	/* MeasurePixelPerEm */\012PUSHB[ ]	/* 1 value pushed */\01243 \012LT[ ]	/* LessThan */\012IF[ ]	/* If */\012NPUSHB[ ]	/* 14 values pushed */\0122 1 1 1 0 89 4 3 2 0 0 24 0 76 \012ELSE[ ]	/* Else */\012NPUSHB[ ]	/* 20 values pushed */\0122 1 1 0 0 1 85 2 1 1 1 0 89 4 3 2 0 1 0 77 \012EIF[ ]	/* EndIf */\012EIF[ ]	/* EndIf */\012NPUSHB[ ]	/* 12 values pushed */\0120 0 0 11 0 11 18 18 18 5 7 23 \012CALL[ ]	/* CallFunction */";
};
width = 644;
}
);
leftKerningGroup = X;
note = X;
rightKerningGroup = X;
unicode = 0058;
},
{
glyphname = Y;
layers = (
{
layerId = "952C609B-CA64-4350-B6E7-D316939CE488";
paths = (
{
closed = 1;
nodes = (
"375 0 LINE",
"375 234 LINE",
"630 746 LINE",
"509 746 LINE",
"318 351 LINE",
"131 746 LINE",
"2 746 LINE",
"257 232 LINE",
"257 0 LINE"
);
}
);
userData = {
assembly = "PUSHB[ ]	/* 8 values pushed */\0128 5 2 3 0 1 1 74 \012MPPEM[ ]	/* MeasurePixelPerEm */\012PUSHB[ ]	/* 1 value pushed */\01233 \012LT[ ]	/* LessThan */\012IF[ ]	/* If */\012NPUSHB[ ]	/* 12 values pushed */\0122 1 1 1 20 75 0 0 0 21 0 76 \012ELSE[ ]	/* Else */\012MPPEM[ ]	/* MeasurePixelPerEm */\012PUSHB[ ]	/* 1 value pushed */\01243 \012LT[ ]	/* LessThan */\012IF[ ]	/* If */\012NPUSHB[ ]	/* 12 values pushed */\0122 1 1 0 1 114 0 0 0 24 0 76 \012ELSE[ ]	/* Else */\012NPUSHB[ ]	/* 10 values pushed */\0122 1 1 0 1 114 0 0 0 105 \012EIF[ ]	/* EndIf */\012EIF[ ]	/* EndIf */\012PUSHB[ ]	/* 6 values pushed */\01218 18 16 3 7 23 \012CALL[ ]	/* CallFunction */";
};
width = 632;
}
);
leftKerningGroup = Y;
note = Y;
rightKerningGroup = Y;
unicode = 0059;
},
{
glyphname = Z;
layers = (
{
layerId = "952C609B-CA64-4350-B6E7-D316939CE488";
paths = (
{
closed = 1;
nodes = (
"551 0 LINE",
"598 100 LINE",
"198 100 LINE",
"579 736 LINE",
"577 746 LINE",
"111 746 LINE",
"64 646 LINE",
"393 646 LINE",
"13 10 LINE",
"15 0 LINE"
);
}
);
userData = {
assembly = "MPPEM[ ]	/* MeasurePixelPerEm */\012PUSHB[ ]	/* 1 value pushed */\01233 \012LT[ ]	/* LessThan */\012IF[ ]	/* If */\012NPUSHB[ ]	/* 21 values pushed */\0120 1 1 2 89 0 2 2 20 75 0 3 3 0 89 0 0 0 21 0 76 \012ELSE[ ]	/* Else */\012MPPEM[ ]	/* MeasurePixelPerEm */\012PUSHB[ ]	/* 1 value pushed */\01243 \012LT[ ]	/* LessThan */\012IF[ ]	/* If */\012NPUSHB[ ]	/* 19 values pushed */\0120 2 0 1 3 2 1 97 0 3 3 0 89 0 0 0 24 0 76 \012ELSE[ ]	/* Else */\012NPUSHB[ ]	/* 24 values pushed */\0120 2 0 1 3 2 1 97 0 3 0 0 3 85 0 3 3 0 89 0 0 3 0 77 \012EIF[ ]	/* EndIf */\012EIF[ ]	/* EndIf */\012PUSHB[ ]	/* 7 values pushed */\01218 17 18 16 4 7 24 \012CALL[ ]	/* CallFunction */";
};
width = 609;
}
);
leftKerningGroup = Z;
note = Z;
rightKerningGroup = Z;
unicode = 005A;
},
{
glyphname = Adieresis.salt;
layers = (
{
layerId = "952C609B-CA64-4350-B6E7-D316939CE488";
paths = (
{
closed = 1;
nodes = (
"609 746 LINE",
"490 746 LINE",
"490 637 LINE",
"609 637 LINE"
);
},
{
closed = 1;
nodes = (
"221 746 LINE",
"102 746 LINE",
"102 637 LINE",
"221 637 LINE"
);
},
{
closed = 1;
nodes = (
"491 239 LINE",
"216 239 LINE",
"354 597 LINE"
);
},
{
closed = 1;
nodes = (
"583 0 LINE",
"708 0 LINE",
"414 746 LINE",
"297 746 LINE",
"2 0 LINE",
"124 0 LINE",
"178 141 LINE",
"529 141 LINE"
);
}
);
userData = {
assembly = "PUSHB[ ]	/* 6 values pushed */\0129 1 4 0 1 74 \012MPPEM[ ]	/* MeasurePixelPerEm */\012PUSHB[ ]	/* 1 value pushed */\01233 \012LT[ ]	/* LessThan */\012IF[ ]	/* If */\012NPUSHB[ ]	/* 32 values pushed */\01211 1 4 0 5 6 4 5 98 2 1 0 0 1 89 7 10 3 9 4 1 1 20 75 12 8 2 6 6 21 6 76 \012ELSE[ ]	/* Else */\012MPPEM[ ]	/* MeasurePixelPerEm */\012PUSHB[ ]	/* 1 value pushed */\01243 \012LT[ ]	/* LessThan */\012IF[ ]	/* If */\012NPUSHB[ ]	/* 30 values pushed */\0127 10 3 9 4 1 2 1 0 4 1 0 97 11 1 4 0 5 6 4 5 98 12 8 2 6 6 24 6 76 \012ELSE[ ]	/* Else */\012NPUSHB[ ]	/* 38 values pushed */\01212 8 2 6 5 6 115 7 10 3 9 4 1 2 1 0 4 1 0 97 11 1 4 5 5 4 85 11 1 4 4 5 90 0 5 4 5 78 \012EIF[ ]	/* EndIf */\012EIF[ ]	/* EndIf */\012NPUSHB[ ]	/* 36 values pushed */\01211 11 8 8 4 4 0 0 11 18 11 18 17 16 15 14 13 12 8 10 8 10 4 7 4 7 6 5 0 3 0 3 17 13 7 21 \012CALL[ ]	/* CallFunction */";
};
width = 710;
}
);
leftKerningGroup = A;
note = Adieresis.salt;
rightKerningGroup = A;
},
{
glyphname = C.salt_low;
layers = (
{
layerId = "952C609B-CA64-4350-B6E7-D316939CE488";
paths = (
{
closed = 1;
nodes = (
"581 752.333 OFFCURVE",
"512.333 770 OFFCURVE",
"431 770 CURVE SMOOTH",
"311 770 OFFCURVE",
"208.667 725.833 OFFCURVE",
"138 654.5 CURVE SMOOTH",
"67.333 583.167 OFFCURVE",
"26 483.333 OFFCURVE",
"26 374 CURVE SMOOTH",
"26 264.667 OFFCURVE",
"67.333 163.833 OFFCURVE",
"138 92.5 CURVE SMOOTH",
"208.667 21.167 OFFCURVE",
"311 -24 OFFCURVE",
"431 -24 CURVE SMOOTH",
"512.333 -24 OFFCURVE",
"583.667 -5 OFFCURVE",
"661 43 CURVE",
"607 133 LINE",
"553.667 99.667 OFFCURVE",
"494.333 84 OFFCURVE",
"433 84 CURVE SMOOTH",
"264.432 84 OFFCURVE",
"145 215.819 OFFCURVE",
"145 375 CURVE SMOOTH",
"145 530.896 OFFCURVE",
"265.145 662 OFFCURVE",
"433 662 CURVE SMOOTH",
"498.333 662 OFFCURVE",
"557.667 644 OFFCURVE",
"607 612 CURVE",
"661 703 LINE"
);
}
);
userData = {
assembly = "NPUSHB[ ]	/* 11 values pushed */\01217 1 2 1 0 18 1 2 1 2 74 \012MPPEM[ ]	/* MeasurePixelPerEm */\012PUSHB[ ]	/* 1 value pushed */\01233 \012LT[ ]	/* LessThan */\012IF[ ]	/* If */\012NPUSHB[ ]	/* 21 values pushed */\0120 0 0 3 91 0 3 3 28 75 0 1 1 2 91 0 2 2 29 2 76 \012ELSE[ ]	/* Else */\012MPPEM[ ]	/* MeasurePixelPerEm */\012PUSHB[ ]	/* 1 value pushed */\01243 \012LT[ ]	/* LessThan */\012IF[ ]	/* If */\012NPUSHB[ ]	/* 21 values pushed */\0120 0 0 3 91 0 3 3 22 75 0 1 1 2 91 0 2 2 32 2 76 \012ELSE[ ]	/* Else */\012MPPEM[ ]	/* MeasurePixelPerEm */\012PUSHB[ ]	/* 1 value pushed */\01249 \012LT[ ]	/* LessThan */\012IF[ ]	/* If */\012NPUSHB[ ]	/* 18 values pushed */\0120 1 0 2 1 2 95 0 0 0 3 91 0 3 3 22 0 76 \012ELSE[ ]	/* Else */\012NPUSHB[ ]	/* 24 values pushed */\0120 3 0 0 1 3 0 99 0 1 2 2 1 87 0 1 1 2 91 0 2 1 2 79 \012EIF[ ]	/* EndIf */\012EIF[ ]	/* EndIf */\012EIF[ ]	/* EndIf */\012PUSHB[ ]	/* 7 values pushed */\01240 37 40 35 4 7 24 \012CALL[ ]	/* CallFunction */";
};
width = 691;
}
);
leftKerningGroup = C;
note = C.salt_low;
rightKerningGroup = C;
},
{
glyphname = K.salt_tall;
layers = (
{
layerId = "952C609B-CA64-4350-B6E7-D316939CE488";
paths = (
{
closed = 1;
nodes = (
"494 0 LINE",
"640 0 LINE",
"305 424 LINE",
"585 746 LINE",
"441 746 LINE",
"169 434 LINE",
"169 746 LINE",
"51 746 LINE",
"51 0 LINE",
"169 0 LINE",
"169 268 LINE",
"228 336 LINE"
);
}
);
userData = {
assembly = "NPUSHB[ ]	/* 9 values pushed */\01210 7 2 1 4 0 1 1 74 \012MPPEM[ ]	/* MeasurePixelPerEm */\012PUSHB[ ]	/* 1 value pushed */\01233 \012LT[ ]	/* LessThan */\012IF[ ]	/* If */\012NPUSHB[ ]	/* 14 values pushed */\0122 1 1 1 20 75 4 3 2 0 0 21 0 76 \012ELSE[ ]	/* Else */\012MPPEM[ ]	/* MeasurePixelPerEm */\012PUSHB[ ]	/* 1 value pushed */\01243 \012LT[ ]	/* LessThan */\012IF[ ]	/* If */\012NPUSHB[ ]	/* 14 values pushed */\0122 1 1 1 0 89 4 3 2 0 0 24 0 76 \012ELSE[ ]	/* Else */\012NPUSHB[ ]	/* 20 values pushed */\0122 1 1 0 0 1 85 2 1 1 1 0 89 4 3 2 0 1 0 77 \012EIF[ ]	/* EndIf */\012EIF[ ]	/* EndIf */\012NPUSHB[ ]	/* 12 values pushed */\0120 0 0 11 0 11 18 17 19 5 7 23 \012CALL[ ]	/* CallFunction */";
};
width = 647;
}
);
leftKerningGroup = B;
note = K.salt_tall;
rightKerningGroup = K.salt_tall;
},
{
glyphname = Odieresis.salt;
layers = (
{
layerId = "952C609B-CA64-4350-B6E7-D316939CE488";
paths = (
{
closed = 1;
nodes = (
"593.717 662 OFFCURVE",
"722 529.887 OFFCURVE",
"722 374 CURVE SMOOTH",
"722 214.547 OFFCURVE",
"593.945 84 OFFCURVE",
"434 84 CURVE SMOOTH",
"274.196 84 OFFCURVE",
"145 217.041 OFFCURVE",
"145 374 CURVE SMOOTH",
"145 529.389 OFFCURVE",
"273.942 662 OFFCURVE",
"434 662 CURVE SMOOTH"
);
},
{
closed = 1;
nodes = (
"841 474 OFFCURVE",
"803 567.667 OFFCURVE",
"739 637 CURVE",
"824 637 LINE",
"824 746 LINE",
"704 746 LINE",
"704 672 LINE",
"633.333 733.333 OFFCURVE",
"538 770 OFFCURVE",
"434 770 CURVE SMOOTH",
"330 770 OFFCURVE",
"235 732.333 OFFCURVE",
"163 671 CURVE",
"163 746 LINE",
"44 746 LINE",
"44 637 LINE",
"128 637 LINE",
"64 567.667 OFFCURVE",
"26 474 OFFCURVE",
"26 374 CURVE SMOOTH",
"26 264.667 OFFCURVE",
"70.667 163.833 OFFCURVE",
"144 92.5 CURVE SMOOTH",
"217.333 21.167 OFFCURVE",
"320.667 -24 OFFCURVE",
"434 -24 CURVE SMOOTH",
"547.333 -24 OFFCURVE",
"649.667 21.167 OFFCURVE",
"723 92.5 CURVE SMOOTH",
"796.333 163.833 OFFCURVE",
"841 264.667 OFFCURVE",
"841 374 CURVE SMOOTH"
);
}
);
userData = {
assembly = "PUSHB[ ]	/* 7 values pushed */\01243 37 2 0 4 1 74 \012MPPEM[ ]	/* MeasurePixelPerEm */\012PUSHB[ ]	/* 1 value pushed */\01233 \012LT[ ]	/* LessThan */\012IF[ ]	/* If */\012NPUSHB[ ]	/* 34 values pushed */\0128 1 0 0 5 91 0 5 5 28 75 7 1 3 3 4 89 6 1 4 4 20 75 0 1 1 2 91 0 2 2 29 2 76 \012ELSE[ ]	/* Else */\012MPPEM[ ]	/* MeasurePixelPerEm */\012PUSHB[ ]	/* 1 value pushed */\01243 \012LT[ ]	/* LessThan */\012IF[ ]	/* If */\012NPUSHB[ ]	/* 32 values pushed */\0126 1 4 7 1 3 1 4 3 97 8 1 0 0 5 91 0 5 5 22 75 0 1 1 2 91 0 2 2 32 2 76 \012ELSE[ ]	/* Else */\012MPPEM[ ]	/* MeasurePixelPerEm */\012PUSHB[ ]	/* 1 value pushed */\01249 \012LT[ ]	/* LessThan */\012IF[ ]	/* If */\012NPUSHB[ ]	/* 29 values pushed */\0126 1 4 7 1 3 1 4 3 97 0 1 0 2 1 2 95 8 1 0 0 5 91 0 5 5 22 0 76 \012ELSE[ ]	/* Else */\012NPUSHB[ ]	/* 35 values pushed */\0120 5 8 1 0 3 5 0 99 6 1 4 7 1 3 1 4 3 97 0 1 2 2 1 87 0 1 1 2 91 0 2 1 2 79 \012EIF[ ]	/* EndIf */\012EIF[ ]	/* EndIf */\012EIF[ ]	/* EndIf */\012NPUSHB[ ]	/* 23 values pushed */\0121 0 47 46 45 44 41 39 36 35 34 33 26 24 11 9 0 19 1 19 9 7 20 \012CALL[ ]	/* CallFunction */";
};
width = 868;
}
);
leftKerningGroup = C;
note = Odieresis.salt;
rightKerningGroup = O;
},
{
glyphname = P.salt_tall;
layers = (
{
layerId = "952C609B-CA64-4350-B6E7-D316939CE488";
paths = (
{
closed = 1;
nodes = (
"380.538 279 OFFCURVE",
"509 360.42 OFFCURVE",
"509 513 CURVE",
"507.667 679.667 OFFCURVE",
"400.333 746 OFFCURVE",
"239 746 CURVE SMOOTH",
"51 746 LINE",
"51 0 LINE",
"169 0 LINE",
"169 279 LINE",
"234 279 LINE SMOOTH"
);
},
{
closed = 1;
nodes = (
"351 636 OFFCURVE",
"388.667 582.333 OFFCURVE",
"390 513 CURVE SMOOTH",
"390 438.333 OFFCURVE",
"331 388 OFFCURVE",
"247 388 CURVE SMOOTH",
"169 388 LINE",
"169 636 LINE",
"247 636 LINE SMOOTH"
);
}
);
userData = {
assembly = "MPPEM[ ]	/* MeasurePixelPerEm */\012PUSHB[ ]	/* 1 value pushed */\01233 \012LT[ ]	/* LessThan */\012IF[ ]	/* If */\012NPUSHB[ ]	/* 26 values pushed */\0120 4 5 1 0 1 4 0 99 6 1 3 3 2 89 0 2 2 20 75 0 1 1 21 1 76 \012ELSE[ ]	/* Else */\012MPPEM[ ]	/* MeasurePixelPerEm */\012PUSHB[ ]	/* 1 value pushed */\01243 \012LT[ ]	/* LessThan */\012IF[ ]	/* If */\012NPUSHB[ ]	/* 24 values pushed */\0120 2 6 1 3 4 2 3 97 0 4 5 1 0 1 4 0 99 0 1 1 24 1 76 \012ELSE[ ]	/* Else */\012NPUSHB[ ]	/* 31 values pushed */\0120 1 0 1 115 0 2 6 1 3 4 2 3 97 0 4 0 0 4 85 0 4 4 0 91 5 1 0 4 0 79 \012EIF[ ]	/* EndIf */\012EIF[ ]	/* EndIf */\012NPUSHB[ ]	/* 21 values pushed */\01214 13 1 0 17 15 13 21 14 21 6 4 3 2 0 12 1 12 7 7 20 \012CALL[ ]	/* CallFunction */";
};
width = 531;
}
);
leftKerningGroup = B;
note = P.salt_tall;
rightKerningGroup = P.salt_tall;
},
{
glyphname = R.salt_tall;
layers = (
{
layerId = "952C609B-CA64-4350-B6E7-D316939CE488";
paths = (
{
closed = 1;
nodes = (
"322.333 636 OFFCURVE",
"368.667 582.667 OFFCURVE",
"370 516 CURVE SMOOTH",
"370 442.667 OFFCURVE",
"314.667 391 OFFCURVE",
"228 391 CURVE SMOOTH",
"169 391 LINE",
"169 636 LINE",
"229 636 LINE SMOOTH"
);
},
{
closed = 1;
nodes = (
"418 0 LINE",
"562 0 LINE",
"316 299 LINE",
"412 328.333 OFFCURVE",
"489 402.667 OFFCURVE",
"489 516 CURVE SMOOTH",
"489 665.333 OFFCURVE",
"383.667 746 OFFCURVE",
"229 746 CURVE SMOOTH",
"51 746 LINE",
"51 0 LINE",
"169 0 LINE",
"169 285 LINE",
"177 285 LINE"
);
}
);
userData = {
assembly = "PUSHB[ ]	/* 7 values pushed */\01221 10 2 2 1 1 74 \012MPPEM[ ]	/* MeasurePixelPerEm */\012PUSHB[ ]	/* 1 value pushed */\01233 \012LT[ ]	/* LessThan */\012IF[ ]	/* If */\012NPUSHB[ ]	/* 27 values pushed */\0120 1 0 2 0 1 2 112 5 1 0 0 3 89 0 3 3 20 75 6 4 2 2 2 21 2 76 \012ELSE[ ]	/* Else */\012MPPEM[ ]	/* MeasurePixelPerEm */\012PUSHB[ ]	/* 1 value pushed */\01243 \012LT[ ]	/* LessThan */\012IF[ ]	/* If */\012NPUSHB[ ]	/* 25 values pushed */\0120 1 0 2 0 1 2 112 0 3 5 1 0 1 3 0 99 6 4 2 2 2 24 2 76 \012ELSE[ ]	/* Else */\012NPUSHB[ ]	/* 31 values pushed */\0120 1 0 2 0 1 2 112 6 4 2 2 2 113 0 3 0 0 3 85 0 3 3 0 91 5 1 0 3 0 79 \012EIF[ ]	/* EndIf */\012EIF[ ]	/* EndIf */\012NPUSHB[ ]	/* 21 values pushed */\0129 9 1 0 9 22 9 22 16 14 13 12 4 2 0 8 1 8 7 7 20 \012CALL[ ]	/* CallFunction */";
};
width = 575;
}
);
leftKerningGroup = B;
note = R.salt_tall;
rightKerningGroup = R.salt_tall;
},
{
glyphname = S.salt_low;
layers = (
{
layerId = "952C609B-CA64-4350-B6E7-D316939CE488";
paths = (
{
closed = 1;
nodes = (
"382.667 738.667 OFFCURVE",
"320 761 OFFCURVE",
"264 761 CURVE SMOOTH",
"120.406 761 OFFCURVE",
"40 685.362 OFFCURVE",
"40 583 CURVE SMOOTH",
"40 492.125 OFFCURVE",
"101.772 435.487 OFFCURVE",
"207 347 CURVE SMOOTH",
"296.333 275 OFFCURVE",
"332 234.333 OFFCURVE",
"332 185 CURVE SMOOTH",
"332 137 OFFCURVE",
"294.667 89 OFFCURVE",
"220 89 CURVE SMOOTH",
"161.333 89 OFFCURVE",
"107.667 114.667 OFFCURVE",
"61 144 CURVE",
"12 46 LINE",
"69.333 11.333 OFFCURVE",
"154 -12 OFFCURVE",
"214 -12 CURVE SMOOTH",
"348.828 -12 OFFCURVE",
"450 66.996 OFFCURVE",
"450 191 CURVE SMOOTH",
"450 264.333 OFFCURVE",
"403.333 334 OFFCURVE",
"282 434 CURVE SMOOTH",
"198 504.667 OFFCURVE",
"159 536.667 OFFCURVE",
"159 586 CURVE SMOOTH",
"159 623.333 OFFCURVE",
"184.667 660 OFFCURVE",
"258 660 CURVE SMOOTH",
"299.333 660 OFFCURVE",
"345.667 640.667 OFFCURVE",
"379 614 CURVE",
"428 712 LINE"
);
}
);
userData = {
assembly = "NPUSHB[ ]	/* 11 values pushed */\01222 1 2 2 0 21 1 1 2 2 74 \012MPPEM[ ]	/* MeasurePixelPerEm */\012PUSHB[ ]	/* 1 value pushed */\01233 \012LT[ ]	/* LessThan */\012IF[ ]	/* If */\012NPUSHB[ ]	/* 21 values pushed */\0120 0 0 3 91 0 3 3 28 75 0 2 2 1 91 0 1 1 32 1 76 \012ELSE[ ]	/* Else */\012MPPEM[ ]	/* MeasurePixelPerEm */\012PUSHB[ ]	/* 1 value pushed */\01243 \012LT[ ]	/* LessThan */\012IF[ ]	/* If */\012NPUSHB[ ]	/* 19 values pushed */\0120 3 0 0 2 3 0 99 0 2 2 1 91 0 1 1 32 1 76 \012ELSE[ ]	/* Else */\012NPUSHB[ ]	/* 24 values pushed */\0120 3 0 0 2 3 0 99 0 2 1 1 2 87 0 2 2 1 91 0 1 2 1 79 \012EIF[ ]	/* EndIf */\012EIF[ ]	/* EndIf */\012PUSHB[ ]	/* 7 values pushed */\01246 37 44 35 4 7 24 \012CALL[ ]	/* CallFunction */";
};
width = 478;
}
);
leftKerningGroup = S;
note = S.salt_low;
rightKerningGroup = S;
},
{
glyphname = S.salt_tall;
layers = (
{
layerId = "952C609B-CA64-4350-B6E7-D316939CE488";
paths = (
{
closed = 1;
nodes = (
"366.333 752.333 OFFCURVE",
"315 761 OFFCURVE",
"271 761 CURVE SMOOTH",
"124.877 761 OFFCURVE",
"40 685.93 OFFCURVE",
"40 583 CURVE SMOOTH",
"40 492.125 OFFCURVE",
"101.772 435.487 OFFCURVE",
"207 347 CURVE SMOOTH",
"296.333 275 OFFCURVE",
"332 234.333 OFFCURVE",
"332 185 CURVE SMOOTH",
"332 137 OFFCURVE",
"291.333 89 OFFCURVE",
"210 89 CURVE SMOOTH",
"150 89 OFFCURVE",
"76.333 107.333 OFFCURVE",
"35 130 CURVE",
"33 19 LINE",
"71.483 3.607 OFFCURVE",
"155.379 -12 OFFCURVE",
"203 -12 CURVE SMOOTH",
"342.938 -12 OFFCURVE",
"450 65.73 OFFCURVE",
"450 191 CURVE SMOOTH",
"450 264.333 OFFCURVE",
"403.333 334 OFFCURVE",
"282 434 CURVE SMOOTH",
"198 504.667 OFFCURVE",
"159 536.667 OFFCURVE",
"159 586 CURVE SMOOTH",
"159 623.333 OFFCURVE",
"189.333 660 OFFCURVE",
"272 660 CURVE SMOOTH",
"317.333 660 OFFCURVE",
"368.667 646.333 OFFCURVE",
"402 629 CURVE",
"405 739 LINE"
);
}
);
userData = {
assembly = "NPUSHB[ ]	/* 15 values pushed */\0120 1 0 3 24 1 2 2 0 23 1 1 2 3 74 \012MPPEM[ ]	/* MeasurePixelPerEm */\012PUSHB[ ]	/* 1 value pushed */\01233 \012LT[ ]	/* LessThan */\012IF[ ]	/* If */\012NPUSHB[ ]	/* 21 values pushed */\0120 0 0 3 91 0 3 3 28 75 0 2 2 1 91 0 1 1 32 1 76 \012ELSE[ ]	/* Else */\012MPPEM[ ]	/* MeasurePixelPerEm */\012PUSHB[ ]	/* 1 value pushed */\01243 \012LT[ ]	/* LessThan */\012IF[ ]	/* If */\012NPUSHB[ ]	/* 19 values pushed */\0120 3 0 0 2 3 0 99 0 2 2 1 91 0 1 1 32 1 76 \012ELSE[ ]	/* Else */\012NPUSHB[ ]	/* 24 values pushed */\0120 3 0 0 2 3 0 99 0 2 1 1 2 87 0 2 2 1 91 0 1 2 1 79 \012EIF[ ]	/* EndIf */\012EIF[ ]	/* EndIf */\012PUSHB[ ]	/* 7 values pushed */\01246 39 44 35 4 7 24 \012CALL[ ]	/* CallFunction */";
};
width = 476;
}
);
leftKerningGroup = S;
note = S.salt_tall;
rightKerningGroup = S;
},
{
glyphname = T.salt_tall;
layers = (
{
layerId = "952C609B-CA64-4350-B6E7-D316939CE488";
paths = (
{
closed = 1;
nodes = (
"146 0 LINE",
"264 0 LINE",
"264 641 LINE",
"401 641 LINE",
"401 746 LINE",
"10 746 LINE",
"10 641 LINE",
"146 641 LINE"
);
}
);
userData = {
assembly = "MPPEM[ ]	/* MeasurePixelPerEm */\012PUSHB[ ]	/* 1 value pushed */\01233 \012LT[ ]	/* LessThan */\012IF[ ]	/* If */\012NPUSHB[ ]	/* 18 values pushed */\0122 1 0 0 1 89 0 1 1 20 75 4 1 3 3 21 3 76 \012ELSE[ ]	/* Else */\012MPPEM[ ]	/* MeasurePixelPerEm */\012PUSHB[ ]	/* 1 value pushed */\01243 \012LT[ ]	/* LessThan */\012IF[ ]	/* If */\012NPUSHB[ ]	/* 16 values pushed */\0120 1 2 1 0 3 1 0 97 4 1 3 3 24 3 76 \012ELSE[ ]	/* Else */\012NPUSHB[ ]	/* 23 values pushed */\0124 1 3 0 3 115 0 1 0 0 1 85 0 1 1 0 89 2 1 0 1 0 77 \012EIF[ ]	/* EndIf */\012EIF[ ]	/* EndIf */\012NPUSHB[ ]	/* 12 values pushed */\0120 0 0 7 0 7 17 17 17 5 7 23 \012CALL[ ]	/* CallFunction */";
};
width = 410;
}
);
leftKerningGroup = T.salt_tall;
note = T.salt_tall;
rightKerningGroup = T.salt_tall;
},
{
glyphname = Tbar.salt_tall;
layers = (
{
layerId = "952C609B-CA64-4350-B6E7-D316939CE488";
paths = (
{
closed = 1;
nodes = (
"342 315 LINE",
"342 410 LINE",
"264 410 LINE",
"264 641 LINE",
"401 641 LINE",
"401 746 LINE",
"10 746 LINE",
"10 641 LINE",
"146 641 LINE",
"146 410 LINE",
"68 410 LINE",
"68 315 LINE",
"146 315 LINE",
"146 0 LINE",
"264 0 LINE",
"264 315 LINE"
);
}
);
userData = {
assembly = "MPPEM[ ]	/* MeasurePixelPerEm */\012PUSHB[ ]	/* 1 value pushed */\01233 \012LT[ ]	/* LessThan */\012IF[ ]	/* If */\012NPUSHB[ ]	/* 27 values pushed */\0127 1 3 2 1 0 1 3 0 97 6 1 4 4 5 89 0 5 5 20 75 0 1 1 21 1 76 \012ELSE[ ]	/* Else */\012MPPEM[ ]	/* MeasurePixelPerEm */\012PUSHB[ ]	/* 1 value pushed */\01243 \012LT[ ]	/* LessThan */\012IF[ ]	/* If */\012NPUSHB[ ]	/* 25 values pushed */\0120 5 6 1 4 3 5 4 97 7 1 3 2 1 0 1 3 0 97 0 1 1 24 1 76 \012ELSE[ ]	/* Else */\012NPUSHB[ ]	/* 33 values pushed */\0120 1 0 1 115 0 5 6 1 4 3 5 4 97 7 1 3 0 0 3 85 7 1 3 3 0 89 2 1 0 3 0 77 \012EIF[ ]	/* EndIf */\012EIF[ ]	/* EndIf */\012NPUSHB[ ]	/* 11 values pushed */\01217 17 17 17 17 17 17 16 8 7 28 \012CALL[ ]	/* CallFunction */";
};
width = 410;
}
);
leftKerningGroup = T.salt_tall;
note = Tbar.salt_tall;
rightKerningGroup = T.salt_tall;
},
{
glyphname = Udieresis.salt;
layers = (
{
layerId = "952C609B-CA64-4350-B6E7-D316939CE488";
paths = (
{
closed = 1;
nodes = (
"615 746 LINE",
"497 746 LINE",
"497 270 LINE SMOOTH",
"497 153.474 OFFCURVE",
"425.315 84 OFFCURVE",
"332 84 CURVE SMOOTH",
"240.793 84 OFFCURVE",
"169 154.168 OFFCURVE",
"169 270 CURVE SMOOTH",
"169 746 LINE",
"51 746 LINE",
"51 299 LINE SMOOTH",
"51 99 OFFCURVE",
"149.333 -24 OFFCURVE",
"332 -24 CURVE SMOOTH",
"516 -24 OFFCURVE",
"615 99 OFFCURVE",
"615 299 CURVE SMOOTH"
);
},
{
closed = 1;
nodes = (
"470 746 LINE",
"350 746 LINE",
"350 637 LINE",
"470 637 LINE"
);
},
{
closed = 1;
nodes = (
"315 746 LINE",
"196 746 LINE",
"196 637 LINE",
"315 637 LINE"
);
}
);
userData = {
assembly = "MPPEM[ ]	/* MeasurePixelPerEm */\012PUSHB[ ]	/* 1 value pushed */\01233 \012LT[ ]	/* LessThan */\012IF[ ]	/* If */\012NPUSHB[ ]	/* 27 values pushed */\0126 1 4 4 1 89 9 7 8 5 3 5 1 1 20 75 0 2 2 0 91 0 0 0 29 0 76 \012ELSE[ ]	/* Else */\012MPPEM[ ]	/* MeasurePixelPerEm */\012PUSHB[ ]	/* 1 value pushed */\01243 \012LT[ ]	/* LessThan */\012IF[ ]	/* If */\012NPUSHB[ ]	/* 25 values pushed */\0129 7 8 5 3 5 1 6 1 4 2 1 4 97 0 2 2 0 91 0 0 0 32 0 76 \012ELSE[ ]	/* Else */\012NPUSHB[ ]	/* 30 values pushed */\0129 7 8 5 3 5 1 6 1 4 2 1 4 97 0 2 0 0 2 87 0 2 2 0 91 0 0 2 0 79 \012EIF[ ]	/* EndIf */\012EIF[ ]	/* EndIf */\012NPUSHB[ ]	/* 22 values pushed */\01226 26 22 22 26 29 26 29 28 27 22 25 22 25 18 21 37 19 34 10 7 25 \012CALL[ ]	/* CallFunction */";
};
width = 665;
}
);
leftKerningGroup = U;
note = Udieresis.salt;
rightKerningGroup = U;
},
{
glyphname = a;
layers = (
{
layerId = "952C609B-CA64-4350-B6E7-D316939CE488";
paths = (
{
closed = 1;
nodes = (
"182.667 53 OFFCURVE",
"136 107.667 OFFCURVE",
"136 173 CURVE SMOOTH",
"136 234.333 OFFCURVE",
"182.667 287 OFFCURVE",
"252 287 CURVE SMOOTH",
"324 287 OFFCURVE",
"373 234.333 OFFCURVE",
"373 173 CURVE SMOOTH",
"373 106.333 OFFCURVE",
"321.333 53 OFFCURVE",
"252 53 CURVE SMOOTH"
);
},
{
closed = 1;
nodes = (
"381 0 LINE",
"482 0 LINE",
"482 388 LINE SMOOTH",
"482 512 OFFCURVE",
"410.667 590 OFFCURVE",
"256 590 CURVE SMOOTH",
"202.667 590 OFFCURVE",
"167 585.333 OFFCURVE",
"99 572 CURVE",
"104 479 LINE",
"174.667 492.333 OFFCURVE",
"206.333 496 OFFCURVE",
"245 496 CURVE SMOOTH",
"325 497.333 OFFCURVE",
"372 463.667 OFFCURVE",
"372 353 CURVE SMOOTH",
"372 314 LINE",
"337.333 340.667 OFFCURVE",
"288.333 360 OFFCURVE",
"227 360 CURVE SMOOTH",
"107.195 360 OFFCURVE",
"21 278.633 OFFCURVE",
"21 170 CURVE SMOOTH",
"21 61.093 OFFCURVE",
"105.092 -20 OFFCURVE",
"213 -20 CURVE SMOOTH",
"285 -20 OFFCURVE",
"343.667 12 OFFCURVE",
"381 52 CURVE"
);
}
);
userData = {
assembly = "NPUSHB[ ]	/* 18 values pushed */\01237 1 4 5 36 1 3 4 29 1 1 3 13 1 6 0 4 74 \012MPPEM[ ]	/* MeasurePixelPerEm */\012PUSHB[ ]	/* 1 value pushed */\01226 \012LT[ ]	/* LessThan */\012IF[ ]	/* If */\012NPUSHB[ ]	/* 36 values pushed */\0120 3 0 1 0 3 1 99 0 4 4 5 91 0 5 5 31 75 8 1 6 6 21 75 7 1 0 0 2 91 0 2 2 32 2 76 \012ELSE[ ]	/* Else */\012MPPEM[ ]	/* MeasurePixelPerEm */\012PUSHB[ ]	/* 1 value pushed */\01233 \012LT[ ]	/* LessThan */\012IF[ ]	/* If */\012NPUSHB[ ]	/* 34 values pushed */\0120 5 0 4 3 5 4 99 0 3 0 1 0 3 1 99 8 1 6 6 21 75 7 1 0 0 2 91 0 2 2 32 2 76 \012ELSE[ ]	/* Else */\012MPPEM[ ]	/* MeasurePixelPerEm */\012PUSHB[ ]	/* 1 value pushed */\01243 \012LT[ ]	/* LessThan */\012IF[ ]	/* If */\012NPUSHB[ ]	/* 34 values pushed */\0120 5 0 4 3 5 4 99 0 3 0 1 0 3 1 99 8 1 6 6 24 75 7 1 0 0 2 91 0 2 2 32 2 76 \012ELSE[ ]	/* Else */\012NPUSHB[ ]	/* 43 values pushed */\0128 1 6 0 2 0 6 2 112 0 5 0 4 3 5 4 99 0 3 0 1 0 3 1 99 7 1 0 6 2 0 87 7 1 0 0 2 91 0 2 0 2 79 \012EIF[ ]	/* EndIf */\012EIF[ ]	/* EndIf */\012EIF[ ]	/* EndIf */\012NPUSHB[ ]	/* 25 values pushed */\01212 12 1 0 12 44 12 44 41 39 34 32 27 25 17 15 7 5 0 11 1 11 9 7 20 \012CALL[ ]	/* CallFunction */";
};
width = 528;
}
);
leftKerningGroup = a;
note = a;
rightKerningGroup = a;
unicode = 0061;
},
{
glyphname = aogonek;
layers = (
{
layerId = "952C609B-CA64-4350-B6E7-D316939CE488";
paths = (
{
closed = 1;
nodes = (
"182.667 53 OFFCURVE",
"136 107.667 OFFCURVE",
"136 173 CURVE SMOOTH",
"136 234.333 OFFCURVE",
"182.667 287 OFFCURVE",
"252 287 CURVE SMOOTH",
"324 287 OFFCURVE",
"373 234.333 OFFCURVE",
"373 173 CURVE SMOOTH",
"373 106.333 OFFCURVE",
"321.333 53 OFFCURVE",
"252 53 CURVE SMOOTH"
);
},
{
closed = 1;
nodes = (
"459 -96 LINE",
"451 -102.667 OFFCURVE",
"439 -110 OFFCURVE",
"423 -110 CURVE SMOOTH",
"403 -110 OFFCURVE",
"392 -97 OFFCURVE",
"392 -81 CURVE SMOOTH",
"392 -65 OFFCURVE",
"404 -51.667 OFFCURVE",
"432 -33 CURVE SMOOTH",
"482 0 LINE",
"482 388 LINE SMOOTH",
"482 512 OFFCURVE",
"410.667 590 OFFCURVE",
"256 590 CURVE SMOOTH",
"202.667 590 OFFCURVE",
"167 585.333 OFFCURVE",
"99 572 CURVE",
"104 479 LINE",
"174.667 492.333 OFFCURVE",
"206.333 496 OFFCURVE",
"245 496 CURVE SMOOTH",
"325 497.333 OFFCURVE",
"372 463.667 OFFCURVE",
"372 353 CURVE SMOOTH",
"372 314 LINE",
"337.333 340.667 OFFCURVE",
"288.333 360 OFFCURVE",
"227 360 CURVE SMOOTH",
"107.195 360 OFFCURVE",
"21 278.633 OFFCURVE",
"21 170 CURVE SMOOTH",
"21 61.093 OFFCURVE",
"105.092 -20 OFFCURVE",
"213 -20 CURVE SMOOTH",
"285 -20 OFFCURVE",
"343.667 12 OFFCURVE",
"381 52 CURVE",
"381 1 LINE",
"359 -15 LINE",
"325.667 -36.333 OFFCURVE",
"302 -64 OFFCURVE",
"302 -100 CURVE SMOOTH",
"302 -138.667 OFFCURVE",
"330.667 -176 OFFCURVE",
"396 -176 CURVE SMOOTH",
"442.667 -174.667 OFFCURVE",
"476.667 -157.333 OFFCURVE",
"494 -140 CURVE"
);
}
);
userData = {
assembly = "NPUSHB[ ]	/* 24 values pushed */\01247 1 5 6 46 1 4 5 39 1 1 4 54 23 22 3 3 0 64 1 7 3 5 74 \012MPPEM[ ]	/* MeasurePixelPerEm */\012PUSHB[ ]	/* 1 value pushed */\01226 \012LT[ ]	/* LessThan */\012IF[ ]	/* If */\012NPUSHB[ ]	/* 37 values pushed */\0120 4 0 1 0 4 1 99 0 7 0 2 7 2 95 0 5 5 6 91 0 6 6 31 75 8 1 0 0 3 91 0 3 3 32 3 76 \012ELSE[ ]	/* Else */\012MPPEM[ ]	/* MeasurePixelPerEm */\012PUSHB[ ]	/* 1 value pushed */\01243 \012LT[ ]	/* LessThan */\012IF[ ]	/* If */\012NPUSHB[ ]	/* 35 values pushed */\0120 6 0 5 4 6 5 99 0 4 0 1 0 4 1 99 0 7 0 2 7 2 95 8 1 0 0 3 91 0 3 3 32 3 76 \012ELSE[ ]	/* Else */\012NPUSHB[ ]	/* 41 values pushed */\0120 6 0 5 4 6 5 99 0 4 0 1 0 4 1 99 8 1 0 0 3 7 0 3 99 0 7 2 2 7 87 0 7 7 2 91 0 2 7 2 79 \012EIF[ ]	/* EndIf */\012EIF[ ]	/* EndIf */\012NPUSHB[ ]	/* 23 values pushed */\0121 0 62 60 51 49 44 42 37 35 27 25 16 14 7 5 0 11 1 11 9 7 20 \012CALL[ ]	/* CallFunction */";
};
width = 528;
}
);
leftKerningGroup = a;
note = aogonek;
rightKerningGroup = a;
unicode = 0105;
},
{
glyphname = ae;
layers = (
{
layerId = "952C609B-CA64-4350-B6E7-D316939CE488";
paths = (
{
closed = 1;
nodes = (
"756.333 508 OFFCURVE",
"826.667 445 OFFCURVE",
"848 353 CURVE",
"478 353 LINE",
"499.333 446.333 OFFCURVE",
"569.667 508 OFFCURVE",
"663 508 CURVE SMOOTH"
);
},
{
closed = 1;
nodes = (
"182.667 44 OFFCURVE",
"136 97 OFFCURVE",
"136 169 CURVE SMOOTH",
"136 231.667 OFFCURVE",
"182.667 287 OFFCURVE",
"252 287 CURVE SMOOTH",
"324 287 OFFCURVE",
"373 233 OFFCURVE",
"373 169 CURVE SMOOTH",
"373 94.333 OFFCURVE",
"321.333 44 OFFCURVE",
"252 44 CURVE SMOOTH"
);
},
{
closed = 1;
nodes = (
"893 150 LINE",
"843.667 100.667 OFFCURVE",
"775.333 66 OFFCURVE",
"686 66 CURVE SMOOTH",
"560.667 66 OFFCURVE",
"480 147 OFFCURVE",
"472 267 CURVE",
"970 267 LINE",
"970 293 LINE SMOOTH",
"970 379.667 OFFCURVE",
"936.833 458.167 OFFCURVE",
"881.5 513.5 CURVE SMOOTH",
"826.167 568.833 OFFCURVE",
"749.667 603 OFFCURVE",
"663 603 CURVE SMOOTH",
"575 603 OFFCURVE",
"497.333 564.333 OFFCURVE",
"444 503 CURVE",
"412 559 OFFCURVE",
"349.333 590 OFFCURVE",
"252 590 CURVE SMOOTH",
"198.667 590 OFFCURVE",
"167 585.333 OFFCURVE",
"99 572 CURVE",
"104 479 LINE",
"174.667 492.333 OFFCURVE",
"201.333 496 OFFCURVE",
"240 496 CURVE SMOOTH",
"320 497.333 OFFCURVE",
"361 463.667 OFFCURVE",
"361 353 CURVE SMOOTH",
"361 322 LINE",
"327.667 344.667 OFFCURVE",
"281.667 360 OFFCURVE",
"227 360 CURVE SMOOTH",
"107.001 360 OFFCURVE",
"21 275.908 OFFCURVE",
"21 166 CURVE SMOOTH",
"21 54 OFFCURVE",
"108 -29 OFFCURVE",
"232 -29 CURVE SMOOTH",
"344 -29 OFFCURVE",
"408.333 28.333 OFFCURVE",
"431 91 CURVE",
"485.667 17.667 OFFCURVE",
"575.333 -29 OFFCURVE",
"686 -29 CURVE SMOOTH",
"812.667 -29 OFFCURVE",
"900 19 OFFCURVE",
"960 79 CURVE"
);
}
);
userData = {
assembly = "MPPEM[ ]	/* MeasurePixelPerEm */\012PUSHB[ ]	/* 1 value pushed */\01221 \012LT[ ]	/* LessThan */\012IF[ ]	/* If */\012NPUSHB[ ]	/* 20 values pushed */\01247 1 0 8 53 46 2 1 0 39 1 3 1 69 25 2 11 10 4 74 \012ELSE[ ]	/* Else */\012MPPEM[ ]	/* MeasurePixelPerEm */\012PUSHB[ ]	/* 1 value pushed */\01234 \012LT[ ]	/* LessThan */\012IF[ ]	/* If */\012NPUSHB[ ]	/* 23 values pushed */\01247 1 0 8 53 1 7 0 46 1 1 7 39 1 3 1 69 25 2 11 10 5 74 \012ELSE[ ]	/* Else */\012NPUSHB[ ]	/* 23 values pushed */\01247 1 0 8 53 1 7 0 46 1 6 7 39 1 3 1 69 25 2 11 10 5 74 \012EIF[ ]	/* EndIf */\012EIF[ ]	/* EndIf */\012MPPEM[ ]	/* MeasurePixelPerEm */\012PUSHB[ ]	/* 1 value pushed */\01219 \012LT[ ]	/* LessThan */\012IF[ ]	/* If */\012NPUSHB[ ]	/* 52 values pushed */\0120 3 10 1 3 87 6 1 1 0 10 11 1 10 97 7 12 2 0 0 8 91 9 1 8 8 31 75 0 11 11 4 91 5 1 4 4 29 75 13 1 2 2 4 91 5 1 4 4 29 4 76 \012ELSE[ ]	/* Else */\012MPPEM[ ]	/* MeasurePixelPerEm */\012PUSHB[ ]	/* 1 value pushed */\01221 \012LT[ ]	/* LessThan */\012IF[ ]	/* If */\012NPUSHB[ ]	/* 63 values pushed */\0120 3 10 1 3 87 6 1 1 0 10 11 1 10 97 7 12 2 0 0 9 91 0 9 9 31 75 7 12 2 0 0 8 91 0 8 8 31 75 0 11 11 4 91 5 1 4 4 29 75 13 1 2 2 4 91 5 1 4 4 29 4 76 \012ELSE[ ]	/* Else */\012MPPEM[ ]	/* MeasurePixelPerEm */\012PUSHB[ ]	/* 1 value pushed */\01226 \012LT[ ]	/* LessThan */\012IF[ ]	/* If */\012NPUSHB[ ]	/* 60 values pushed */\0120 3 10 1 3 87 6 1 1 0 10 11 1 10 97 12 1 0 0 9 91 0 9 9 31 75 0 7 7 8 91 0 8 8 31 75 0 11 11 4 91 5 1 4 4 29 75 13 1 2 2 4 91 5 1 4 4 29 4 76 \012ELSE[ ]	/* Else */\012MPPEM[ ]	/* MeasurePixelPerEm */\012PUSHB[ ]	/* 1 value pushed */\01233 \012LT[ ]	/* LessThan */\012IF[ ]	/* If */\012NPUSHB[ ]	/* 56 values pushed */\0120 9 12 1 0 7 9 0 99 0 8 0 7 1 8 7 99 0 3 10 1 3 87 6 1 1 0 10 11 1 10 97 0 11 11 4 91 5 1 4 4 29 75 13 1 2 2 4 91 5 1 4 4 29 4 76 \012ELSE[ ]	/* Else */\012MPPEM[ ]	/* MeasurePixelPerEm */\012PUSHB[ ]	/* 1 value pushed */\01234 \012LT[ ]	/* LessThan */\012IF[ ]	/* If */\012NPUSHB[ ]	/* 56 values pushed */\0120 9 12 1 0 7 9 0 99 0 8 0 7 1 8 7 99 0 3 10 1 3 87 6 1 1 0 10 11 1 10 97 0 11 11 4 91 5 1 4 4 32 75 13 1 2 2 4 91 5 1 4 4 32 4 76 \012ELSE[ ]	/* Else */\012MPPEM[ ]	/* MeasurePixelPerEm */\012PUSHB[ ]	/* 1 value pushed */\01243 \012LT[ ]	/* LessThan */\012IF[ ]	/* If */\012NPUSHB[ ]	/* 57 values pushed */\0120 9 12 1 0 7 9 0 99 0 8 0 7 6 8 7 99 0 6 0 3 10 6 3 99 0 1 0 10 11 1 10 97 0 11 11 4 91 5 1 4 4 32 75 13 1 2 2 4 91 5 1 4 4 32 4 76 \012ELSE[ ]	/* Else */\012NPUSHB[ ]	/* 58 values pushed */\0120 9 12 1 0 7 9 0 99 0 8 0 7 6 8 7 99 0 6 0 3 10 6 3 99 0 1 0 10 11 1 10 97 0 11 2 4 11 87 13 1 2 4 4 2 87 13 1 2 2 4 91 5 1 4 2 4 79 \012EIF[ ]	/* EndIf */\012EIF[ ]	/* EndIf */\012EIF[ ]	/* EndIf */\012EIF[ ]	/* EndIf */\012EIF[ ]	/* EndIf */\012EIF[ ]	/* EndIf */\012NPUSHB[ ]	/* 35 values pushed */\0128 7 1 0 67 65 63 62 57 55 51 49 44 42 37 35 29 27 23 21 14 12 7 18 8 18 4 3 0 6 1 6 14 7 20 \012CALL[ ]	/* CallFunction */";
};
width = 991;
}
);
leftKerningGroup = a;
note = ae;
rightKerningGroup = e;
unicode = 00E6;
},
{
glyphname = b;
layers = (
{
layerId = "952C609B-CA64-4350-B6E7-D316939CE488";
paths = (
{
closed = 1;
nodes = (
"474 -22 OFFCURVE",
"549.833 13.167 OFFCURVE",
"602.5 68.5 CURVE SMOOTH",
"655.167 123.833 OFFCURVE",
"688 202 OFFCURVE",
"688 286 CURVE SMOOTH",
"688 370 OFFCURVE",
"655.167 448 OFFCURVE",
"602.5 504 CURVE SMOOTH",
"549.833 560 OFFCURVE",
"474 596 OFFCURVE",
"390 596 CURVE SMOOTH",
"295.333 596 OFFCURVE",
"210.667 553.333 OFFCURVE",
"156 488 CURVE",
"156 780 LINE",
"46 780 LINE",
"46 0 LINE",
"151 0 LINE",
"151 89 LINE",
"205.667 21 OFFCURVE",
"291.333 -22 OFFCURVE",
"390 -22 CURVE SMOOTH"
);
},
{
closed = 1;
nodes = (
"153 400.716 OFFCURVE",
"245.114 499 OFFCURVE",
"364 499 CURVE SMOOTH",
"483.249 499 OFFCURVE",
"572 403.268 OFFCURVE",
"572 288 CURVE SMOOTH",
"572 173.436 OFFCURVE",
"483.332 75 OFFCURVE",
"364 75 CURVE SMOOTH",
"245.114 75 OFFCURVE",
"153 173.284 OFFCURVE",
"153 287 CURVE SMOOTH"
);
}
);
userData = {
assembly = "PUSHB[ ]	/* 7 values pushed */\0128 3 2 4 5 1 74 \012MPPEM[ ]	/* MeasurePixelPerEm */\012PUSHB[ ]	/* 1 value pushed */\01226 \012LT[ ]	/* LessThan */\012IF[ ]	/* If */\012NPUSHB[ ]	/* 32 values pushed */\0120 2 2 22 75 0 5 5 3 91 0 3 3 31 75 0 1 1 21 75 0 4 4 0 91 6 1 0 0 29 0 76 \012ELSE[ ]	/* Else */\012MPPEM[ ]	/* MeasurePixelPerEm */\012PUSHB[ ]	/* 1 value pushed */\01233 \012LT[ ]	/* LessThan */\012IF[ ]	/* If */\012NPUSHB[ ]	/* 30 values pushed */\0120 3 0 5 4 3 5 99 0 2 2 22 75 0 1 1 21 75 0 4 4 0 91 6 1 0 0 29 0 76 \012ELSE[ ]	/* Else */\012MPPEM[ ]	/* MeasurePixelPerEm */\012PUSHB[ ]	/* 1 value pushed */\01243 \012LT[ ]	/* LessThan */\012IF[ ]	/* If */\012NPUSHB[ ]	/* 30 values pushed */\0120 3 0 5 4 3 5 99 0 2 2 22 75 0 1 1 24 75 0 4 4 0 91 6 1 0 0 32 0 76 \012ELSE[ ]	/* Else */\012NPUSHB[ ]	/* 27 values pushed */\0120 3 0 5 4 3 5 99 0 4 6 1 0 4 0 95 0 1 1 2 89 0 2 2 22 1 76 \012EIF[ ]	/* EndIf */\012EIF[ ]	/* EndIf */\012EIF[ ]	/* EndIf */\012NPUSHB[ ]	/* 19 values pushed */\0121 0 37 35 27 25 12 10 7 6 5 4 0 20 1 20 7 7 20 \012CALL[ ]	/* CallFunction */";
};
width = 712;
}
);
leftKerningGroup = b;
note = b;
rightKerningGroup = b;
unicode = 0062;
},
{
glyphname = c;
layers = (
{
layerId = "952C609B-CA64-4350-B6E7-D316939CE488";
paths = (
{
closed = 1;
nodes = (
"492 111 LINE",
"489 111 LINE",
"442.333 81.667 OFFCURVE",
"391.333 76 OFFCURVE",
"354 76 CURVE SMOOTH",
"232.74 76 OFFCURVE",
"140 168.646 OFFCURVE",
"140 287 CURVE SMOOTH",
"140 404.815 OFFCURVE",
"233.775 498 OFFCURVE",
"354 498 CURVE SMOOTH",
"391.333 498 OFFCURVE",
"446.333 491.667 OFFCURVE",
"489 461 CURVE",
"492 461 LINE",
"492 562 LINE",
"456 583.333 OFFCURVE",
"394 592 OFFCURVE",
"354 592 CURVE SMOOTH",
"260.667 592 OFFCURVE",
"177.667 557.667 OFFCURVE",
"119 503 CURVE SMOOTH",
"60.333 448.333 OFFCURVE",
"24 371 OFFCURVE",
"24 287 CURVE SMOOTH",
"24 203 OFFCURVE",
"60.333 125.667 OFFCURVE",
"119 71 CURVE SMOOTH",
"177.667 16.333 OFFCURVE",
"260.667 -18 OFFCURVE",
"354 -18 CURVE SMOOTH",
"394 -18 OFFCURVE",
"458.667 -10 OFFCURVE",
"492 10 CURVE"
);
}
);
userData = {
assembly = "NPUSHB[ ]	/* 15 values pushed */\01217 1 2 1 35 18 2 3 2 1 1 0 3 3 74 \012MPPEM[ ]	/* MeasurePixelPerEm */\012PUSHB[ ]	/* 1 value pushed */\01226 \012LT[ ]	/* LessThan */\012IF[ ]	/* If */\012NPUSHB[ ]	/* 21 values pushed */\0120 2 2 1 91 0 1 1 31 75 0 3 3 0 91 0 0 0 32 0 76 \012ELSE[ ]	/* Else */\012MPPEM[ ]	/* MeasurePixelPerEm */\012PUSHB[ ]	/* 1 value pushed */\01243 \012LT[ ]	/* LessThan */\012IF[ ]	/* If */\012NPUSHB[ ]	/* 19 values pushed */\0120 1 0 2 3 1 2 99 0 3 3 0 91 0 0 0 32 0 76 \012ELSE[ ]	/* Else */\012NPUSHB[ ]	/* 24 values pushed */\0120 1 0 2 3 1 2 99 0 3 0 0 3 87 0 3 3 0 91 0 0 3 0 79 \012EIF[ ]	/* EndIf */\012EIF[ ]	/* EndIf */\012PUSHB[ ]	/* 7 values pushed */\01240 38 40 35 4 7 24 \012CALL[ ]	/* CallFunction */";
};
width = 530;
}
);
leftKerningGroup = c;
note = c;
rightKerningGroup = c;
unicode = 0063;
},
{
glyphname = d;
layers = (
{
layerId = "952C609B-CA64-4350-B6E7-D316939CE488";
paths = (
{
closed = 1;
nodes = (
"559 173.284 OFFCURVE",
"466.886 75 OFFCURVE",
"348 75 CURVE SMOOTH",
"228.668 75 OFFCURVE",
"140 173.436 OFFCURVE",
"140 288 CURVE SMOOTH",
"140 403.268 OFFCURVE",
"228.751 499 OFFCURVE",
"348 499 CURVE SMOOTH",
"466.886 499 OFFCURVE",
"559 400.716 OFFCURVE",
"559 287 CURVE SMOOTH"
);
},
{
closed = 1;
nodes = (
"561 0 LINE",
"666 0 LINE",
"666 780 LINE",
"556 780 LINE",
"556 488 LINE",
"501.333 553.333 OFFCURVE",
"417 596 OFFCURVE",
"321 596 CURVE SMOOTH",
"237 596 OFFCURVE",
"162.333 560 OFFCURVE",
"109 504 CURVE SMOOTH",
"55.667 448 OFFCURVE",
"24 370 OFFCURVE",
"24 286 CURVE SMOOTH",
"24 202 OFFCURVE",
"55.667 123.833 OFFCURVE",
"109 68.5 CURVE SMOOTH",
"162.333 13.167 OFFCURVE",
"237 -22 OFFCURVE",
"321 -22 CURVE SMOOTH",
"421 -22 OFFCURVE",
"506.333 21 OFFCURVE",
"561 89 CURVE"
);
}
);
userData = {
assembly = "PUSHB[ ]	/* 7 values pushed */\01237 21 2 1 0 1 74 \012MPPEM[ ]	/* MeasurePixelPerEm */\012PUSHB[ ]	/* 1 value pushed */\01226 \012LT[ ]	/* LessThan */\012IF[ ]	/* If */\012NPUSHB[ ]	/* 32 values pushed */\0120 4 4 22 75 0 0 0 3 91 0 3 3 31 75 6 1 5 5 21 75 0 1 1 2 91 0 2 2 29 2 76 \012ELSE[ ]	/* Else */\012MPPEM[ ]	/* MeasurePixelPerEm */\012PUSHB[ ]	/* 1 value pushed */\01233 \012LT[ ]	/* LessThan */\012IF[ ]	/* If */\012NPUSHB[ ]	/* 30 values pushed */\0120 3 0 0 1 3 0 99 0 4 4 22 75 6 1 5 5 21 75 0 1 1 2 91 0 2 2 29 2 76 \012ELSE[ ]	/* Else */\012MPPEM[ ]	/* MeasurePixelPerEm */\012PUSHB[ ]	/* 1 value pushed */\01243 \012LT[ ]	/* LessThan */\012IF[ ]	/* If */\012NPUSHB[ ]	/* 30 values pushed */\0120 3 0 0 1 3 0 99 0 4 4 22 75 6 1 5 5 24 75 0 1 1 2 91 0 2 2 32 2 76 \012ELSE[ ]	/* Else */\012NPUSHB[ ]	/* 27 values pushed */\0120 3 0 0 1 3 0 99 0 1 0 2 1 2 95 6 1 5 5 4 89 0 4 4 22 5 76 \012EIF[ ]	/* EndIf */\012EIF[ ]	/* EndIf */\012EIF[ ]	/* EndIf */\012NPUSHB[ ]	/* 14 values pushed */\01220 20 20 40 20 40 19 40 39 40 36 7 7 25 \012CALL[ ]	/* CallFunction */";
};
width = 712;
}
);
leftKerningGroup = d;
note = d;
rightKerningGroup = d;
unicode = 0064;
},
{
glyphname = eth;
layers = (
{
layerId = "952C609B-CA64-4350-B6E7-D316939CE488";
paths = (
{
closed = 1;
nodes = (
"441 -28 OFFCURVE",
"523.5 8.667 OFFCURVE",
"581.5 66 CURVE SMOOTH",
"639.5 123.333 OFFCURVE",
"674 203 OFFCURVE",
"674 287 CURVE",
"673 287 LINE",
"673.667 289 OFFCURVE",
"674 291 OFFCURVE",
"674 293 CURVE SMOOTH",
"674 295 OFFCURVE",
"674 297.333 OFFCURVE",
"674 300 CURVE SMOOTH",
"674 432 OFFCURVE",
"605 565 OFFCURVE",
"485 677 CURVE",
"602 709 LINE",
"565 770 LINE",
"421 731 LINE",
"399.667 748.333 OFFCURVE",
"376.333 764 OFFCURVE",
"351 780 CURVE",
"189 780 LINE",
"230.333 754.667 OFFCURVE",
"269.667 726.667 OFFCURVE",
"307 700 CURVE",
"178 665 LINE",
"215 604 LINE",
"372 647 LINE",
"398.667 623 OFFCURVE",
"424.667 599 OFFCURVE",
"446 575 CURVE",
"416.667 584.333 OFFCURVE",
"382.333 589 OFFCURVE",
"349 589 CURVE SMOOTH",
"255.667 589 OFFCURVE",
"174.5 553.667 OFFCURVE",
"116.5 499 CURVE SMOOTH",
"58.5 444.333 OFFCURVE",
"24 367 OFFCURVE",
"24 287 CURVE SMOOTH",
"24 203 OFFCURVE",
"58.5 123.333 OFFCURVE",
"116.5 66 CURVE SMOOTH",
"174.5 8.667 OFFCURVE",
"255.667 -28 OFFCURVE",
"349 -28 CURVE SMOOTH"
);
},
{
closed = 1;
nodes = (
"469.424 505 OFFCURVE",
"558 403.209 OFFCURVE",
"558 287 CURVE SMOOTH",
"558 168.515 OFFCURVE",
"469.074 69 OFFCURVE",
"349 69 CURVE SMOOTH",
"230.043 69 OFFCURVE",
"139 168.515 OFFCURVE",
"139 287 CURVE SMOOTH",
"139 403.209 OFFCURVE",
"229.719 505 OFFCURVE",
"349 505 CURVE SMOOTH"
);
}
);
userData = {
assembly = "NPUSHB[ ]	/* 17 values pushed */\01229 28 27 26 19 18 17 16 8 1 2 13 1 3 1 2 74 \012MPPEM[ ]	/* MeasurePixelPerEm */\012PUSHB[ ]	/* 1 value pushed */\01226 \012LT[ ]	/* LessThan */\012IF[ ]	/* If */\012NPUSHB[ ]	/* 28 values pushed */\0120 2 2 22 75 6 1 3 3 1 91 0 1 1 31 75 0 4 4 0 91 5 1 0 0 29 0 76 \012ELSE[ ]	/* Else */\012MPPEM[ ]	/* MeasurePixelPerEm */\012PUSHB[ ]	/* 1 value pushed */\01233 \012LT[ ]	/* LessThan */\012IF[ ]	/* If */\012NPUSHB[ ]	/* 26 values pushed */\0120 1 6 1 3 4 1 3 100 0 2 2 22 75 0 4 4 0 91 5 1 0 0 29 0 76 \012ELSE[ ]	/* Else */\012MPPEM[ ]	/* MeasurePixelPerEm */\012PUSHB[ ]	/* 1 value pushed */\01243 \012LT[ ]	/* LessThan */\012IF[ ]	/* If */\012NPUSHB[ ]	/* 26 values pushed */\0120 1 6 1 3 4 1 3 100 0 2 2 22 75 0 4 4 0 91 5 1 0 0 32 0 76 \012ELSE[ ]	/* Else */\012NPUSHB[ ]	/* 23 values pushed */\0120 1 6 1 3 4 1 3 100 0 4 5 1 0 4 0 95 0 2 2 22 2 76 \012EIF[ ]	/* EndIf */\012EIF[ ]	/* EndIf */\012EIF[ ]	/* EndIf */\012NPUSHB[ ]	/* 21 values pushed */\01242 41 1 0 52 50 41 60 42 60 23 22 11 9 0 40 1 40 7 7 20 \012CALL[ ]	/* CallFunction */";
};
width = 698;
}
);
leftKerningGroup = c;
note = eth;
rightKerningGroup = eth;
unicode = 00F0;
},
{
glyphname = dcroat;
layers = (
{
layerId = "952C609B-CA64-4350-B6E7-D316939CE488";
paths = (
{
closed = 1;
nodes = (
"559 173.284 OFFCURVE",
"466.886 75 OFFCURVE",
"348 75 CURVE SMOOTH",
"228.668 75 OFFCURVE",
"140 173.436 OFFCURVE",
"140 288 CURVE SMOOTH",
"140 403.268 OFFCURVE",
"228.751 499 OFFCURVE",
"348 499 CURVE SMOOTH",
"466.886 499 OFFCURVE",
"559 400.716 OFFCURVE",
"559 287 CURVE SMOOTH"
);
},
{
closed = 1;
nodes = (
"561 0 LINE",
"666 0 LINE",
"666 613 LINE",
"713 613 LINE",
"713 689 LINE",
"666 689 LINE",
"666 780 LINE",
"556 780 LINE",
"556 689 LINE",
"468 689 LINE",
"468 613 LINE",
"556 613 LINE",
"556 488 LINE",
"501.333 553.333 OFFCURVE",
"417 596 OFFCURVE",
"321 596 CURVE SMOOTH",
"237 596 OFFCURVE",
"162.333 560 OFFCURVE",
"109 504 CURVE SMOOTH",
"55.667 448 OFFCURVE",
"24 370 OFFCURVE",
"24 286 CURVE SMOOTH",
"24 202 OFFCURVE",
"55.667 123.833 OFFCURVE",
"109 68.5 CURVE SMOOTH",
"162.333 13.167 OFFCURVE",
"237 -22 OFFCURVE",
"321 -22 CURVE SMOOTH",
"421 -22 OFFCURVE",
"506.333 21 OFFCURVE",
"561 89 CURVE"
);
}
);
userData = {
assembly = "PUSHB[ ]	/* 7 values pushed */\01237 21 2 1 0 1 74 \012MPPEM[ ]	/* MeasurePixelPerEm */\012PUSHB[ ]	/* 1 value pushed */\01226 \012LT[ ]	/* LessThan */\012IF[ ]	/* If */\012NPUSHB[ ]	/* 42 values pushed */\0127 1 5 8 1 4 3 5 4 97 0 6 6 22 75 0 0 0 3 91 0 3 3 31 75 10 1 9 9 21 75 0 1 1 2 91 0 2 2 29 2 76 \012ELSE[ ]	/* Else */\012MPPEM[ ]	/* MeasurePixelPerEm */\012PUSHB[ ]	/* 1 value pushed */\01233 \012LT[ ]	/* LessThan */\012IF[ ]	/* If */\012NPUSHB[ ]	/* 40 values pushed */\0127 1 5 8 1 4 3 5 4 97 0 3 0 0 1 3 0 99 0 6 6 22 75 10 1 9 9 21 75 0 1 1 2 91 0 2 2 29 2 76 \012ELSE[ ]	/* Else */\012MPPEM[ ]	/* MeasurePixelPerEm */\012PUSHB[ ]	/* 1 value pushed */\01243 \012LT[ ]	/* LessThan */\012IF[ ]	/* If */\012NPUSHB[ ]	/* 40 values pushed */\0127 1 5 8 1 4 3 5 4 97 0 3 0 0 1 3 0 99 0 6 6 22 75 10 1 9 9 24 75 0 1 1 2 91 0 2 2 32 2 76 \012ELSE[ ]	/* Else */\012NPUSHB[ ]	/* 37 values pushed */\0127 1 5 8 1 4 3 5 4 97 0 3 0 0 1 3 0 99 0 1 0 2 1 2 95 10 1 9 9 6 89 0 6 6 22 9 76 \012EIF[ ]	/* EndIf */\012EIF[ ]	/* EndIf */\012EIF[ ]	/* EndIf */\012NPUSHB[ ]	/* 18 values pushed */\01220 20 20 48 20 48 17 17 17 17 19 40 39 40 36 11 7 29 \012CALL[ ]	/* CallFunction */";
};
width = 712;
}
);
leftKerningGroup = d;
note = dcroat;
rightKerningGroup = d;
unicode = 0111;
},
{
glyphname = e;
layers = (
{
layerId = "952C609B-CA64-4350-B6E7-D316939CE488";
paths = (
{
closed = 1;
nodes = (
"425 508 OFFCURVE",
"495.667 445 OFFCURVE",
"517 353 CURVE",
"147 353 LINE",
"168.333 446.333 OFFCURVE",
"238.333 508 OFFCURVE",
"333 508 CURVE SMOOTH"
);
},
{
closed = 1;
nodes = (
"563 150 LINE",
"513.667 100.667 OFFCURVE",
"445.333 66 OFFCURVE",
"356 66 CURVE SMOOTH",
"230.667 66 OFFCURVE",
"149 147 OFFCURVE",
"141 267 CURVE",
"639 267 LINE",
"639 293 LINE SMOOTH",
"639 379.667 OFFCURVE",
"605.833 458.167 OFFCURVE",
"550.5 513.5 CURVE SMOOTH",
"495.167 568.833 OFFCURVE",
"418.333 603 OFFCURVE",
"333 603 CURVE SMOOTH",
"243.667 603 OFFCURVE",
"165.667 568.167 OFFCURVE",
"111 511.5 CURVE SMOOTH",
"56.333 454.833 OFFCURVE",
"24 375 OFFCURVE",
"24 287 CURVE SMOOTH",
"24 199 OFFCURVE",
"57.667 118.167 OFFCURVE",
"115 61.5 CURVE SMOOTH",
"172.333 4.833 OFFCURVE",
"256 -30 OFFCURVE",
"356 -30 CURVE SMOOTH",
"481.333 -30 OFFCURVE",
"569 19 OFFCURVE",
"629 79 CURVE"
);
}
);
userData = {
assembly = "PUSHB[ ]	/* 6 values pushed */\01233 1 5 4 1 74 \012MPPEM[ ]	/* MeasurePixelPerEm */\012PUSHB[ ]	/* 1 value pushed */\01226 \012LT[ ]	/* LessThan */\012IF[ ]	/* If */\012NPUSHB[ ]	/* 30 values pushed */\0120 1 0 4 5 1 4 97 6 1 0 0 3 91 0 3 3 31 75 0 5 5 2 91 0 2 2 29 2 76 \012ELSE[ ]	/* Else */\012MPPEM[ ]	/* MeasurePixelPerEm */\012PUSHB[ ]	/* 1 value pushed */\01233 \012LT[ ]	/* LessThan */\012IF[ ]	/* If */\012NPUSHB[ ]	/* 28 values pushed */\0120 3 6 1 0 1 3 0 99 0 1 0 4 5 1 4 97 0 5 5 2 91 0 2 2 29 2 76 \012ELSE[ ]	/* Else */\012MPPEM[ ]	/* MeasurePixelPerEm */\012PUSHB[ ]	/* 1 value pushed */\01241 \012LT[ ]	/* LessThan */\012IF[ ]	/* If */\012NPUSHB[ ]	/* 28 values pushed */\0120 3 6 1 0 1 3 0 99 0 1 0 4 5 1 4 97 0 5 5 2 91 0 2 2 32 2 76 \012ELSE[ ]	/* Else */\012NPUSHB[ ]	/* 33 values pushed */\0120 3 6 1 0 1 3 0 99 0 1 0 4 5 1 4 97 0 5 2 2 5 87 0 5 5 2 91 0 2 5 2 79 \012EIF[ ]	/* EndIf */\012EIF[ ]	/* EndIf */\012EIF[ ]	/* EndIf */\012NPUSHB[ ]	/* 19 values pushed */\0121 0 31 29 27 26 21 19 11 9 4 3 0 6 1 6 7 7 20 \012CALL[ ]	/* CallFunction */";
};
width = 660;
}
);
leftKerningGroup = c;
note = e;
rightKerningGroup = e;
unicode = 0065;
},
{
glyphname = eogonek;
layers = (
{
layerId = "952C609B-CA64-4350-B6E7-D316939CE488";
paths = (
{
closed = 1;
nodes = (
"425 508 OFFCURVE",
"495.667 445 OFFCURVE",
"517 353 CURVE",
"147 353 LINE",
"168.333 446.333 OFFCURVE",
"238.333 508 OFFCURVE",
"333 508 CURVE SMOOTH"
);
},
{
closed = 1;
nodes = (
"592 -96 LINE",
"584 -102.667 OFFCURVE",
"572 -110 OFFCURVE",
"556 -110 CURVE SMOOTH",
"537.333 -110 OFFCURVE",
"525 -96.667 OFFCURVE",
"525 -78 CURVE SMOOTH",
"525 -60.667 OFFCURVE",
"532 -40.333 OFFCURVE",
"556 -11 CURVE SMOOTH",
"629 79 LINE",
"563 150 LINE",
"513.667 100.667 OFFCURVE",
"445.333 66 OFFCURVE",
"356 66 CURVE SMOOTH",
"230.667 66 OFFCURVE",
"149 147 OFFCURVE",
"141 267 CURVE",
"639 267 LINE",
"639 293 LINE SMOOTH",
"639 379.667 OFFCURVE",
"605.833 458.167 OFFCURVE",
"550.5 513.5 CURVE SMOOTH",
"495.167 568.833 OFFCURVE",
"418.333 603 OFFCURVE",
"333 603 CURVE SMOOTH",
"243.667 603 OFFCURVE",
"165.667 568.167 OFFCURVE",
"111 511.5 CURVE SMOOTH",
"56.333 454.833 OFFCURVE",
"24 375 OFFCURVE",
"24 287 CURVE SMOOTH",
"24 199 OFFCURVE",
"57.667 118.167 OFFCURVE",
"115 61.5 CURVE SMOOTH",
"172.333 4.833 OFFCURVE",
"256 -30 OFFCURVE",
"356 -30 CURVE SMOOTH",
"397.333 -30 OFFCURVE",
"434.667 -24.333 OFFCURVE",
"468 -15 CURVE",
"448 -40.333 OFFCURVE",
"435 -67.667 OFFCURVE",
"435 -97 CURVE SMOOTH",
"435 -138.333 OFFCURVE",
"464.667 -176 OFFCURVE",
"530 -176 CURVE SMOOTH",
"575.333 -174.667 OFFCURVE",
"609.667 -157.333 OFFCURVE",
"627 -140 CURVE"
);
}
);
userData = {
assembly = "NPUSHB[ ]	/* 15 values pushed */\01243 42 2 6 5 16 1 3 6 53 1 7 3 3 74 \012MPPEM[ ]	/* MeasurePixelPerEm */\012PUSHB[ ]	/* 1 value pushed */\01226 \012LT[ ]	/* LessThan */\012IF[ ]	/* If */\012NPUSHB[ ]	/* 37 values pushed */\0120 1 0 5 6 1 5 97 0 7 0 2 7 2 95 8 1 0 0 4 91 0 4 4 31 75 0 6 6 3 91 0 3 3 29 3 76 \012ELSE[ ]	/* Else */\012MPPEM[ ]	/* MeasurePixelPerEm */\012PUSHB[ ]	/* 1 value pushed */\01233 \012LT[ ]	/* LessThan */\012IF[ ]	/* If */\012NPUSHB[ ]	/* 35 values pushed */\0120 4 8 1 0 1 4 0 99 0 1 0 5 6 1 5 97 0 7 0 2 7 2 95 0 6 6 3 91 0 3 3 29 3 76 \012ELSE[ ]	/* Else */\012MPPEM[ ]	/* MeasurePixelPerEm */\012PUSHB[ ]	/* 1 value pushed */\01241 \012LT[ ]	/* LessThan */\012IF[ ]	/* If */\012NPUSHB[ ]	/* 35 values pushed */\0120 4 8 1 0 1 4 0 99 0 1 0 5 6 1 5 97 0 7 0 2 7 2 95 0 6 6 3 91 0 3 3 32 3 76 \012ELSE[ ]	/* Else */\012NPUSHB[ ]	/* 41 values pushed */\0120 4 8 1 0 1 4 0 99 0 1 0 5 6 1 5 97 0 6 0 3 7 6 3 99 0 7 2 2 7 87 0 7 7 2 91 0 2 7 2 79 \012EIF[ ]	/* EndIf */\012EIF[ ]	/* EndIf */\012EIF[ ]	/* EndIf */\012NPUSHB[ ]	/* 23 values pushed */\0121 0 51 49 40 38 36 35 30 28 20 18 11 9 4 3 0 6 1 6 9 7 20 \012CALL[ ]	/* CallFunction */";
};
width = 660;
}
);
leftKerningGroup = c;
note = eogonek;
rightKerningGroup = e;
unicode = 0119;
},
{
glyphname = schwa;
layers = (
{
layerId = "952C609B-CA64-4350-B6E7-D316939CE488";
paths = (
{
closed = 1;
nodes = (
"417.333 -29 OFFCURVE",
"494.333 5.833 OFFCURVE",
"549 62.5 CURVE SMOOTH",
"603.667 119.167 OFFCURVE",
"636 199 OFFCURVE",
"636 287 CURVE SMOOTH",
"636 375 OFFCURVE",
"602.333 454.833 OFFCURVE",
"545 511.5 CURVE SMOOTH",
"487.667 568.167 OFFCURVE",
"403.667 603 OFFCURVE",
"305 603 CURVE SMOOTH",
"178.333 603 OFFCURVE",
"92.333 555 OFFCURVE",
"31 495 CURVE",
"98 424 LINE",
"147.333 473.333 OFFCURVE",
"215.667 508 OFFCURVE",
"305 508 CURVE SMOOTH",
"430.333 508 OFFCURVE",
"512 427 OFFCURVE",
"520 307 CURVE",
"21 307 LINE",
"21 281 LINE SMOOTH",
"21 194.333 OFFCURVE",
"54.167 115.833 OFFCURVE",
"109.5 60.5 CURVE SMOOTH",
"164.833 5.167 OFFCURVE",
"241.333 -29 OFFCURVE",
"328 -29 CURVE SMOOTH"
);
},
{
closed = 1;
nodes = (
"234.667 66 OFFCURVE",
"164.333 129 OFFCURVE",
"143 221 CURVE",
"514 221 LINE",
"492.667 127.667 OFFCURVE",
"421.333 66 OFFCURVE",
"328 66 CURVE SMOOTH"
);
}
);
userData = {
assembly = "PUSHB[ ]	/* 7 values pushed */\01214 13 2 1 2 1 74 \012MPPEM[ ]	/* MeasurePixelPerEm */\012PUSHB[ ]	/* 1 value pushed */\01226 \012LT[ ]	/* LessThan */\012IF[ ]	/* If */\012NPUSHB[ ]	/* 31 values pushed */\0120 1 0 5 4 1 5 97 0 2 2 3 91 0 3 3 31 75 7 1 4 4 0 91 6 1 0 0 29 0 76 \012ELSE[ ]	/* Else */\012MPPEM[ ]	/* MeasurePixelPerEm */\012PUSHB[ ]	/* 1 value pushed */\01233 \012LT[ ]	/* LessThan */\012IF[ ]	/* If */\012NPUSHB[ ]	/* 29 values pushed */\0120 3 0 2 1 3 2 99 0 1 0 5 4 1 5 97 7 1 4 4 0 91 6 1 0 0 29 0 76 \012ELSE[ ]	/* Else */\012MPPEM[ ]	/* MeasurePixelPerEm */\012PUSHB[ ]	/* 1 value pushed */\01243 \012LT[ ]	/* LessThan */\012IF[ ]	/* If */\012NPUSHB[ ]	/* 29 values pushed */\0120 3 0 2 1 3 2 99 0 1 0 5 4 1 5 97 7 1 4 4 0 91 6 1 0 0 32 0 76 \012ELSE[ ]	/* Else */\012NPUSHB[ ]	/* 35 values pushed */\0120 3 0 2 1 3 2 99 0 1 0 5 4 1 5 97 7 1 4 0 0 4 87 7 1 4 4 0 91 6 1 0 4 0 79 \012EIF[ ]	/* EndIf */\012EIF[ ]	/* EndIf */\012EIF[ ]	/* EndIf */\012NPUSHB[ ]	/* 23 values pushed */\01228 27 1 0 31 30 27 33 28 33 18 16 11 9 7 6 0 26 1 26 8 7 20 \012CALL[ ]	/* CallFunction */";
};
width = 660;
}
);
note = schwa;
rightKerningGroup = o;
unicode = 0259;
},
{
glyphname = f;
layers = (
{
layerId = "952C609B-CA64-4350-B6E7-D316939CE488";
paths = (
{
closed = 1;
nodes = (
"274 480 LINE",
"274 574 LINE",
"197 574 LINE",
"197 598 LINE SMOOTH",
"197 683.333 OFFCURVE",
"242 695 OFFCURVE",
"286 695 CURVE",
"286 792 LINE",
"174.55 792 OFFCURVE",
"87 754.038 OFFCURVE",
"87 606 CURVE SMOOTH",
"87 574 LINE",
"12 574 LINE",
"12 480 LINE",
"87 480 LINE",
"87 0 LINE",
"197 0 LINE",
"197 480 LINE"
);
}
);
userData = {
assembly = "MPPEM[ ]	/* MeasurePixelPerEm */\012PUSHB[ ]	/* 1 value pushed */\01226 \012LT[ ]	/* LessThan */\012IF[ ]	/* If */\012NPUSHB[ ]	/* 28 values pushed */\0120 5 5 4 91 0 4 4 30 75 2 1 0 0 3 89 6 1 3 3 23 75 0 1 1 21 1 76 \012ELSE[ ]	/* Else */\012MPPEM[ ]	/* MeasurePixelPerEm */\012PUSHB[ ]	/* 1 value pushed */\01233 \012LT[ ]	/* LessThan */\012IF[ ]	/* If */\012NPUSHB[ ]	/* 26 values pushed */\0126 1 3 2 1 0 1 3 0 97 0 5 5 4 91 0 4 4 30 75 0 1 1 21 1 76 \012ELSE[ ]	/* Else */\012MPPEM[ ]	/* MeasurePixelPerEm */\012PUSHB[ ]	/* 1 value pushed */\01243 \012LT[ ]	/* LessThan */\012IF[ ]	/* If */\012NPUSHB[ ]	/* 26 values pushed */\0126 1 3 2 1 0 1 3 0 97 0 5 5 4 91 0 4 4 30 75 0 1 1 24 1 76 \012ELSE[ ]	/* Else */\012NPUSHB[ ]	/* 26 values pushed */\0120 1 0 1 115 6 1 3 2 1 0 1 3 0 97 0 5 5 4 91 0 4 4 30 5 76 \012EIF[ ]	/* EndIf */\012EIF[ ]	/* EndIf */\012EIF[ ]	/* EndIf */\012NPUSHB[ ]	/* 10 values pushed */\01219 17 21 17 17 17 16 7 7 27 \012CALL[ ]	/* CallFunction */";
};
width = 289;
}
);
leftKerningGroup = f;
note = f;
rightKerningGroup = f;
unicode = 0066;
},
{
glyphname = g;
layers = (
{
layerId = "952C609B-CA64-4350-B6E7-D316939CE488";
paths = (
{
closed = 1;
nodes = (
"225.692 121 OFFCURVE",
"140 206.486 OFFCURVE",
"140 310 CURVE SMOOTH",
"140 415.937 OFFCURVE",
"225.462 502 OFFCURVE",
"330 502 CURVE SMOOTH",
"434.623 502 OFFCURVE",
"520 416.489 OFFCURVE",
"520 310 CURVE SMOOTH",
"520 205.952 OFFCURVE",
"434.385 121 OFFCURVE",
"330 121 CURVE SMOOTH"
);
},
{
closed = 1;
nodes = (
"412.667 -222 OFFCURVE",
"490.667 -203 OFFCURVE",
"544 -155 CURVE SMOOTH",
"597.333 -107 OFFCURVE",
"629 -29.667 OFFCURVE",
"629 85 CURVE SMOOTH",
"629 574 LINE",
"521 574 LINE",
"521 500 LINE",
"463.667 562.667 OFFCURVE",
"382 600.333 OFFCURVE",
"310 599 CURVE SMOOTH",
"235.333 599 OFFCURVE",
"163 570.5 OFFCURVE",
"111 520.5 CURVE SMOOTH",
"59 470.5 OFFCURVE",
"25 396.667 OFFCURVE",
"25 310 CURVE SMOOTH",
"25 223.333 OFFCURVE",
"59 151.333 OFFCURVE",
"111 102 CURVE SMOOTH",
"163 52.667 OFFCURVE",
"235.333 24 OFFCURVE",
"310 24 CURVE SMOOTH",
"382 24 OFFCURVE",
"461.667 59 OFFCURVE",
"519 119 CURVE",
"519 82 LINE SMOOTH",
"519 -72.607 OFFCURVE",
"440.131 -128 OFFCURVE",
"319 -128 CURVE SMOOTH",
"271 -128 OFFCURVE",
"214.667 -123.333 OFFCURVE",
"128 -106 CURVE",
"128 -201 LINE",
"202.667 -217 OFFCURVE",
"266 -222 OFFCURVE",
"322 -222 CURVE SMOOTH"
);
}
);
userData = {
assembly = "NPUSHB[ ]	/* 18 values pushed */\01249 1 0 1 33 1 4 0 24 1 3 4 23 1 2 3 4 74 \012MPPEM[ ]	/* MeasurePixelPerEm */\012PUSHB[ ]	/* 1 value pushed */\0129 \012LT[ ]	/* LessThan */\012IF[ ]	/* If */\012NPUSHB[ ]	/* 36 values pushed */\0127 1 0 0 4 3 0 4 99 0 6 6 23 75 0 1 1 5 91 0 5 5 31 75 0 3 3 2 91 8 1 2 2 33 2 76 \012ELSE[ ]	/* Else */\012MPPEM[ ]	/* MeasurePixelPerEm */\012PUSHB[ ]	/* 1 value pushed */\01221 \012LT[ ]	/* LessThan */\012IF[ ]	/* If */\012NPUSHB[ ]	/* 38 values pushed */\0120 6 6 23 75 0 1 1 5 91 0 5 5 31 75 7 1 0 0 4 91 0 4 4 21 75 0 3 3 2 91 8 1 2 2 33 2 76 \012ELSE[ ]	/* Else */\012MPPEM[ ]	/* MeasurePixelPerEm */\012PUSHB[ ]	/* 1 value pushed */\01226 \012LT[ ]	/* LessThan */\012IF[ ]	/* If */\012NPUSHB[ ]	/* 36 values pushed */\0127 1 0 0 4 3 0 4 99 0 6 6 23 75 0 1 1 5 91 0 5 5 31 75 0 3 3 2 91 8 1 2 2 33 2 76 \012ELSE[ ]	/* Else */\012NPUSHB[ ]	/* 37 values pushed */\0120 6 5 1 5 6 1 112 0 5 0 1 0 5 1 99 7 1 0 0 4 3 0 4 99 0 3 3 2 91 8 1 2 2 33 2 76 \012EIF[ ]	/* EndIf */\012EIF[ ]	/* EndIf */\012EIF[ ]	/* EndIf */\012NPUSHB[ ]	/* 25 values pushed */\01221 20 1 0 51 50 47 45 37 35 28 26 20 56 21 56 11 9 0 19 1 19 9 7 20 \012CALL[ ]	/* CallFunction */";
};
width = 675;
}
);
leftKerningGroup = g;
note = g;
rightKerningGroup = g;
unicode = 0067;
},
{
glyphname = h;
layers = (
{
layerId = "952C609B-CA64-4350-B6E7-D316939CE488";
paths = (
{
closed = 1;
nodes = (
"156 438.707 OFFCURVE",
"228.36 492 OFFCURVE",
"298 492 CURVE SMOOTH",
"370 492 OFFCURVE",
"437 455 OFFCURVE",
"437 343 CURVE SMOOTH",
"437 0 LINE",
"547 0 LINE",
"547 376 LINE SMOOTH",
"547 508 OFFCURVE",
"464 589 OFFCURVE",
"340 589 CURVE SMOOTH",
"256 589 OFFCURVE",
"189.333 549.667 OFFCURVE",
"152 507 CURVE",
"152 780 LINE",
"46 780 LINE",
"46 0 LINE",
"156 0 LINE",
"156 353 LINE SMOOTH"
);
}
);
userData = {
assembly = "PUSHB[ ]	/* 6 values pushed */\0125 1 4 2 1 74 \012MPPEM[ ]	/* MeasurePixelPerEm */\012PUSHB[ ]	/* 1 value pushed */\01226 \012LT[ ]	/* LessThan */\012IF[ ]	/* If */\012NPUSHB[ ]	/* 22 values pushed */\0120 1 1 22 75 0 4 4 2 91 0 2 2 31 75 3 1 0 0 21 0 76 \012ELSE[ ]	/* Else */\012MPPEM[ ]	/* MeasurePixelPerEm */\012PUSHB[ ]	/* 1 value pushed */\01233 \012LT[ ]	/* LessThan */\012IF[ ]	/* If */\012NPUSHB[ ]	/* 20 values pushed */\0120 2 0 4 0 2 4 99 0 1 1 22 75 3 1 0 0 21 0 76 \012ELSE[ ]	/* Else */\012MPPEM[ ]	/* MeasurePixelPerEm */\012PUSHB[ ]	/* 1 value pushed */\01243 \012LT[ ]	/* LessThan */\012IF[ ]	/* If */\012NPUSHB[ ]	/* 20 values pushed */\0120 2 0 4 0 2 4 99 0 1 1 22 75 3 1 0 0 24 0 76 \012ELSE[ ]	/* Else */\012NPUSHB[ ]	/* 20 values pushed */\0120 2 0 4 0 2 4 99 3 1 0 0 1 89 0 1 1 22 0 76 \012EIF[ ]	/* EndIf */\012EIF[ ]	/* EndIf */\012EIF[ ]	/* EndIf */\012PUSHB[ ]	/* 8 values pushed */\01235 19 35 17 17 5 7 25 \012CALL[ ]	/* CallFunction */";
};
width = 591;
}
);
leftKerningGroup = b;
note = h;
rightKerningGroup = h;
unicode = 0068;
},
{
glyphname = hbar;
layers = (
{
layerId = "952C609B-CA64-4350-B6E7-D316939CE488";
paths = (
{
closed = 1;
nodes = (
"156 438.707 OFFCURVE",
"228.36 492 OFFCURVE",
"298 492 CURVE SMOOTH",
"370 492 OFFCURVE",
"437 455 OFFCURVE",
"437 343 CURVE SMOOTH",
"437 0 LINE",
"547 0 LINE",
"547 376 LINE SMOOTH",
"547 508 OFFCURVE",
"464 589 OFFCURVE",
"340 589 CURVE SMOOTH",
"256 589 OFFCURVE",
"189.333 549.667 OFFCURVE",
"152 507 CURVE",
"152 613 LINE",
"244 613 LINE",
"244 689 LINE",
"152 689 LINE",
"152 780 LINE",
"46 780 LINE",
"46 689 LINE",
"-1 689 LINE",
"-1 613 LINE",
"46 613 LINE",
"46 0 LINE",
"156 0 LINE",
"156 353 LINE SMOOTH"
);
}
);
userData = {
assembly = "PUSHB[ ]	/* 6 values pushed */\01213 1 8 6 1 74 \012MPPEM[ ]	/* MeasurePixelPerEm */\012PUSHB[ ]	/* 1 value pushed */\01226 \012LT[ ]	/* LessThan */\012IF[ ]	/* If */\012NPUSHB[ ]	/* 32 values pushed */\0124 1 2 5 1 1 6 2 1 97 0 3 3 22 75 0 8 8 6 91 0 6 6 31 75 7 1 0 0 21 0 76 \012ELSE[ ]	/* Else */\012MPPEM[ ]	/* MeasurePixelPerEm */\012PUSHB[ ]	/* 1 value pushed */\01233 \012LT[ ]	/* LessThan */\012IF[ ]	/* If */\012NPUSHB[ ]	/* 30 values pushed */\0124 1 2 5 1 1 6 2 1 97 0 6 0 8 0 6 8 99 0 3 3 22 75 7 1 0 0 21 0 76 \012ELSE[ ]	/* Else */\012MPPEM[ ]	/* MeasurePixelPerEm */\012PUSHB[ ]	/* 1 value pushed */\01243 \012LT[ ]	/* LessThan */\012IF[ ]	/* If */\012NPUSHB[ ]	/* 30 values pushed */\0124 1 2 5 1 1 6 2 1 97 0 6 0 8 0 6 8 99 0 3 3 22 75 7 1 0 0 24 0 76 \012ELSE[ ]	/* Else */\012NPUSHB[ ]	/* 30 values pushed */\0127 1 0 8 0 115 4 1 2 5 1 1 6 2 1 97 0 6 0 8 0 6 8 99 0 3 3 22 3 76 \012EIF[ ]	/* EndIf */\012EIF[ ]	/* EndIf */\012EIF[ ]	/* EndIf */\012NPUSHB[ ]	/* 12 values pushed */\01235 19 35 17 17 17 17 17 17 9 7 29 \012CALL[ ]	/* CallFunction */";
};
width = 588;
}
);
note = hbar;
rightKerningGroup = h;
unicode = 0127;
},
{
glyphname = i;
layers = (
{
layerId = "952C609B-CA64-4350-B6E7-D316939CE488";
paths = (
{
closed = 1;
nodes = (
"161 780 LINE",
"47 780 LINE",
"47 661 LINE",
"161 661 LINE"
);
},
{
closed = 1;
nodes = (
"159 574 LINE",
"49 574 LINE",
"49 0 LINE",
"159 0 LINE"
);
}
);
userData = {
assembly = "MPPEM[ ]	/* MeasurePixelPerEm */\012PUSHB[ ]	/* 1 value pushed */\01226 \012LT[ ]	/* LessThan */\012IF[ ]	/* If */\012NPUSHB[ ]	/* 23 values pushed */\0120 0 0 1 89 4 1 1 1 22 75 5 1 3 3 23 75 0 2 2 21 2 76 \012ELSE[ ]	/* Else */\012MPPEM[ ]	/* MeasurePixelPerEm */\012PUSHB[ ]	/* 1 value pushed */\01233 \012LT[ ]	/* LessThan */\012IF[ ]	/* If */\012NPUSHB[ ]	/* 23 values pushed */\0120 0 0 1 89 4 1 1 1 22 75 5 1 3 3 2 89 0 2 2 21 2 76 \012ELSE[ ]	/* Else */\012MPPEM[ ]	/* MeasurePixelPerEm */\012PUSHB[ ]	/* 1 value pushed */\01243 \012LT[ ]	/* LessThan */\012IF[ ]	/* If */\012NPUSHB[ ]	/* 23 values pushed */\0120 0 0 1 89 4 1 1 1 22 75 5 1 3 3 2 89 0 2 2 24 2 76 \012ELSE[ ]	/* Else */\012NPUSHB[ ]	/* 20 values pushed */\0125 1 3 0 2 3 2 93 0 0 0 1 89 4 1 1 1 22 0 76 \012EIF[ ]	/* EndIf */\012EIF[ ]	/* EndIf */\012EIF[ ]	/* EndIf */\012NPUSHB[ ]	/* 18 values pushed */\0124 4 0 0 4 7 4 7 6 5 0 3 0 3 17 6 7 21 \012CALL[ ]	/* CallFunction */";
};
width = 207;
}
);
leftKerningGroup = i;
note = i;
rightKerningGroup = i;
unicode = 0069;
},
{
glyphname = idotless;
layers = (
{
layerId = "952C609B-CA64-4350-B6E7-D316939CE488";
paths = (
{
closed = 1;
nodes = (
"159 574 LINE",
"49 574 LINE",
"49 0 LINE",
"159 0 LINE"
);
}
);
userData = {
assembly = "MPPEM[ ]	/* MeasurePixelPerEm */\012PUSHB[ ]	/* 1 value pushed */\01226 \012LT[ ]	/* LessThan */\012IF[ ]	/* If */\012NPUSHB[ ]	/* 12 values pushed */\0122 1 1 1 23 75 0 0 0 21 0 76 \012ELSE[ ]	/* Else */\012MPPEM[ ]	/* MeasurePixelPerEm */\012PUSHB[ ]	/* 1 value pushed */\01233 \012LT[ ]	/* LessThan */\012IF[ ]	/* If */\012NPUSHB[ ]	/* 12 values pushed */\0122 1 1 1 0 89 0 0 0 21 0 76 \012ELSE[ ]	/* Else */\012MPPEM[ ]	/* MeasurePixelPerEm */\012PUSHB[ ]	/* 1 value pushed */\01243 \012LT[ ]	/* LessThan */\012IF[ ]	/* If */\012NPUSHB[ ]	/* 12 values pushed */\0122 1 1 1 0 89 0 0 0 24 0 76 \012ELSE[ ]	/* Else */\012NPUSHB[ ]	/* 18 values pushed */\0122 1 1 0 0 1 85 2 1 1 1 0 89 0 0 1 0 77 \012EIF[ ]	/* EndIf */\012EIF[ ]	/* EndIf */\012EIF[ ]	/* EndIf */\012NPUSHB[ ]	/* 10 values pushed */\0120 0 0 3 0 3 17 3 7 21 \012CALL[ ]	/* CallFunction */";
};
width = 207;
}
);
leftKerningGroup = m;
note = dotlessi;
rightKerningGroup = u;
unicode = 0131;
},
{
glyphname = iogonek;
layers = (
{
layerId = "952C609B-CA64-4350-B6E7-D316939CE488";
paths = (
{
closed = 1;
nodes = (
"161 780 LINE",
"47 780 LINE",
"47 661 LINE",
"161 661 LINE"
);
},
{
closed = 1;
nodes = (
"136 -96 LINE",
"126.667 -102.667 OFFCURVE",
"115 -110 OFFCURVE",
"99 -110 CURVE SMOOTH",
"80.333 -110 OFFCURVE",
"69 -97 OFFCURVE",
"69 -81 CURVE SMOOTH",
"69 -65 OFFCURVE",
"80 -51.667 OFFCURVE",
"108 -33 CURVE SMOOTH",
"159 0 LINE",
"159 574 LINE",
"49 574 LINE",
"49 0 LINE",
"50 0 LINE",
"36 -10 LINE",
"2.667 -31.333 OFFCURVE",
"-21 -64 OFFCURVE",
"-21 -100 CURVE SMOOTH",
"-21 -138.667 OFFCURVE",
"7.667 -176 OFFCURVE",
"73 -176 CURVE SMOOTH",
"118.333 -174.667 OFFCURVE",
"152.333 -157.333 OFFCURVE",
"171 -140 CURVE"
);
}
);
userData = {
assembly = "PUSHB[ ]	/* 8 values pushed */\01228 18 14 3 4 3 1 74 \012MPPEM[ ]	/* MeasurePixelPerEm */\012PUSHB[ ]	/* 1 value pushed */\01226 \012LT[ ]	/* LessThan */\012IF[ ]	/* If */\012NPUSHB[ ]	/* 24 values pushed */\0120 4 0 2 4 2 96 0 0 0 1 89 5 1 1 1 22 75 0 3 3 23 3 76 \012ELSE[ ]	/* Else */\012NPUSHB[ ]	/* 27 values pushed */\0120 3 0 4 0 3 4 112 0 4 0 2 4 2 96 0 0 0 1 89 5 1 1 1 22 0 76 \012EIF[ ]	/* EndIf */\012NPUSHB[ ]	/* 16 values pushed */\0120 0 26 24 17 16 8 6 0 3 0 3 17 6 7 21 \012CALL[ ]	/* CallFunction */";
};
width = 207;
}
);
leftKerningGroup = i;
note = iogonek;
rightKerningGroup = i;
unicode = 012F;
},
{
glyphname = j;
layers = (
{
layerId = "952C609B-CA64-4350-B6E7-D316939CE488";
paths = (
{
closed = 1;
nodes = (
"161 780 LINE",
"47 780 LINE",
"47 661 LINE",
"161 661 LINE"
);
},
{
closed = 1;
nodes = (
"-69 -124 LINE",
"-69 -226 LINE",
"-54 -226 LINE SMOOTH",
"96.667 -224.667 OFFCURVE",
"159 -171.667 OFFCURVE",
"159 -5 CURVE SMOOTH",
"159 574 LINE",
"49 574 LINE",
"49 -5 LINE SMOOTH",
"49 -90.333 OFFCURVE",
"15 -124 OFFCURVE",
"-57 -124 CURVE SMOOTH"
);
}
);
userData = {
assembly = "MPPEM[ ]	/* MeasurePixelPerEm */\012PUSHB[ ]	/* 1 value pushed */\01226 \012LT[ ]	/* LessThan */\012IF[ ]	/* If */\012NPUSHB[ ]	/* 27 values pushed */\0120 0 0 1 89 5 1 1 1 22 75 0 3 3 23 75 0 2 2 4 92 0 4 4 33 4 76 \012ELSE[ ]	/* Else */\012NPUSHB[ ]	/* 30 values pushed */\0120 3 0 2 0 3 2 112 0 0 0 1 89 5 1 1 1 22 75 0 2 2 4 92 0 4 4 33 4 76 \012EIF[ ]	/* EndIf */\012NPUSHB[ ]	/* 16 values pushed */\0120 0 15 13 10 9 6 4 0 3 0 3 17 6 7 21 \012CALL[ ]	/* CallFunction */";
};
width = 207;
}
);
leftKerningGroup = j;
note = j;
rightKerningGroup = j;
unicode = 006A;
},
{
glyphname = jdotless;
layers = (
{
layerId = "952C609B-CA64-4350-B6E7-D316939CE488";
paths = (
{
closed = 1;
nodes = (
"-57 -129 LINE",
"-57 -226 LINE",
"-42 -226 LINE SMOOTH",
"83.333 -224.667 OFFCURVE",
"155 -151.667 OFFCURVE",
"155 -1 CURVE SMOOTH",
"155 574 LINE",
"46 574 LINE",
"46 0 LINE SMOOTH",
"46 -81.333 OFFCURVE",
"9.333 -127.667 OFFCURVE",
"-48 -129 CURVE SMOOTH"
);
}
);
userData = {
assembly = "MPPEM[ ]	/* MeasurePixelPerEm */\012PUSHB[ ]	/* 1 value pushed */\01226 \012LT[ ]	/* LessThan */\012IF[ ]	/* If */\012NPUSHB[ ]	/* 16 values pushed */\0120 1 1 23 75 0 0 0 2 92 0 2 2 33 2 76 \012ELSE[ ]	/* Else */\012NPUSHB[ ]	/* 16 values pushed */\0120 1 0 1 114 0 0 0 2 92 0 2 2 33 2 76 \012EIF[ ]	/* EndIf */\012PUSHB[ ]	/* 6 values pushed */\01235 19 32 3 7 23 \012CALL[ ]	/* CallFunction */";
};
width = 200;
}
);
note = dotlessj;
rightKerningGroup = j;
unicode = 0237;
},
{
glyphname = k;
layers = (
{
layerId = "952C609B-CA64-4350-B6E7-D316939CE488";
paths = (
{
closed = 1;
nodes = (
"422 0 LINE",
"557 0 LINE",
"299 345 LINE",
"541 574 LINE",
"397 574 LINE",
"156 349 LINE",
"156 780 LINE",
"46 780 LINE",
"46 0 LINE",
"156 0 LINE",
"156 210 LINE",
"221 272 LINE"
);
}
);
userData = {
assembly = "NPUSHB[ ]	/* 9 values pushed */\01210 7 2 1 4 0 2 1 74 \012MPPEM[ ]	/* MeasurePixelPerEm */\012PUSHB[ ]	/* 1 value pushed */\01226 \012LT[ ]	/* LessThan */\012IF[ ]	/* If */\012NPUSHB[ ]	/* 18 values pushed */\0120 1 1 22 75 0 2 2 23 75 4 3 2 0 0 21 0 76 \012ELSE[ ]	/* Else */\012MPPEM[ ]	/* MeasurePixelPerEm */\012PUSHB[ ]	/* 1 value pushed */\01233 \012LT[ ]	/* LessThan */\012IF[ ]	/* If */\012NPUSHB[ ]	/* 18 values pushed */\0120 1 1 22 75 0 2 2 0 89 4 3 2 0 0 21 0 76 \012ELSE[ ]	/* Else */\012MPPEM[ ]	/* MeasurePixelPerEm */\012PUSHB[ ]	/* 1 value pushed */\01243 \012LT[ ]	/* LessThan */\012IF[ ]	/* If */\012NPUSHB[ ]	/* 18 values pushed */\0120 1 1 22 75 0 2 2 0 89 4 3 2 0 0 24 0 76 \012ELSE[ ]	/* Else */\012NPUSHB[ ]	/* 19 values pushed */\0120 2 0 0 2 85 4 3 2 0 0 1 89 0 1 1 22 1 76 \012EIF[ ]	/* EndIf */\012EIF[ ]	/* EndIf */\012EIF[ ]	/* EndIf */\012NPUSHB[ ]	/* 12 values pushed */\0120 0 0 11 0 11 18 17 19 5 7 23 \012CALL[ ]	/* CallFunction */";
};
width = 558;
}
);
leftKerningGroup = b;
note = k;
rightKerningGroup = k;
unicode = 006B;
},
{
glyphname = kgreenlandic;
layers = (
{
layerId = "952C609B-CA64-4350-B6E7-D316939CE488";
paths = (
{
closed = 1;
nodes = (
"422 0 LINE",
"557 0 LINE",
"299 345 LINE",
"541 574 LINE",
"397 574 LINE",
"156 349 LINE",
"156 574 LINE",
"46 574 LINE",
"46 0 LINE",
"156 0 LINE",
"156 209 LINE",
"222 271 LINE"
);
}
);
userData = {
assembly = "NPUSHB[ ]	/* 9 values pushed */\01210 7 2 1 4 0 1 1 74 \012MPPEM[ ]	/* MeasurePixelPerEm */\012PUSHB[ ]	/* 1 value pushed */\01226 \012LT[ ]	/* LessThan */\012IF[ ]	/* If */\012NPUSHB[ ]	/* 14 values pushed */\0122 1 1 1 23 75 4 3 2 0 0 21 0 76 \012ELSE[ ]	/* Else */\012MPPEM[ ]	/* MeasurePixelPerEm */\012PUSHB[ ]	/* 1 value pushed */\01233 \012LT[ ]	/* LessThan */\012IF[ ]	/* If */\012NPUSHB[ ]	/* 14 values pushed */\0122 1 1 1 0 89 4 3 2 0 0 21 0 76 \012ELSE[ ]	/* Else */\012MPPEM[ ]	/* MeasurePixelPerEm */\012PUSHB[ ]	/* 1 value pushed */\01243 \012LT[ ]	/* LessThan */\012IF[ ]	/* If */\012NPUSHB[ ]	/* 14 values pushed */\0122 1 1 1 0 89 4 3 2 0 0 24 0 76 \012ELSE[ ]	/* Else */\012NPUSHB[ ]	/* 20 values pushed */\0122 1 1 0 0 1 85 2 1 1 1 0 89 4 3 2 0 1 0 77 \012EIF[ ]	/* EndIf */\012EIF[ ]	/* EndIf */\012EIF[ ]	/* EndIf */\012NPUSHB[ ]	/* 12 values pushed */\0120 0 0 11 0 11 18 17 19 5 7 23 \012CALL[ ]	/* CallFunction */";
};
width = 558;
}
);
leftKerningGroup = m;
note = kgreenlandic;
rightKerningGroup = k;
unicode = 0138;
},
{
glyphname = l;
layers = (
{
layerId = "952C609B-CA64-4350-B6E7-D316939CE488";
paths = (
{
closed = 1;
nodes = (
"159 780 LINE",
"49 780 LINE",
"49 0 LINE",
"159 0 LINE"
);
}
);
userData = {
assembly = "MPPEM[ ]	/* MeasurePixelPerEm */\012PUSHB[ ]	/* 1 value pushed */\01233 \012LT[ ]	/* LessThan */\012IF[ ]	/* If */\012NPUSHB[ ]	/* 12 values pushed */\0122 1 1 1 22 75 0 0 0 21 0 76 \012ELSE[ ]	/* Else */\012MPPEM[ ]	/* MeasurePixelPerEm */\012PUSHB[ ]	/* 1 value pushed */\01243 \012LT[ ]	/* LessThan */\012IF[ ]	/* If */\012NPUSHB[ ]	/* 12 values pushed */\0122 1 1 1 22 75 0 0 0 24 0 76 \012ELSE[ ]	/* Else */\012NPUSHB[ ]	/* 12 values pushed */\0120 0 0 1 89 2 1 1 1 22 0 76 \012EIF[ ]	/* EndIf */\012EIF[ ]	/* EndIf */\012NPUSHB[ ]	/* 10 values pushed */\0120 0 0 3 0 3 17 3 7 21 \012CALL[ ]	/* CallFunction */";
};
width = 207;
}
);
leftKerningGroup = b;
note = l;
rightKerningGroup = d;
unicode = 006C;
},
{
glyphname = lslash;
layers = (
{
layerId = "952C609B-CA64-4350-B6E7-D316939CE488";
paths = (
{
closed = 1;
nodes = (
"165 0 LINE",
"165 415 LINE",
"216 442 LINE",
"216 532 LINE",
"165 505 LINE",
"165 780 LINE",
"55 780 LINE",
"55 445 LINE",
"4 418 LINE",
"4 328 LINE",
"55 355 LINE",
"55 0 LINE"
);
}
);
userData = {
assembly = "NPUSHB[ ]	/* 13 values pushed */\01211 10 9 8 5 4 3 2 8 0 1 1 74 \012MPPEM[ ]	/* MeasurePixelPerEm */\012PUSHB[ ]	/* 1 value pushed */\01233 \012LT[ ]	/* LessThan */\012IF[ ]	/* If */\012NPUSHB[ ]	/* 11 values pushed */\0120 1 1 22 75 0 0 0 21 0 76 \012ELSE[ ]	/* Else */\012MPPEM[ ]	/* MeasurePixelPerEm */\012PUSHB[ ]	/* 1 value pushed */\01243 \012LT[ ]	/* LessThan */\012IF[ ]	/* If */\012NPUSHB[ ]	/* 11 values pushed */\0120 1 1 22 75 0 0 0 24 0 76 \012ELSE[ ]	/* Else */\012NPUSHB[ ]	/* 11 values pushed */\0120 0 0 1 89 0 1 1 22 0 76 \012EIF[ ]	/* EndIf */\012EIF[ ]	/* EndIf */\012PUSHB[ ]	/* 5 values pushed */\01221 16 2 7 22 \012CALL[ ]	/* CallFunction */";
};
width = 217;
}
);
leftKerningGroup = b;
note = lslash;
rightKerningGroup = d;
unicode = 0142;
},
{
glyphname = m;
layers = (
{
layerId = "952C609B-CA64-4350-B6E7-D316939CE488";
paths = (
{
closed = 1;
nodes = (
"157 437.016 OFFCURVE",
"211.162 492 OFFCURVE",
"275 492 CURVE SMOOTH",
"340.333 492 OFFCURVE",
"394 455 OFFCURVE",
"394 343 CURVE SMOOTH",
"394 0 LINE",
"504 0 LINE",
"504 352 LINE SMOOTH",
"504 437.322 OFFCURVE",
"558.423 492 OFFCURVE",
"623 492 CURVE SMOOTH",
"691 492 OFFCURVE",
"740 455 OFFCURVE",
"740 343 CURVE SMOOTH",
"740 0 LINE",
"850 0 LINE",
"850 376 LINE SMOOTH",
"850 508 OFFCURVE",
"774.333 589 OFFCURVE",
"661 589 CURVE SMOOTH",
"574.146 589 OFFCURVE",
"512.96 536.92 OFFCURVE",
"485 481 CURVE",
"455.667 549 OFFCURVE",
"396 589 OFFCURVE",
"316 589 CURVE SMOOTH",
"236 589 OFFCURVE",
"180 542.333 OFFCURVE",
"152 497 CURVE",
"152 574 LINE",
"46 574 LINE",
"46 0 LINE",
"157 0 LINE",
"157 353 LINE SMOOTH"
);
}
);
userData = {
assembly = "NPUSHB[ ]	/* 10 values pushed */\0125 1 5 1 11 1 0 5 2 74 \012MPPEM[ ]	/* MeasurePixelPerEm */\012PUSHB[ ]	/* 1 value pushed */\01216 \012LT[ ]	/* LessThan */\012IF[ ]	/* If */\012NPUSHB[ ]	/* 21 values pushed */\0127 1 5 5 1 91 3 2 2 1 1 23 75 6 4 2 0 0 21 0 76 \012ELSE[ ]	/* Else */\012MPPEM[ ]	/* MeasurePixelPerEm */\012PUSHB[ ]	/* 1 value pushed */\01226 \012LT[ ]	/* LessThan */\012IF[ ]	/* If */\012NPUSHB[ ]	/* 25 values pushed */\0120 1 1 23 75 7 1 5 5 2 91 3 1 2 2 31 75 6 4 2 0 0 21 0 76 \012ELSE[ ]	/* Else */\012MPPEM[ ]	/* MeasurePixelPerEm */\012PUSHB[ ]	/* 1 value pushed */\01233 \012LT[ ]	/* LessThan */\012IF[ ]	/* If */\012NPUSHB[ ]	/* 23 values pushed */\0123 1 2 7 1 5 0 2 5 99 0 1 1 0 89 6 4 2 0 0 21 0 76 \012ELSE[ ]	/* Else */\012MPPEM[ ]	/* MeasurePixelPerEm */\012PUSHB[ ]	/* 1 value pushed */\01243 \012LT[ ]	/* LessThan */\012IF[ ]	/* If */\012NPUSHB[ ]	/* 23 values pushed */\0123 1 2 7 1 5 0 2 5 99 0 1 1 0 89 6 4 2 0 0 24 0 76 \012ELSE[ ]	/* Else */\012NPUSHB[ ]	/* 28 values pushed */\0120 1 5 0 1 85 3 1 2 7 1 5 0 2 5 99 0 1 1 0 89 6 4 2 0 1 0 77 \012EIF[ ]	/* EndIf */\012EIF[ ]	/* EndIf */\012EIF[ ]	/* EndIf */\012EIF[ ]	/* EndIf */\012NPUSHB[ ]	/* 11 values pushed */\01235 21 35 19 38 35 17 17 8 7 28 \012CALL[ ]	/* CallFunction */";
};
width = 894;
}
);
leftKerningGroup = m;
note = m;
rightKerningGroup = h;
unicode = 006D;
},
{
glyphname = n;
layers = (
{
layerId = "952C609B-CA64-4350-B6E7-D316939CE488";
paths = (
{
closed = 1;
nodes = (
"156 438.707 OFFCURVE",
"228.36 492 OFFCURVE",
"298 492 CURVE SMOOTH",
"370 492 OFFCURVE",
"436 455 OFFCURVE",
"436 343 CURVE SMOOTH",
"436 0 LINE",
"546 0 LINE",
"546 376 LINE SMOOTH",
"546 508 OFFCURVE",
"464 589 OFFCURVE",
"340 589 CURVE SMOOTH",
"256 589 OFFCURVE",
"189.333 549.667 OFFCURVE",
"152 507 CURVE",
"152 574 LINE",
"46 574 LINE",
"46 0 LINE",
"156 0 LINE",
"156 353 LINE SMOOTH"
);
}
);
userData = {
assembly = "PUSHB[ ]	/* 6 values pushed */\0125 1 4 1 1 74 \012MPPEM[ ]	/* MeasurePixelPerEm */\012PUSHB[ ]	/* 1 value pushed */\01216 \012LT[ ]	/* LessThan */\012IF[ ]	/* If */\012NPUSHB[ ]	/* 18 values pushed */\0120 4 4 1 91 2 1 1 1 23 75 3 1 0 0 21 0 76 \012ELSE[ ]	/* Else */\012MPPEM[ ]	/* MeasurePixelPerEm */\012PUSHB[ ]	/* 1 value pushed */\01226 \012LT[ ]	/* LessThan */\012IF[ ]	/* If */\012NPUSHB[ ]	/* 22 values pushed */\0120 1 1 23 75 0 4 4 2 91 0 2 2 31 75 3 1 0 0 21 0 76 \012ELSE[ ]	/* Else */\012MPPEM[ ]	/* MeasurePixelPerEm */\012PUSHB[ ]	/* 1 value pushed */\01233 \012LT[ ]	/* LessThan */\012IF[ ]	/* If */\012NPUSHB[ ]	/* 20 values pushed */\0120 2 0 4 0 2 4 99 0 1 1 0 89 3 1 0 0 21 0 76 \012ELSE[ ]	/* Else */\012MPPEM[ ]	/* MeasurePixelPerEm */\012PUSHB[ ]	/* 1 value pushed */\01243 \012LT[ ]	/* LessThan */\012IF[ ]	/* If */\012NPUSHB[ ]	/* 20 values pushed */\0120 2 0 4 0 2 4 99 0 1 1 0 89 3 1 0 0 24 0 76 \012ELSE[ ]	/* Else */\012NPUSHB[ ]	/* 25 values pushed */\0120 1 4 0 1 85 0 2 0 4 0 2 4 99 0 1 1 0 89 3 1 0 1 0 77 \012EIF[ ]	/* EndIf */\012EIF[ ]	/* EndIf */\012EIF[ ]	/* EndIf */\012EIF[ ]	/* EndIf */\012PUSHB[ ]	/* 8 values pushed */\01235 19 35 17 17 5 7 25 \012CALL[ ]	/* CallFunction */";
};
width = 591;
}
);
leftKerningGroup = m;
note = n;
rightKerningGroup = h;
unicode = 006E;
},
{
glyphname = eng;
layers = (
{
layerId = "952C609B-CA64-4350-B6E7-D316939CE488";
paths = (
{
closed = 1;
nodes = (
"474.333 -224.667 OFFCURVE",
"546 -152.667 OFFCURVE",
"546 -2 CURVE SMOOTH",
"546 376 LINE SMOOTH",
"546 508 OFFCURVE",
"464 589 OFFCURVE",
"340 589 CURVE SMOOTH",
"256 589 OFFCURVE",
"189.333 549.667 OFFCURVE",
"152 507 CURVE",
"152 574 LINE",
"46 574 LINE",
"46 0 LINE",
"156 0 LINE",
"156 353 LINE SMOOTH",
"156 438.707 OFFCURVE",
"228.36 492 OFFCURVE",
"298 492 CURVE SMOOTH",
"370 492 OFFCURVE",
"436 455 OFFCURVE",
"436 343 CURVE SMOOTH",
"436 -2 LINE SMOOTH",
"436 -82 OFFCURVE",
"400.333 -127.667 OFFCURVE",
"343 -129 CURVE SMOOTH",
"334 -129 LINE",
"334 -226 LINE",
"349 -226 LINE SMOOTH"
);
}
);
userData = {
assembly = "PUSHB[ ]	/* 6 values pushed */\01220 1 2 4 1 74 \012MPPEM[ ]	/* MeasurePixelPerEm */\012PUSHB[ ]	/* 1 value pushed */\01216 \012LT[ ]	/* LessThan */\012IF[ ]	/* If */\012NPUSHB[ ]	/* 28 values pushed */\0120 2 2 4 91 5 1 4 4 23 75 0 3 3 21 75 0 1 1 0 91 6 1 0 0 33 0 76 \012ELSE[ ]	/* Else */\012MPPEM[ ]	/* MeasurePixelPerEm */\012PUSHB[ ]	/* 1 value pushed */\01226 \012LT[ ]	/* LessThan */\012IF[ ]	/* If */\012NPUSHB[ ]	/* 32 values pushed */\0120 4 4 23 75 0 2 2 5 91 0 5 5 31 75 0 3 3 21 75 0 1 1 0 91 6 1 0 0 33 0 76 \012ELSE[ ]	/* Else */\012MPPEM[ ]	/* MeasurePixelPerEm */\012PUSHB[ ]	/* 1 value pushed */\01233 \012LT[ ]	/* LessThan */\012IF[ ]	/* If */\012NPUSHB[ ]	/* 30 values pushed */\0120 5 0 2 3 5 2 99 0 4 4 3 89 0 3 3 21 75 0 1 1 0 91 6 1 0 0 33 0 76 \012ELSE[ ]	/* Else */\012MPPEM[ ]	/* MeasurePixelPerEm */\012PUSHB[ ]	/* 1 value pushed */\01243 \012LT[ ]	/* LessThan */\012IF[ ]	/* If */\012NPUSHB[ ]	/* 30 values pushed */\0120 5 0 2 3 5 2 99 0 4 4 3 89 0 3 3 24 75 0 1 1 0 91 6 1 0 0 33 0 76 \012ELSE[ ]	/* Else */\012NPUSHB[ ]	/* 28 values pushed */\0120 5 0 2 3 5 2 99 0 4 0 3 1 4 3 97 0 1 1 0 91 6 1 0 0 33 0 76 \012EIF[ ]	/* EndIf */\012EIF[ ]	/* EndIf */\012EIF[ ]	/* EndIf */\012EIF[ ]	/* EndIf */\012NPUSHB[ ]	/* 19 values pushed */\0121 0 24 22 19 18 17 16 11 9 4 2 0 29 1 29 7 7 20 \012CALL[ ]	/* CallFunction */";
};
width = 591;
}
);
leftKerningGroup = m;
note = eng;
rightKerningGroup = h;
unicode = 014B;
},
{
glyphname = o;
layers = (
{
layerId = "952C609B-CA64-4350-B6E7-D316939CE488";
paths = (
{
closed = 1;
nodes = (
"257.667 603 OFFCURVE",
"174.333 566.167 OFFCURVE",
"117 509.5 CURVE SMOOTH",
"59.667 452.833 OFFCURVE",
"24 372.333 OFFCURVE",
"24 287 CURVE SMOOTH",
"24 201.667 OFFCURVE",
"59.667 121.167 OFFCURVE",
"117 64.5 CURVE SMOOTH",
"174.333 7.833 OFFCURVE",
"257.667 -29 OFFCURVE",
"351 -29 CURVE SMOOTH",
"445.667 -29 OFFCURVE",
"527.5 7.833 OFFCURVE",
"585.5 64.5 CURVE SMOOTH",
"643.5 121.167 OFFCURVE",
"679 201.667 OFFCURVE",
"679 287 CURVE SMOOTH",
"679 372.333 OFFCURVE",
"643.5 452.833 OFFCURVE",
"585.5 509.5 CURVE SMOOTH",
"527.5 566.167 OFFCURVE",
"445.667 603 OFFCURVE",
"351 603 CURVE SMOOTH"
);
},
{
closed = 1;
nodes = (
"472.311 508 OFFCURVE",
"563 408.641 OFFCURVE",
"563 287 CURVE SMOOTH",
"563 167.65 OFFCURVE",
"472.576 66 OFFCURVE",
"351 66 CURVE SMOOTH",
"230.535 66 OFFCURVE",
"140 165.875 OFFCURVE",
"140 287 CURVE SMOOTH",
"140 408.125 OFFCURVE",
"230.535 508 OFFCURVE",
"351 508 CURVE SMOOTH"
);
}
);
userData = {
assembly = "MPPEM[ ]	/* MeasurePixelPerEm */\012PUSHB[ ]	/* 1 value pushed */\01226 \012LT[ ]	/* LessThan */\012IF[ ]	/* If */\012NPUSHB[ ]	/* 23 values pushed */\0125 1 2 2 0 91 4 1 0 0 31 75 0 3 3 1 91 0 1 1 29 1 76 \012ELSE[ ]	/* Else */\012MPPEM[ ]	/* MeasurePixelPerEm */\012PUSHB[ ]	/* 1 value pushed */\01233 \012LT[ ]	/* LessThan */\012IF[ ]	/* If */\012NPUSHB[ ]	/* 21 values pushed */\0124 1 0 5 1 2 3 0 2 99 0 3 3 1 91 0 1 1 29 1 76 \012ELSE[ ]	/* Else */\012MPPEM[ ]	/* MeasurePixelPerEm */\012PUSHB[ ]	/* 1 value pushed */\01243 \012LT[ ]	/* LessThan */\012IF[ ]	/* If */\012NPUSHB[ ]	/* 21 values pushed */\0124 1 0 5 1 2 3 0 2 99 0 3 3 1 91 0 1 1 32 1 76 \012ELSE[ ]	/* Else */\012NPUSHB[ ]	/* 26 values pushed */\0124 1 0 5 1 2 3 0 2 99 0 3 1 1 3 87 0 3 3 1 91 0 1 3 1 79 \012EIF[ ]	/* EndIf */\012EIF[ ]	/* EndIf */\012EIF[ ]	/* EndIf */\012NPUSHB[ ]	/* 19 values pushed */\01221 20 1 0 31 29 20 39 21 39 11 9 0 19 1 19 6 7 20 \012CALL[ ]	/* CallFunction */";
};
width = 703;
}
);
leftKerningGroup = c;
note = o;
rightKerningGroup = o;
unicode = 006F;
},
{
glyphname = oslash;
layers = (
{
layerId = "952C609B-CA64-4350-B6E7-D316939CE488";
paths = (
{
closed = 1;
nodes = (
"140 408.125 OFFCURVE",
"230.535 508 OFFCURVE",
"351 508 CURVE SMOOTH",
"376.333 508 OFFCURVE",
"399.667 504 OFFCURVE",
"421 496 CURVE",
"199 132 LINE",
"161.667 173.333 OFFCURVE",
"140 227 OFFCURVE",
"140 287 CURVE SMOOTH"
);
},
{
closed = 1;
nodes = (
"325.667 66 OFFCURVE",
"299.667 71 OFFCURVE",
"277 79 CURVE",
"500 445 LINE",
"540 405 OFFCURVE",
"563 348.333 OFFCURVE",
"563 287 CURVE SMOOTH",
"563 167.65 OFFCURVE",
"472.576 66 OFFCURVE",
"351 66 CURVE SMOOTH"
);
},
{
closed = 1;
nodes = (
"445.667 -29 OFFCURVE",
"527.5 7.833 OFFCURVE",
"585.5 64.5 CURVE SMOOTH",
"643.5 121.167 OFFCURVE",
"679 201.667 OFFCURVE",
"679 287 CURVE SMOOTH",
"679 387 OFFCURVE",
"632 478.667 OFFCURVE",
"556 536 CURVE",
"608 622 LINE",
"497 622 LINE",
"472 582 LINE",
"434.667 595.333 OFFCURVE",
"393.667 603 OFFCURVE",
"351 603 CURVE SMOOTH",
"257.667 603 OFFCURVE",
"174.333 566.167 OFFCURVE",
"117 509.5 CURVE SMOOTH",
"59.667 452.833 OFFCURVE",
"24 372.333 OFFCURVE",
"24 287 CURVE SMOOTH",
"24 189.667 OFFCURVE",
"69.667 99.667 OFFCURVE",
"143 41 CURVE",
"89 -48 LINE",
"200 -48 LINE",
"226 -6 LINE",
"263.333 -20.667 OFFCURVE",
"305.667 -29 OFFCURVE",
"351 -29 CURVE SMOOTH"
);
}
);
userData = {
assembly = "NPUSHB[ ]	/* 19 values pushed */\01244 41 2 0 4 21 20 4 3 4 1 0 30 27 2 2 1 3 74 \012MPPEM[ ]	/* MeasurePixelPerEm */\012PUSHB[ ]	/* 1 value pushed */\01226 \012LT[ ]	/* LessThan */\012IF[ ]	/* If */\012NPUSHB[ ]	/* 33 values pushed */\0120 5 4 5 114 0 3 2 3 115 0 0 0 4 91 0 4 4 31 75 6 1 1 1 2 91 7 1 2 2 29 2 76 \012ELSE[ ]	/* Else */\012MPPEM[ ]	/* MeasurePixelPerEm */\012PUSHB[ ]	/* 1 value pushed */\01233 \012LT[ ]	/* LessThan */\012IF[ ]	/* If */\012NPUSHB[ ]	/* 31 values pushed */\0120 5 4 5 114 0 3 2 3 115 0 4 0 0 1 4 0 99 6 1 1 1 2 91 7 1 2 2 29 2 76 \012ELSE[ ]	/* Else */\012MPPEM[ ]	/* MeasurePixelPerEm */\012PUSHB[ ]	/* 1 value pushed */\01243 \012LT[ ]	/* LessThan */\012IF[ ]	/* If */\012NPUSHB[ ]	/* 31 values pushed */\0120 5 4 5 114 0 3 2 3 115 0 4 0 0 1 4 0 99 6 1 1 1 2 91 7 1 2 2 32 2 76 \012ELSE[ ]	/* Else */\012NPUSHB[ ]	/* 37 values pushed */\0120 5 4 5 114 0 3 2 3 115 0 4 0 0 1 4 0 99 6 1 1 2 2 1 87 6 1 1 1 2 91 7 1 2 1 2 79 \012EIF[ ]	/* EndIf */\012EIF[ ]	/* EndIf */\012EIF[ ]	/* EndIf */\012NPUSHB[ ]	/* 22 values pushed */\01225 24 13 12 43 42 39 37 29 28 24 51 25 51 12 23 13 23 38 8 7 21 \012CALL[ ]	/* CallFunction */";
};
width = 698;
}
);
leftKerningGroup = c;
note = oslash;
rightKerningGroup = o;
unicode = 00F8;
},
{
glyphname = oe;
layers = (
{
layerId = "952C609B-CA64-4350-B6E7-D316939CE488";
paths = (
{
closed = 1;
nodes = (
"964.333 508 OFFCURVE",
"1034.667 445 OFFCURVE",
"1056 353 CURVE",
"685 353 LINE",
"706.333 446.333 OFFCURVE",
"777.667 508 OFFCURVE",
"871 508 CURVE SMOOTH"
);
},
{
closed = 1;
nodes = (
"472.311 508 OFFCURVE",
"563 408.641 OFFCURVE",
"563 287 CURVE SMOOTH",
"563 166.936 OFFCURVE",
"472.683 66 OFFCURVE",
"351 66 CURVE SMOOTH",
"230.28 66 OFFCURVE",
"140 168.163 OFFCURVE",
"140 287 CURVE SMOOTH",
"140 408.125 OFFCURVE",
"230.535 508 OFFCURVE",
"351 508 CURVE SMOOTH"
);
},
{
closed = 1;
nodes = (
"1101 150 LINE",
"1051.667 100.667 OFFCURVE",
"983.333 66 OFFCURVE",
"894 66 CURVE SMOOTH",
"768.667 66 OFFCURVE",
"687 147 OFFCURVE",
"679 267 CURVE",
"1177 267 LINE",
"1177 293 LINE SMOOTH",
"1177 379.667 OFFCURVE",
"1143.833 458.167 OFFCURVE",
"1088.5 513.5 CURVE SMOOTH",
"1033.167 568.833 OFFCURVE",
"956.333 603 OFFCURVE",
"871 603 CURVE SMOOTH",
"760.333 603 OFFCURVE",
"671.333 549.667 OFFCURVE",
"618 467 CURVE",
"560.667 548.333 OFFCURVE",
"464.333 603 OFFCURVE",
"351 603 CURVE SMOOTH",
"257.667 603 OFFCURVE",
"174.333 566.167 OFFCURVE",
"117 509.5 CURVE SMOOTH",
"59.667 452.833 OFFCURVE",
"24 372.333 OFFCURVE",
"24 287 CURVE SMOOTH",
"24 201.667 OFFCURVE",
"59.667 121.167 OFFCURVE",
"117 64.5 CURVE SMOOTH",
"174.333 7.833 OFFCURVE",
"257.667 -29 OFFCURVE",
"351 -29 CURVE SMOOTH",
"465.667 -29 OFFCURVE",
"561.667 26.667 OFFCURVE",
"619 108 CURVE",
"675 25.333 OFFCURVE",
"772.667 -29 OFFCURVE",
"894 -29 CURVE SMOOTH",
"1020.667 -29 OFFCURVE",
"1106.667 19 OFFCURVE",
"1168 79 CURVE"
);
}
);
userData = {
assembly = "NPUSHB[ ]	/* 11 values pushed */\01249 1 1 0 65 33 2 3 8 2 74 \012MPPEM[ ]	/* MeasurePixelPerEm */\012PUSHB[ ]	/* 1 value pushed */\01226 \012LT[ ]	/* LessThan */\012IF[ ]	/* If */\012NPUSHB[ ]	/* 35 values pushed */\0120 1 0 8 3 1 8 97 11 2 10 3 0 0 6 91 7 1 6 6 31 75 9 1 3 3 4 91 5 1 4 4 29 4 76 \012ELSE[ ]	/* Else */\012MPPEM[ ]	/* MeasurePixelPerEm */\012PUSHB[ ]	/* 1 value pushed */\01233 \012LT[ ]	/* LessThan */\012IF[ ]	/* If */\012NPUSHB[ ]	/* 33 values pushed */\0127 1 6 11 2 10 3 0 1 6 0 99 0 1 0 8 3 1 8 97 9 1 3 3 4 91 5 1 4 4 29 4 76 \012ELSE[ ]	/* Else */\012MPPEM[ ]	/* MeasurePixelPerEm */\012PUSHB[ ]	/* 1 value pushed */\01243 \012LT[ ]	/* LessThan */\012IF[ ]	/* If */\012NPUSHB[ ]	/* 33 values pushed */\0127 1 6 11 2 10 3 0 1 6 0 99 0 1 0 8 3 1 8 97 9 1 3 3 4 91 5 1 4 4 32 4 76 \012ELSE[ ]	/* Else */\012NPUSHB[ ]	/* 39 values pushed */\0127 1 6 11 2 10 3 0 1 6 0 99 0 1 0 8 3 1 8 97 9 1 3 4 4 3 87 9 1 3 3 4 91 5 1 4 3 4 79 \012EIF[ ]	/* EndIf */\012EIF[ ]	/* EndIf */\012EIF[ ]	/* EndIf */\012NPUSHB[ ]	/* 31 values pushed */\0128 7 1 0 63 61 59 58 53 51 47 45 37 35 31 29 18 16 7 26 8 26 4 3 0 6 1 6 12 7 20 \012CALL[ ]	/* CallFunction */";
};
width = 1199;
}
);
leftKerningGroup = c;
note = oe;
rightKerningGroup = e;
unicode = 0153;
},
{
glyphname = p;
layers = (
{
layerId = "952C609B-CA64-4350-B6E7-D316939CE488";
paths = (
{
closed = 1;
nodes = (
"153 400.716 OFFCURVE",
"245.114 499 OFFCURVE",
"364 499 CURVE SMOOTH",
"483.332 499 OFFCURVE",
"572 400.564 OFFCURVE",
"572 286 CURVE SMOOTH",
"572 170.732 OFFCURVE",
"483.249 75 OFFCURVE",
"364 75 CURVE SMOOTH",
"245.114 75 OFFCURVE",
"153 173.284 OFFCURVE",
"153 287 CURVE SMOOTH"
);
},
{
closed = 1;
nodes = (
"474 -22 OFFCURVE",
"549.833 14 OFFCURVE",
"602.5 70 CURVE SMOOTH",
"655.167 126 OFFCURVE",
"688 204 OFFCURVE",
"688 288 CURVE SMOOTH",
"688 372 OFFCURVE",
"655.167 450.167 OFFCURVE",
"602.5 505.5 CURVE SMOOTH",
"549.833 560.833 OFFCURVE",
"474 596 OFFCURVE",
"390 596 CURVE SMOOTH",
"291.333 596 OFFCURVE",
"205.667 553 OFFCURVE",
"151 485 CURVE",
"151 574 LINE",
"46 574 LINE",
"46 -220 LINE",
"156 -220 LINE",
"156 86 LINE",
"210.667 20.667 OFFCURVE",
"295.333 -22 OFFCURVE",
"390 -22 CURVE SMOOTH"
);
}
);
userData = {
assembly = "PUSHB[ ]	/* 7 values pushed */\01228 23 2 0 1 1 74 \012MPPEM[ ]	/* MeasurePixelPerEm */\012PUSHB[ ]	/* 1 value pushed */\01226 \012LT[ ]	/* LessThan */\012IF[ ]	/* If */\012NPUSHB[ ]	/* 32 values pushed */\0120 4 4 23 75 0 1 1 5 91 0 5 5 31 75 0 0 0 2 91 6 1 2 2 29 75 0 3 3 25 3 76 \012ELSE[ ]	/* Else */\012MPPEM[ ]	/* MeasurePixelPerEm */\012PUSHB[ ]	/* 1 value pushed */\01233 \012LT[ ]	/* LessThan */\012IF[ ]	/* If */\012NPUSHB[ ]	/* 30 values pushed */\0120 5 0 1 0 5 1 99 0 0 0 2 91 6 1 2 2 29 75 0 4 4 3 89 0 3 3 25 3 76 \012ELSE[ ]	/* Else */\012MPPEM[ ]	/* MeasurePixelPerEm */\012PUSHB[ ]	/* 1 value pushed */\01243 \012LT[ ]	/* LessThan */\012IF[ ]	/* If */\012NPUSHB[ ]	/* 30 values pushed */\0120 5 0 1 0 5 1 99 0 0 0 2 91 6 1 2 2 32 75 0 4 4 3 89 0 3 3 25 3 76 \012ELSE[ ]	/* Else */\012NPUSHB[ ]	/* 28 values pushed */\0120 5 0 1 0 5 1 99 0 0 6 1 2 3 0 2 99 0 4 4 3 89 0 3 3 25 3 76 \012EIF[ ]	/* EndIf */\012EIF[ ]	/* EndIf */\012EIF[ ]	/* EndIf */\012NPUSHB[ ]	/* 17 values pushed */\01221 20 32 30 27 26 25 24 20 40 21 40 40 36 7 7 22 \012CALL[ ]	/* CallFunction */";
};
width = 712;
}
);
leftKerningGroup = p;
note = p;
rightKerningGroup = b;
unicode = 0070;
},
{
glyphname = thorn;
layers = (
{
layerId = "952C609B-CA64-4350-B6E7-D316939CE488";
paths = (
{
closed = 1;
nodes = (
"153 400.716 OFFCURVE",
"245.114 499 OFFCURVE",
"364 499 CURVE SMOOTH",
"483.249 499 OFFCURVE",
"572 403.268 OFFCURVE",
"572 288 CURVE SMOOTH",
"572 173.436 OFFCURVE",
"483.332 75 OFFCURVE",
"364 75 CURVE SMOOTH",
"245.114 75 OFFCURVE",
"153 173.284 OFFCURVE",
"153 287 CURVE SMOOTH"
);
},
{
closed = 1;
nodes = (
"474 -22 OFFCURVE",
"549.833 13.167 OFFCURVE",
"602.5 68.5 CURVE SMOOTH",
"655.167 123.833 OFFCURVE",
"688 202 OFFCURVE",
"688 286 CURVE SMOOTH",
"688 370 OFFCURVE",
"655.167 448 OFFCURVE",
"602.5 504 CURVE SMOOTH",
"549.833 560 OFFCURVE",
"474 596 OFFCURVE",
"390 596 CURVE SMOOTH",
"294 596 OFFCURVE",
"210.667 554.333 OFFCURVE",
"156 489 CURVE",
"156 780 LINE",
"46 780 LINE",
"46 -220 LINE",
"156 -220 LINE",
"156 85 LINE",
"212 19.667 OFFCURVE",
"295.333 -22 OFFCURVE",
"390 -22 CURVE SMOOTH"
);
}
);
userData = {
assembly = "PUSHB[ ]	/* 7 values pushed */\01228 23 2 0 1 1 74 \012MPPEM[ ]	/* MeasurePixelPerEm */\012PUSHB[ ]	/* 1 value pushed */\01226 \012LT[ ]	/* LessThan */\012IF[ ]	/* If */\012NPUSHB[ ]	/* 32 values pushed */\0120 4 4 22 75 0 1 1 5 91 0 5 5 31 75 0 0 0 2 91 6 1 2 2 29 75 0 3 3 25 3 76 \012ELSE[ ]	/* Else */\012MPPEM[ ]	/* MeasurePixelPerEm */\012PUSHB[ ]	/* 1 value pushed */\01233 \012LT[ ]	/* LessThan */\012IF[ ]	/* If */\012NPUSHB[ ]	/* 30 values pushed */\0120 5 0 1 0 5 1 99 0 4 4 22 75 0 0 0 2 91 6 1 2 2 29 75 0 3 3 25 3 76 \012ELSE[ ]	/* Else */\012MPPEM[ ]	/* MeasurePixelPerEm */\012PUSHB[ ]	/* 1 value pushed */\01243 \012LT[ ]	/* LessThan */\012IF[ ]	/* If */\012NPUSHB[ ]	/* 30 values pushed */\0120 5 0 1 0 5 1 99 0 4 4 22 75 0 0 0 2 91 6 1 2 2 32 75 0 3 3 25 3 76 \012ELSE[ ]	/* Else */\012NPUSHB[ ]	/* 28 values pushed */\0120 5 0 1 0 5 1 99 0 0 6 1 2 3 0 2 99 0 4 4 22 75 0 3 3 25 3 76 \012EIF[ ]	/* EndIf */\012EIF[ ]	/* EndIf */\012EIF[ ]	/* EndIf */\012NPUSHB[ ]	/* 17 values pushed */\01221 20 32 30 27 26 25 24 20 40 21 40 40 36 7 7 22 \012CALL[ ]	/* CallFunction */";
};
width = 712;
}
);
note = thorn;
rightKerningGroup = b;
unicode = 00FE;
},
{
glyphname = q;
layers = (
{
layerId = "952C609B-CA64-4350-B6E7-D316939CE488";
paths = (
{
closed = 1;
nodes = (
"666 -220 LINE",
"666 574 LINE",
"561 574 LINE",
"561 485 LINE",
"506.333 553 OFFCURVE",
"421 596 OFFCURVE",
"321 596 CURVE SMOOTH",
"237 596 OFFCURVE",
"162.333 560.833 OFFCURVE",
"109 505.5 CURVE SMOOTH",
"55.667 450.167 OFFCURVE",
"24 372 OFFCURVE",
"24 288 CURVE SMOOTH",
"24 204 OFFCURVE",
"55.667 126 OFFCURVE",
"109 70 CURVE SMOOTH",
"162.333 14 OFFCURVE",
"237 -22 OFFCURVE",
"321 -22 CURVE SMOOTH",
"417 -22 OFFCURVE",
"501.333 20.667 OFFCURVE",
"556 86 CURVE",
"556 -220 LINE"
);
},
{
closed = 1;
nodes = (
"559 173.284 OFFCURVE",
"466.886 75 OFFCURVE",
"348 75 CURVE SMOOTH",
"228.751 75 OFFCURVE",
"140 170.732 OFFCURVE",
"140 286 CURVE SMOOTH",
"140 400.564 OFFCURVE",
"228.668 499 OFFCURVE",
"348 499 CURVE SMOOTH",
"466.886 499 OFFCURVE",
"559 400.716 OFFCURVE",
"559 287 CURVE SMOOTH"
);
}
);
userData = {
assembly = "PUSHB[ ]	/* 7 values pushed */\01218 2 2 5 4 1 74 \012MPPEM[ ]	/* MeasurePixelPerEm */\012PUSHB[ ]	/* 1 value pushed */\01226 \012LT[ ]	/* LessThan */\012IF[ ]	/* If */\012NPUSHB[ ]	/* 31 values pushed */\0120 3 3 23 75 0 4 4 2 91 0 2 2 31 75 0 5 5 1 91 0 1 1 29 75 0 0 0 25 0 76 \012ELSE[ ]	/* Else */\012MPPEM[ ]	/* MeasurePixelPerEm */\012PUSHB[ ]	/* 1 value pushed */\01233 \012LT[ ]	/* LessThan */\012IF[ ]	/* If */\012NPUSHB[ ]	/* 29 values pushed */\0120 2 0 4 5 2 4 99 0 5 5 1 91 0 1 1 29 75 0 3 3 0 89 0 0 0 25 0 76 \012ELSE[ ]	/* Else */\012MPPEM[ ]	/* MeasurePixelPerEm */\012PUSHB[ ]	/* 1 value pushed */\01243 \012LT[ ]	/* LessThan */\012IF[ ]	/* If */\012NPUSHB[ ]	/* 29 values pushed */\0120 2 0 4 5 2 4 99 0 5 5 1 91 0 1 1 32 75 0 3 3 0 89 0 0 0 25 0 76 \012ELSE[ ]	/* Else */\012NPUSHB[ ]	/* 27 values pushed */\0120 2 0 4 5 2 4 99 0 5 0 1 0 5 1 99 0 3 3 0 89 0 0 0 25 0 76 \012EIF[ ]	/* EndIf */\012EIF[ ]	/* EndIf */\012EIF[ ]	/* EndIf */\012NPUSHB[ ]	/* 9 values pushed */\01240 37 19 40 35 16 6 7 26 \012CALL[ ]	/* CallFunction */";
};
width = 712;
}
);
leftKerningGroup = d;
note = q;
rightKerningGroup = q;
unicode = 0071;
},
{
glyphname = r;
layers = (
{
layerId = "952C609B-CA64-4350-B6E7-D316939CE488";
paths = (
{
closed = 1;
nodes = (
"156 379.015 OFFCURVE",
"221.647 453 OFFCURVE",
"309 453 CURVE SMOOTH",
"315.667 453 OFFCURVE",
"327.667 450.333 OFFCURVE",
"333 449 CURVE",
"333 574 LINE",
"314 574 LINE SMOOTH",
"237.866 574 OFFCURVE",
"179.251 508.475 OFFCURVE",
"152 457 CURVE",
"152 574 LINE",
"46 574 LINE",
"46 0 LINE",
"156 0 LINE",
"156 315 LINE SMOOTH"
);
}
);
userData = {
assembly = "NPUSHB[ ]	/* 10 values pushed */\0125 1 3 1 12 1 0 3 2 74 \012MPPEM[ ]	/* MeasurePixelPerEm */\012PUSHB[ ]	/* 1 value pushed */\01226 \012LT[ ]	/* LessThan */\012IF[ ]	/* If */\012NPUSHB[ ]	/* 17 values pushed */\0120 3 3 1 91 2 1 1 1 23 75 0 0 0 21 0 76 \012ELSE[ ]	/* Else */\012MPPEM[ ]	/* MeasurePixelPerEm */\012PUSHB[ ]	/* 1 value pushed */\01233 \012LT[ ]	/* LessThan */\012IF[ ]	/* If */\012NPUSHB[ ]	/* 18 values pushed */\0120 3 0 1 3 87 2 1 1 1 0 89 0 0 0 21 0 76 \012ELSE[ ]	/* Else */\012MPPEM[ ]	/* MeasurePixelPerEm */\012PUSHB[ ]	/* 1 value pushed */\01243 \012LT[ ]	/* LessThan */\012IF[ ]	/* If */\012NPUSHB[ ]	/* 18 values pushed */\0120 3 0 1 3 87 2 1 1 1 0 89 0 0 0 24 0 76 \012ELSE[ ]	/* Else */\012NPUSHB[ ]	/* 20 values pushed */\0122 1 1 0 3 0 1 3 99 2 1 1 1 0 89 0 0 1 0 77 \012EIF[ ]	/* EndIf */\012EIF[ ]	/* EndIf */\012EIF[ ]	/* EndIf */\012PUSHB[ ]	/* 7 values pushed */\01235 37 17 17 4 7 24 \012CALL[ ]	/* CallFunction */";
};
width = 351;
}
);
leftKerningGroup = m;
note = r;
rightKerningGroup = r;
unicode = 0072;
},
{
glyphname = s;
layers = (
{
layerId = "952C609B-CA64-4350-B6E7-D316939CE488";
paths = (
{
closed = 1;
nodes = (
"98.681 592 OFFCURVE",
"28 526.872 OFFCURVE",
"28 448 CURVE SMOOTH",
"28 369.313 OFFCURVE",
"70.532 326.843 OFFCURVE",
"174 261 CURVE SMOOTH",
"258.569 210.259 OFFCURVE",
"293 175.019 OFFCURVE",
"293 145 CURVE SMOOTH",
"293 109 OFFCURVE",
"261 78.333 OFFCURVE",
"193 77 CURVE SMOOTH",
"155.667 77 OFFCURVE",
"96.333 94.333 OFFCURVE",
"39 125 CURVE",
"39 24 LINE",
"85.667 2.667 OFFCURVE",
"155.333 -17 OFFCURVE",
"206 -17 CURVE SMOOTH",
"330 -15.667 OFFCURVE",
"409 47.667 OFFCURVE",
"409 145 CURVE SMOOTH",
"409 177.667 OFFCURVE",
"397.333 209.167 OFFCURVE",
"374 239.5 CURVE SMOOTH",
"350.667 269.833 OFFCURVE",
"305.333 306.667 OFFCURVE",
"238 350 CURVE SMOOTH",
"204.667 370.667 OFFCURVE",
"180.667 387.833 OFFCURVE",
"166 401.5 CURVE SMOOTH",
"151.333 415.167 OFFCURVE",
"144 428.333 OFFCURVE",
"144 441 CURVE SMOOTH",
"144 477 OFFCURVE",
"175.667 499 OFFCURVE",
"229 499 CURVE SMOOTH",
"262.333 499 OFFCURVE",
"304.667 487.667 OFFCURVE",
"346 465 CURVE",
"346 566 LINE",
"312.667 580.667 OFFCURVE",
"269 592 OFFCURVE",
"221 592 CURVE SMOOTH"
);
}
);
userData = {
assembly = "NPUSHB[ ]	/* 16 values pushed */\0123 1 1 0 29 23 4 3 3 1 22 1 2 3 3 74 \012MPPEM[ ]	/* MeasurePixelPerEm */\012PUSHB[ ]	/* 1 value pushed */\01226 \012LT[ ]	/* LessThan */\012IF[ ]	/* If */\012NPUSHB[ ]	/* 22 values pushed */\0120 1 1 0 91 4 1 0 0 31 75 0 3 3 2 91 0 2 2 32 2 76 \012ELSE[ ]	/* Else */\012MPPEM[ ]	/* MeasurePixelPerEm */\012PUSHB[ ]	/* 1 value pushed */\01243 \012LT[ ]	/* LessThan */\012IF[ ]	/* If */\012NPUSHB[ ]	/* 20 values pushed */\0124 1 0 0 1 3 0 1 99 0 3 3 2 91 0 2 2 32 2 76 \012ELSE[ ]	/* Else */\012NPUSHB[ ]	/* 25 values pushed */\0124 1 0 0 1 3 0 1 99 0 3 2 2 3 87 0 3 3 2 91 0 2 3 2 79 \012EIF[ ]	/* EndIf */\012EIF[ ]	/* EndIf */\012NPUSHB[ ]	/* 15 values pushed */\0121 0 27 25 20 18 8 6 0 43 1 43 5 7 20 \012CALL[ ]	/* CallFunction */";
};
width = 430;
}
);
leftKerningGroup = s;
note = s;
rightKerningGroup = s;
unicode = 0073;
},
{
glyphname = germandbls;
layers = (
{
layerId = "952C609B-CA64-4350-B6E7-D316939CE488";
paths = (
{
closed = 1;
nodes = (
"366.667 -108 OFFCURVE",
"432.5 -61.833 OFFCURVE",
"478.5 -10.5 CURVE SMOOTH",
"524.5 40.833 OFFCURVE",
"551 101.333 OFFCURVE",
"551 172 CURVE SMOOTH",
"551 252 OFFCURVE",
"506.667 325.667 OFFCURVE",
"424 367 CURVE",
"534 570 LINE",
"532 574 LINE",
"192 574 LINE",
"157 520 LINE",
"157 598 LINE SMOOTH",
"157 683.333 OFFCURVE",
"202 695 OFFCURVE",
"246 695 CURVE",
"246 792 LINE",
"132.621 792 OFFCURVE",
"47 753.67 OFFCURVE",
"47 606 CURVE SMOOTH",
"47 0 LINE",
"157 0 LINE",
"157 480 LINE",
"378 480 LINE",
"295 328 LINE",
"377.667 306.667 OFFCURVE",
"438 252 OFFCURVE",
"438 172 CURVE SMOOTH",
"438 104 OFFCURVE",
"393.333 29.333 OFFCURVE",
"288 -36 CURVE",
"288 -148 LINE"
);
}
);
userData = {
assembly = "NPUSHB[ ]	/* 16 values pushed */\01222 1 0 4 26 7 2 1 0 2 74 1 0 2 1 71 \012MPPEM[ ]	/* MeasurePixelPerEm */\012PUSHB[ ]	/* 1 value pushed */\01226 \012LT[ ]	/* LessThan */\012IF[ ]	/* If */\012NPUSHB[ ]	/* 26 values pushed */\0120 3 3 2 91 0 2 2 30 75 0 0 0 4 89 0 4 4 23 75 0 1 1 21 1 76 \012ELSE[ ]	/* Else */\012MPPEM[ ]	/* MeasurePixelPerEm */\012PUSHB[ ]	/* 1 value pushed */\01233 \012LT[ ]	/* LessThan */\012IF[ ]	/* If */\012NPUSHB[ ]	/* 24 values pushed */\0120 4 0 0 1 4 0 97 0 3 3 2 91 0 2 2 30 75 0 1 1 21 1 76 \012ELSE[ ]	/* Else */\012MPPEM[ ]	/* MeasurePixelPerEm */\012PUSHB[ ]	/* 1 value pushed */\01243 \012LT[ ]	/* LessThan */\012IF[ ]	/* If */\012NPUSHB[ ]	/* 24 values pushed */\0120 4 0 0 1 4 0 97 0 3 3 2 91 0 2 2 30 75 0 1 1 24 1 76 \012ELSE[ ]	/* Else */\012NPUSHB[ ]	/* 24 values pushed */\0120 1 0 1 115 0 4 0 0 1 4 0 97 0 3 3 2 91 0 2 2 30 3 76 \012EIF[ ]	/* EndIf */\012EIF[ ]	/* EndIf */\012EIF[ ]	/* EndIf */\012PUSHB[ ]	/* 8 values pushed */\01220 17 21 17 24 5 7 25 \012CALL[ ]	/* CallFunction */";
};
width = 579;
}
);
leftKerningGroup = germandbls;
note = germandbls;
rightKerningGroup = germandbls;
unicode = 00DF;
},
{
glyphname = t;
layers = (
{
layerId = "952C609B-CA64-4350-B6E7-D316939CE488";
paths = (
{
closed = 1;
nodes = (
"274 480 LINE",
"274 574 LINE",
"198 574 LINE",
"198 743 LINE",
"88 713 LINE",
"88 574 LINE",
"13 574 LINE",
"13 480 LINE",
"88 480 LINE",
"88 0 LINE",
"198 0 LINE",
"198 480 LINE"
);
}
);
userData = {
assembly = "PUSHB[ ]	/* 5 values pushed */\0129 8 2 3 72 \012MPPEM[ ]	/* MeasurePixelPerEm */\012PUSHB[ ]	/* 1 value pushed */\01226 \012LT[ ]	/* LessThan */\012IF[ ]	/* If */\012NPUSHB[ ]	/* 18 values pushed */\0122 1 0 0 3 89 4 1 3 3 23 75 0 1 1 21 1 76 \012ELSE[ ]	/* Else */\012MPPEM[ ]	/* MeasurePixelPerEm */\012PUSHB[ ]	/* 1 value pushed */\01233 \012LT[ ]	/* LessThan */\012IF[ ]	/* If */\012NPUSHB[ ]	/* 16 values pushed */\0124 1 3 2 1 0 1 3 0 97 0 1 1 21 1 76 \012ELSE[ ]	/* Else */\012MPPEM[ ]	/* MeasurePixelPerEm */\012PUSHB[ ]	/* 1 value pushed */\01243 \012LT[ ]	/* LessThan */\012IF[ ]	/* If */\012NPUSHB[ ]	/* 16 values pushed */\0124 1 3 2 1 0 1 3 0 97 0 1 1 24 1 76 \012ELSE[ ]	/* Else */\012NPUSHB[ ]	/* 24 values pushed */\0120 1 0 1 115 4 1 3 0 0 3 85 4 1 3 3 0 89 2 1 0 3 0 77 \012EIF[ ]	/* EndIf */\012EIF[ ]	/* EndIf */\012EIF[ ]	/* EndIf */\012PUSHB[ ]	/* 8 values pushed */\01219 17 17 17 16 5 7 25 \012CALL[ ]	/* CallFunction */";
};
width = 287;
}
);
leftKerningGroup = t;
note = t;
rightKerningGroup = t;
unicode = 0074;
},
{
glyphname = tbar;
layers = (
{
layerId = "952C609B-CA64-4350-B6E7-D316939CE488";
paths = (
{
closed = 1;
nodes = (
"273 285 LINE",
"273 360 LINE",
"198 360 LINE",
"198 480 LINE",
"274 480 LINE",
"274 574 LINE",
"198 574 LINE",
"198 743 LINE",
"88 713 LINE",
"88 574 LINE",
"13 574 LINE",
"13 480 LINE",
"88 480 LINE",
"88 360 LINE",
"12 360 LINE",
"12 285 LINE",
"88 285 LINE",
"88 0 LINE",
"198 0 LINE",
"198 285 LINE"
);
}
);
userData = {
assembly = "PUSHB[ ]	/* 5 values pushed */\01213 12 2 5 72 \012MPPEM[ ]	/* MeasurePixelPerEm */\012PUSHB[ ]	/* 1 value pushed */\01226 \012LT[ ]	/* LessThan */\012IF[ ]	/* If */\012NPUSHB[ ]	/* 28 values pushed */\0128 1 3 2 1 0 1 3 0 97 7 1 4 4 5 89 6 1 5 5 23 75 0 1 1 21 1 76 \012ELSE[ ]	/* Else */\012MPPEM[ ]	/* MeasurePixelPerEm */\012PUSHB[ ]	/* 1 value pushed */\01233 \012LT[ ]	/* LessThan */\012IF[ ]	/* If */\012NPUSHB[ ]	/* 26 values pushed */\0126 1 5 7 1 4 3 5 4 97 8 1 3 2 1 0 1 3 0 97 0 1 1 21 1 76 \012ELSE[ ]	/* Else */\012MPPEM[ ]	/* MeasurePixelPerEm */\012PUSHB[ ]	/* 1 value pushed */\01243 \012LT[ ]	/* LessThan */\012IF[ ]	/* If */\012NPUSHB[ ]	/* 26 values pushed */\0126 1 5 7 1 4 3 5 4 97 8 1 3 2 1 0 1 3 0 97 0 1 1 24 1 76 \012ELSE[ ]	/* Else */\012NPUSHB[ ]	/* 34 values pushed */\0120 1 0 1 115 6 1 5 7 1 4 3 5 4 97 8 1 3 0 0 3 85 8 1 3 3 0 89 2 1 0 3 0 77 \012EIF[ ]	/* EndIf */\012EIF[ ]	/* EndIf */\012EIF[ ]	/* EndIf */\012NPUSHB[ ]	/* 12 values pushed */\01217 17 19 17 17 17 17 17 16 9 7 29 \012CALL[ ]	/* CallFunction */";
};
width = 287;
}
);
note = tbar;
rightKerningGroup = t;
unicode = 0167;
},
{
glyphname = u;
layers = (
{
layerId = "952C609B-CA64-4350-B6E7-D316939CE488";
paths = (
{
closed = 1;
nodes = (
"439 0 LINE",
"545 0 LINE",
"545 574 LINE",
"435 574 LINE",
"435 221 LINE SMOOTH",
"435 135.293 OFFCURVE",
"362.64 82 OFFCURVE",
"293 82 CURVE SMOOTH",
"221 82 OFFCURVE",
"154 119 OFFCURVE",
"154 231 CURVE SMOOTH",
"154 574 LINE",
"44 574 LINE",
"44 198 LINE SMOOTH",
"44 66 OFFCURVE",
"127 -15 OFFCURVE",
"251 -15 CURVE SMOOTH",
"333.667 -15 OFFCURVE",
"401.667 24 OFFCURVE",
"439 68 CURVE"
);
}
);
userData = {
assembly = "MPPEM[ ]	/* MeasurePixelPerEm */\012PUSHB[ ]	/* 1 value pushed */\01216 \012LT[ ]	/* LessThan */\012IF[ ]	/* If */\012PUSHB[ ]	/* 6 values pushed */\0121 1 0 2 1 74 \012ELSE[ ]	/* Else */\012PUSHB[ ]	/* 6 values pushed */\0121 1 4 2 1 74 \012EIF[ ]	/* EndIf */\012MPPEM[ ]	/* MeasurePixelPerEm */\012PUSHB[ ]	/* 1 value pushed */\01216 \012LT[ ]	/* LessThan */\012IF[ ]	/* If */\012NPUSHB[ ]	/* 19 values pushed */\0123 1 1 1 23 75 0 2 2 0 91 5 4 2 0 0 32 0 76 \012ELSE[ ]	/* Else */\012MPPEM[ ]	/* MeasurePixelPerEm */\012PUSHB[ ]	/* 1 value pushed */\01226 \012LT[ ]	/* LessThan */\012IF[ ]	/* If */\012NPUSHB[ ]	/* 23 values pushed */\0123 1 1 1 23 75 5 1 4 4 21 75 0 2 2 0 91 0 0 0 32 0 76 \012ELSE[ ]	/* Else */\012MPPEM[ ]	/* MeasurePixelPerEm */\012PUSHB[ ]	/* 1 value pushed */\01233 \012LT[ ]	/* LessThan */\012IF[ ]	/* If */\012NPUSHB[ ]	/* 23 values pushed */\0123 1 1 1 4 89 5 1 4 4 21 75 0 2 2 0 91 0 0 0 32 0 76 \012ELSE[ ]	/* Else */\012MPPEM[ ]	/* MeasurePixelPerEm */\012PUSHB[ ]	/* 1 value pushed */\01243 \012LT[ ]	/* LessThan */\012IF[ ]	/* If */\012NPUSHB[ ]	/* 23 values pushed */\0123 1 1 1 4 89 5 1 4 4 24 75 0 2 2 0 91 0 0 0 32 0 76 \012ELSE[ ]	/* Else */\012NPUSHB[ ]	/* 26 values pushed */\0120 2 4 0 2 87 3 1 1 5 1 4 0 1 4 97 0 2 2 0 91 0 0 2 0 79 \012EIF[ ]	/* EndIf */\012EIF[ ]	/* EndIf */\012EIF[ ]	/* EndIf */\012EIF[ ]	/* EndIf */\012NPUSHB[ ]	/* 13 values pushed */\0120 0 0 21 0 21 21 35 19 35 6 7 24 \012CALL[ ]	/* CallFunction */";
};
width = 591;
}
);
leftKerningGroup = u;
note = u;
rightKerningGroup = u;
unicode = 0075;
},
{
glyphname = uogonek;
layers = (
{
layerId = "952C609B-CA64-4350-B6E7-D316939CE488";
paths = (
{
closed = 1;
nodes = (
"522 -96 LINE",
"512.667 -102.667 OFFCURVE",
"501 -110 OFFCURVE",
"485 -110 CURVE SMOOTH",
"466.333 -110 OFFCURVE",
"455 -97 OFFCURVE",
"455 -81 CURVE SMOOTH",
"455 -65 OFFCURVE",
"466 -51.667 OFFCURVE",
"494 -33 CURVE SMOOTH",
"545 0 LINE",
"545 574 LINE",
"435 574 LINE",
"435 221 LINE SMOOTH",
"435 135.293 OFFCURVE",
"362.64 82 OFFCURVE",
"293 82 CURVE SMOOTH",
"221 82 OFFCURVE",
"154 119 OFFCURVE",
"154 231 CURVE SMOOTH",
"154 574 LINE",
"44 574 LINE",
"44 198 LINE SMOOTH",
"44 66 OFFCURVE",
"127 -15 OFFCURVE",
"251 -15 CURVE SMOOTH",
"333.667 -15 OFFCURVE",
"401.667 24 OFFCURVE",
"439 68 CURVE",
"439 0 LINE",
"439 0 LINE",
"422 -12 LINE",
"388.667 -33.333 OFFCURVE",
"365 -64 OFFCURVE",
"365 -100 CURVE SMOOTH",
"365 -138.667 OFFCURVE",
"393.667 -176 OFFCURVE",
"459 -176 CURVE SMOOTH",
"504.333 -174.667 OFFCURVE",
"538.333 -157.333 OFFCURVE",
"557 -140 CURVE"
);
}
);
userData = {
assembly = "NPUSHB[ ]	/* 12 values pushed */\01232 12 10 3 1 3 42 1 5 1 2 74 \012MPPEM[ ]	/* MeasurePixelPerEm */\012PUSHB[ ]	/* 1 value pushed */\01226 \012LT[ ]	/* LessThan */\012IF[ ]	/* If */\012NPUSHB[ ]	/* 24 values pushed */\0120 5 0 0 5 0 96 4 1 2 2 23 75 0 3 3 1 91 0 1 1 32 1 76 \012ELSE[ ]	/* Else */\012MPPEM[ ]	/* MeasurePixelPerEm */\012PUSHB[ ]	/* 1 value pushed */\01243 \012LT[ ]	/* LessThan */\012IF[ ]	/* If */\012NPUSHB[ ]	/* 24 values pushed */\0124 1 2 3 2 114 0 5 0 0 5 0 96 0 3 3 1 91 0 1 1 32 1 76 \012ELSE[ ]	/* Else */\012NPUSHB[ ]	/* 30 values pushed */\0124 1 2 3 2 114 0 3 0 1 5 3 1 99 0 5 0 0 5 87 0 5 5 0 92 0 0 5 0 80 \012EIF[ ]	/* EndIf */\012EIF[ ]	/* EndIf */\012NPUSHB[ ]	/* 9 values pushed */\01239 21 35 19 42 34 6 7 26 \012CALL[ ]	/* CallFunction */";
};
width = 591;
}
);
leftKerningGroup = u;
note = uogonek;
rightKerningGroup = u;
unicode = 0173;
},
{
glyphname = v;
layers = (
{
layerId = "952C609B-CA64-4350-B6E7-D316939CE488";
paths = (
{
closed = 1;
nodes = (
"377 0 LINE",
"625 574 LINE",
"510 574 LINE",
"313 113 LINE",
"122 574 LINE",
"-1 574 LINE",
"247 0 LINE"
);
}
);
userData = {
assembly = "PUSHB[ ]	/* 6 values pushed */\0124 1 0 1 1 74 \012MPPEM[ ]	/* MeasurePixelPerEm */\012PUSHB[ ]	/* 1 value pushed */\01226 \012LT[ ]	/* LessThan */\012IF[ ]	/* If */\012NPUSHB[ ]	/* 12 values pushed */\0122 1 1 1 23 75 0 0 0 21 0 76 \012ELSE[ ]	/* Else */\012MPPEM[ ]	/* MeasurePixelPerEm */\012PUSHB[ ]	/* 1 value pushed */\01233 \012LT[ ]	/* LessThan */\012IF[ ]	/* If */\012NPUSHB[ ]	/* 12 values pushed */\0122 1 1 0 1 114 0 0 0 21 0 76 \012ELSE[ ]	/* Else */\012MPPEM[ ]	/* MeasurePixelPerEm */\012PUSHB[ ]	/* 1 value pushed */\01243 \012LT[ ]	/* LessThan */\012IF[ ]	/* If */\012NPUSHB[ ]	/* 12 values pushed */\0122 1 1 0 1 114 0 0 0 24 0 76 \012ELSE[ ]	/* Else */\012NPUSHB[ ]	/* 10 values pushed */\0122 1 1 0 1 114 0 0 0 105 \012EIF[ ]	/* EndIf */\012EIF[ ]	/* EndIf */\012EIF[ ]	/* EndIf */\012PUSHB[ ]	/* 6 values pushed */\01218 17 16 3 7 23 \012CALL[ ]	/* CallFunction */";
};
width = 624;
}
);
leftKerningGroup = v;
note = v;
rightKerningGroup = v;
unicode = 0076;
},
{
glyphname = w;
layers = (
{
layerId = "952C609B-CA64-4350-B6E7-D316939CE488";
paths = (
{
closed = 1;
nodes = (
"576 0 LINE",
"685 0 LINE",
"879 574 LINE",
"768 574 LINE",
"632 147 LINE",
"502 574 LINE",
"384 574 LINE",
"252 148 LINE",
"118 574 LINE",
"-1 574 LINE",
"196 0 LINE",
"306 0 LINE",
"440 413 LINE"
);
}
);
userData = {
assembly = "PUSHB[ ]	/* 8 values pushed */\0129 6 1 3 0 1 1 74 \012MPPEM[ ]	/* MeasurePixelPerEm */\012PUSHB[ ]	/* 1 value pushed */\01226 \012LT[ ]	/* LessThan */\012IF[ ]	/* If */\012NPUSHB[ ]	/* 15 values pushed */\0123 2 2 1 1 23 75 5 4 2 0 0 21 0 76 \012ELSE[ ]	/* Else */\012MPPEM[ ]	/* MeasurePixelPerEm */\012PUSHB[ ]	/* 1 value pushed */\01233 \012LT[ ]	/* LessThan */\012IF[ ]	/* If */\012NPUSHB[ ]	/* 15 values pushed */\0123 2 2 1 0 1 114 5 4 2 0 0 21 0 76 \012ELSE[ ]	/* Else */\012MPPEM[ ]	/* MeasurePixelPerEm */\012PUSHB[ ]	/* 1 value pushed */\01243 \012LT[ ]	/* LessThan */\012IF[ ]	/* If */\012NPUSHB[ ]	/* 15 values pushed */\0123 2 2 1 0 1 114 5 4 2 0 0 24 0 76 \012ELSE[ ]	/* Else */\012NPUSHB[ ]	/* 13 values pushed */\0123 2 2 1 0 1 114 5 4 2 0 0 105 \012EIF[ ]	/* EndIf */\012EIF[ ]	/* EndIf */\012EIF[ ]	/* EndIf */\012NPUSHB[ ]	/* 13 values pushed */\0120 0 0 12 0 12 18 18 17 18 6 7 24 \012CALL[ ]	/* CallFunction */";
};
width = 878;
}
);
leftKerningGroup = w;
note = w;
rightKerningGroup = w;
unicode = 0077;
},
{
glyphname = x;
layers = (
{
layerId = "952C609B-CA64-4350-B6E7-D316939CE488";
paths = (
{
closed = 1;
nodes = (
"457 0 LINE",
"577 0 LINE",
"376 299 LINE",
"581 574 LINE",
"462 574 LINE",
"309 361 LINE",
"164 574 LINE",
"39 574 LINE",
"232 297 LINE",
"12 0 LINE",
"130 0 LINE",
"299 227 LINE"
);
}
);
userData = {
assembly = "NPUSHB[ ]	/* 9 values pushed */\01210 7 4 1 4 0 1 1 74 \012MPPEM[ ]	/* MeasurePixelPerEm */\012PUSHB[ ]	/* 1 value pushed */\01226 \012LT[ ]	/* LessThan */\012IF[ ]	/* If */\012NPUSHB[ ]	/* 14 values pushed */\0122 1 1 1 23 75 4 3 2 0 0 21 0 76 \012ELSE[ ]	/* Else */\012MPPEM[ ]	/* MeasurePixelPerEm */\012PUSHB[ ]	/* 1 value pushed */\01233 \012LT[ ]	/* LessThan */\012IF[ ]	/* If */\012NPUSHB[ ]	/* 14 values pushed */\0122 1 1 1 0 89 4 3 2 0 0 21 0 76 \012ELSE[ ]	/* Else */\012MPPEM[ ]	/* MeasurePixelPerEm */\012PUSHB[ ]	/* 1 value pushed */\01243 \012LT[ ]	/* LessThan */\012IF[ ]	/* If */\012NPUSHB[ ]	/* 14 values pushed */\0122 1 1 1 0 89 4 3 2 0 0 24 0 76 \012ELSE[ ]	/* Else */\012NPUSHB[ ]	/* 20 values pushed */\0122 1 1 0 0 1 85 2 1 1 1 0 89 4 3 2 0 1 0 77 \012EIF[ ]	/* EndIf */\012EIF[ ]	/* EndIf */\012EIF[ ]	/* EndIf */\012NPUSHB[ ]	/* 12 values pushed */\0120 0 0 11 0 11 18 18 18 5 7 23 \012CALL[ ]	/* CallFunction */";
};
width = 605;
}
);
leftKerningGroup = x;
note = x;
rightKerningGroup = x;
unicode = 0078;
},
{
glyphname = y;
layers = (
{
layerId = "952C609B-CA64-4350-B6E7-D316939CE488";
paths = (
{
closed = 1;
nodes = (
"300 -220 LINE",
"602 574 LINE",
"488 574 LINE",
"318 124 LINE",
"123 574 LINE",
"-1 574 LINE",
"267 -11 LINE",
"188 -220 LINE"
);
}
);
userData = {
assembly = "PUSHB[ ]	/* 7 values pushed */\0125 2 2 0 1 1 74 \012MPPEM[ ]	/* MeasurePixelPerEm */\012PUSHB[ ]	/* 1 value pushed */\01226 \012LT[ ]	/* LessThan */\012IF[ ]	/* If */\012NPUSHB[ ]	/* 12 values pushed */\0122 1 1 1 23 75 0 0 0 25 0 76 \012ELSE[ ]	/* Else */\012NPUSHB[ ]	/* 12 values pushed */\0122 1 1 0 1 114 0 0 0 25 0 76 \012EIF[ ]	/* EndIf */\012PUSHB[ ]	/* 6 values pushed */\01218 18 16 3 7 23 \012CALL[ ]	/* CallFunction */";
};
width = 601;
}
);
leftKerningGroup = y;
note = y;
rightKerningGroup = y;
unicode = 0079;
},
{
glyphname = z;
layers = (
{
layerId = "952C609B-CA64-4350-B6E7-D316939CE488";
paths = (
{
closed = 1;
nodes = (
"497 0 LINE",
"539 94 LINE",
"196 94 LINE",
"549 570 LINE",
"547 574 LINE",
"112 574 LINE",
"70 480 LINE",
"360 480 LINE",
"5 4 LINE",
"7 0 LINE"
);
}
);
userData = {
assembly = "MPPEM[ ]	/* MeasurePixelPerEm */\012PUSHB[ ]	/* 1 value pushed */\01226 \012LT[ ]	/* LessThan */\012IF[ ]	/* If */\012NPUSHB[ ]	/* 21 values pushed */\0120 1 1 2 89 0 2 2 23 75 0 3 3 0 89 0 0 0 21 0 76 \012ELSE[ ]	/* Else */\012MPPEM[ ]	/* MeasurePixelPerEm */\012PUSHB[ ]	/* 1 value pushed */\01233 \012LT[ ]	/* LessThan */\012IF[ ]	/* If */\012NPUSHB[ ]	/* 19 values pushed */\0120 2 0 1 3 2 1 97 0 3 3 0 89 0 0 0 21 0 76 \012ELSE[ ]	/* Else */\012MPPEM[ ]	/* MeasurePixelPerEm */\012PUSHB[ ]	/* 1 value pushed */\01243 \012LT[ ]	/* LessThan */\012IF[ ]	/* If */\012NPUSHB[ ]	/* 19 values pushed */\0120 2 0 1 3 2 1 97 0 3 3 0 89 0 0 0 24 0 76 \012ELSE[ ]	/* Else */\012NPUSHB[ ]	/* 24 values pushed */\0120 2 0 1 3 2 1 97 0 3 0 0 3 85 0 3 3 0 89 0 0 3 0 77 \012EIF[ ]	/* EndIf */\012EIF[ ]	/* EndIf */\012EIF[ ]	/* EndIf */\012PUSHB[ ]	/* 7 values pushed */\01218 17 18 16 4 7 24 \012CALL[ ]	/* CallFunction */";
};
width = 567;
}
);
leftKerningGroup = z;
note = z;
rightKerningGroup = z;
unicode = 007A;
},
{
glyphname = a.salt_low;
layers = (
{
layerId = "952C609B-CA64-4350-B6E7-D316939CE488";
paths = (
{
closed = 1;
nodes = (
"182.667 53 OFFCURVE",
"136 107.667 OFFCURVE",
"136 173 CURVE SMOOTH",
"136 234.333 OFFCURVE",
"182.667 287 OFFCURVE",
"252 287 CURVE SMOOTH",
"324 287 OFFCURVE",
"373 234.333 OFFCURVE",
"373 173 CURVE SMOOTH",
"373 106.333 OFFCURVE",
"321.333 53 OFFCURVE",
"252 53 CURVE SMOOTH"
);
},
{
closed = 1;
nodes = (
"381 0 LINE",
"482 0 LINE",
"482 388 LINE SMOOTH",
"482 512 OFFCURVE",
"410.667 590 OFFCURVE",
"256 590 CURVE SMOOTH",
"206.667 590 OFFCURVE",
"167.333 586.333 OFFCURVE",
"90 569 CURVE",
"111 480 LINE",
"173.667 492 OFFCURVE",
"206.333 496 OFFCURVE",
"245 496 CURVE SMOOTH",
"325 497.333 OFFCURVE",
"372 463.667 OFFCURVE",
"372 353 CURVE SMOOTH",
"372 314 LINE",
"337.333 340.667 OFFCURVE",
"288.333 360 OFFCURVE",
"227 360 CURVE SMOOTH",
"107.195 360 OFFCURVE",
"21 278.633 OFFCURVE",
"21 170 CURVE SMOOTH",
"21 61.093 OFFCURVE",
"105.092 -20 OFFCURVE",
"213 -20 CURVE SMOOTH",
"285 -20 OFFCURVE",
"343.667 12 OFFCURVE",
"381 52 CURVE"
);
}
);
userData = {
assembly = "NPUSHB[ ]	/* 18 values pushed */\01237 1 4 5 36 1 3 4 29 1 1 3 13 1 6 0 4 74 \012MPPEM[ ]	/* MeasurePixelPerEm */\012PUSHB[ ]	/* 1 value pushed */\01226 \012LT[ ]	/* LessThan */\012IF[ ]	/* If */\012NPUSHB[ ]	/* 36 values pushed */\0120 3 0 1 0 3 1 99 0 4 4 5 91 0 5 5 31 75 8 1 6 6 21 75 7 1 0 0 2 91 0 2 2 32 2 76 \012ELSE[ ]	/* Else */\012MPPEM[ ]	/* MeasurePixelPerEm */\012PUSHB[ ]	/* 1 value pushed */\01233 \012LT[ ]	/* LessThan */\012IF[ ]	/* If */\012NPUSHB[ ]	/* 34 values pushed */\0120 5 0 4 3 5 4 99 0 3 0 1 0 3 1 99 8 1 6 6 21 75 7 1 0 0 2 91 0 2 2 32 2 76 \012ELSE[ ]	/* Else */\012MPPEM[ ]	/* MeasurePixelPerEm */\012PUSHB[ ]	/* 1 value pushed */\01243 \012LT[ ]	/* LessThan */\012IF[ ]	/* If */\012NPUSHB[ ]	/* 34 values pushed */\0120 5 0 4 3 5 4 99 0 3 0 1 0 3 1 99 8 1 6 6 24 75 7 1 0 0 2 91 0 2 2 32 2 76 \012ELSE[ ]	/* Else */\012NPUSHB[ ]	/* 43 values pushed */\0128 1 6 0 2 0 6 2 112 0 5 0 4 3 5 4 99 0 3 0 1 0 3 1 99 7 1 0 6 2 0 87 7 1 0 0 2 91 0 2 0 2 79 \012EIF[ ]	/* EndIf */\012EIF[ ]	/* EndIf */\012EIF[ ]	/* EndIf */\012NPUSHB[ ]	/* 25 values pushed */\01212 12 1 0 12 44 12 44 41 39 34 32 27 25 17 15 7 5 0 11 1 11 9 7 20 \012CALL[ ]	/* CallFunction */";
};
width = 528;
}
);
leftKerningGroup = a;
note = a.salt_low;
rightKerningGroup = a;
},
{
glyphname = a.salt_ss;
layers = (
{
layerId = "952C609B-CA64-4350-B6E7-D316939CE488";
paths = (
{
closed = 1;
nodes = (
"559 173.284 OFFCURVE",
"466.886 75 OFFCURVE",
"348 75 CURVE SMOOTH",
"228.668 75 OFFCURVE",
"140 173.436 OFFCURVE",
"140 288 CURVE SMOOTH",
"140 403.268 OFFCURVE",
"228.751 499 OFFCURVE",
"348 499 CURVE SMOOTH",
"466.886 499 OFFCURVE",
"559 400.716 OFFCURVE",
"559 287 CURVE SMOOTH"
);
},
{
closed = 1;
nodes = (
"561 0 LINE",
"666 0 LINE",
"666 574 LINE",
"556 574 LINE",
"556 488 LINE",
"501.333 553.333 OFFCURVE",
"417 596 OFFCURVE",
"321 596 CURVE SMOOTH",
"237 596 OFFCURVE",
"162.333 560 OFFCURVE",
"109 504 CURVE SMOOTH",
"55.667 448 OFFCURVE",
"24 370 OFFCURVE",
"24 286 CURVE SMOOTH",
"24 202 OFFCURVE",
"55.667 123.833 OFFCURVE",
"109 68.5 CURVE SMOOTH",
"162.333 13.167 OFFCURVE",
"237 -22 OFFCURVE",
"321 -22 CURVE SMOOTH",
"421 -22 OFFCURVE",
"506.333 22 OFFCURVE",
"561 90 CURVE"
);
}
);
userData = {
assembly = "PUSHB[ ]	/* 7 values pushed */\01237 21 2 1 0 1 74 \012MPPEM[ ]	/* MeasurePixelPerEm */\012PUSHB[ ]	/* 1 value pushed */\01226 \012LT[ ]	/* LessThan */\012IF[ ]	/* If */\012NPUSHB[ ]	/* 32 values pushed */\0120 4 4 23 75 0 0 0 3 91 0 3 3 31 75 6 1 5 5 21 75 0 1 1 2 91 0 2 2 29 2 76 \012ELSE[ ]	/* Else */\012MPPEM[ ]	/* MeasurePixelPerEm */\012PUSHB[ ]	/* 1 value pushed */\01233 \012LT[ ]	/* LessThan */\012IF[ ]	/* If */\012NPUSHB[ ]	/* 30 values pushed */\0120 3 0 0 1 3 0 99 0 4 4 5 89 6 1 5 5 21 75 0 1 1 2 91 0 2 2 29 2 76 \012ELSE[ ]	/* Else */\012MPPEM[ ]	/* MeasurePixelPerEm */\012PUSHB[ ]	/* 1 value pushed */\01243 \012LT[ ]	/* LessThan */\012IF[ ]	/* If */\012NPUSHB[ ]	/* 30 values pushed */\0120 3 0 0 1 3 0 99 0 4 4 5 89 6 1 5 5 24 75 0 1 1 2 91 0 2 2 32 2 76 \012ELSE[ ]	/* Else */\012NPUSHB[ ]	/* 33 values pushed */\0120 3 0 0 1 3 0 99 0 1 5 2 1 87 0 4 6 1 5 2 4 5 97 0 1 1 2 91 0 2 1 2 79 \012EIF[ ]	/* EndIf */\012EIF[ ]	/* EndIf */\012EIF[ ]	/* EndIf */\012NPUSHB[ ]	/* 14 values pushed */\01220 20 20 40 20 40 19 40 39 40 36 7 7 25 \012CALL[ ]	/* CallFunction */";
};
width = 712;
}
);
leftKerningGroup = d;
note = a.salt_ss;
rightKerningGroup = u;
},
{
glyphname = aogonek.salt_low;
layers = (
{
layerId = "952C609B-CA64-4350-B6E7-D316939CE488";
paths = (
{
closed = 1;
nodes = (
"182.667 53 OFFCURVE",
"136 107.667 OFFCURVE",
"136 173 CURVE SMOOTH",
"136 234.333 OFFCURVE",
"182.667 287 OFFCURVE",
"252 287 CURVE SMOOTH",
"324 287 OFFCURVE",
"373 234.333 OFFCURVE",
"373 173 CURVE SMOOTH",
"373 106.333 OFFCURVE",
"321.333 53 OFFCURVE",
"252 53 CURVE SMOOTH"
);
},
{
closed = 1;
nodes = (
"459 -96 LINE",
"451 -102.667 OFFCURVE",
"439 -110 OFFCURVE",
"423 -110 CURVE SMOOTH",
"403 -110 OFFCURVE",
"392 -97 OFFCURVE",
"392 -81 CURVE SMOOTH",
"392 -65 OFFCURVE",
"404 -51.667 OFFCURVE",
"432 -33 CURVE SMOOTH",
"482 0 LINE",
"482 388 LINE SMOOTH",
"482 512 OFFCURVE",
"410.667 590 OFFCURVE",
"256 590 CURVE SMOOTH",
"206.667 590 OFFCURVE",
"167.333 586.333 OFFCURVE",
"90 569 CURVE",
"111 480 LINE",
"173.667 492 OFFCURVE",
"206.333 496 OFFCURVE",
"245 496 CURVE SMOOTH",
"325 497.333 OFFCURVE",
"372 463.667 OFFCURVE",
"372 353 CURVE SMOOTH",
"372 314 LINE",
"337.333 340.667 OFFCURVE",
"288.333 360 OFFCURVE",
"227 360 CURVE SMOOTH",
"107.195 360 OFFCURVE",
"21 278.633 OFFCURVE",
"21 170 CURVE SMOOTH",
"21 61.093 OFFCURVE",
"105.092 -20 OFFCURVE",
"213 -20 CURVE SMOOTH",
"285 -20 OFFCURVE",
"343.667 12 OFFCURVE",
"381 52 CURVE",
"381 1 LINE",
"359 -15 LINE",
"327 -36.333 OFFCURVE",
"302 -64 OFFCURVE",
"302 -100 CURVE SMOOTH",
"302 -138.667 OFFCURVE",
"330.667 -176 OFFCURVE",
"396 -176 CURVE SMOOTH",
"441.333 -174.667 OFFCURVE",
"475.333 -157.333 OFFCURVE",
"494 -140 CURVE"
);
}
);
userData = {
assembly = "NPUSHB[ ]	/* 24 values pushed */\01247 1 5 6 46 1 4 5 39 1 1 4 54 23 22 3 3 0 64 1 7 3 5 74 \012MPPEM[ ]	/* MeasurePixelPerEm */\012PUSHB[ ]	/* 1 value pushed */\01226 \012LT[ ]	/* LessThan */\012IF[ ]	/* If */\012NPUSHB[ ]	/* 37 values pushed */\0120 4 0 1 0 4 1 99 0 7 0 2 7 2 95 0 5 5 6 91 0 6 6 31 75 8 1 0 0 3 91 0 3 3 32 3 76 \012ELSE[ ]	/* Else */\012MPPEM[ ]	/* MeasurePixelPerEm */\012PUSHB[ ]	/* 1 value pushed */\01243 \012LT[ ]	/* LessThan */\012IF[ ]	/* If */\012NPUSHB[ ]	/* 35 values pushed */\0120 6 0 5 4 6 5 99 0 4 0 1 0 4 1 99 0 7 0 2 7 2 95 8 1 0 0 3 91 0 3 3 32 3 76 \012ELSE[ ]	/* Else */\012NPUSHB[ ]	/* 41 values pushed */\0120 6 0 5 4 6 5 99 0 4 0 1 0 4 1 99 8 1 0 0 3 7 0 3 99 0 7 2 2 7 87 0 7 7 2 91 0 2 7 2 79 \012EIF[ ]	/* EndIf */\012EIF[ ]	/* EndIf */\012NPUSHB[ ]	/* 23 values pushed */\0121 0 62 60 51 49 44 42 37 35 27 25 16 14 7 5 0 11 1 11 9 7 20 \012CALL[ ]	/* CallFunction */";
};
width = 528;
}
);
leftKerningGroup = a;
note = aogonek.salt_low;
rightKerningGroup = a;
},
{
glyphname = aogonek.salt_ss;
layers = (
{
layerId = "952C609B-CA64-4350-B6E7-D316939CE488";
paths = (
{
closed = 1;
nodes = (
"625.333 -174.667 OFFCURVE",
"660.667 -157.333 OFFCURVE",
"678 -140 CURVE",
"643 -96 LINE",
"633.667 -102.667 OFFCURVE",
"622 -110 OFFCURVE",
"606 -110 CURVE SMOOTH",
"587.333 -110 OFFCURVE",
"576 -97 OFFCURVE",
"576 -81 CURVE SMOOTH",
"576 -65 OFFCURVE",
"587 -51.667 OFFCURVE",
"615 -33 CURVE SMOOTH",
"666 0 LINE",
"666 574 LINE",
"556 574 LINE",
"556 488 LINE",
"501.333 553.333 OFFCURVE",
"417 596 OFFCURVE",
"321 596 CURVE SMOOTH",
"237 596 OFFCURVE",
"162.333 560 OFFCURVE",
"109 504 CURVE SMOOTH",
"55.667 448 OFFCURVE",
"24 370 OFFCURVE",
"24 286 CURVE SMOOTH",
"24 202 OFFCURVE",
"55.667 123.833 OFFCURVE",
"109 68.5 CURVE SMOOTH",
"162.333 13.167 OFFCURVE",
"237 -22 OFFCURVE",
"321 -22 CURVE SMOOTH",
"421 -22 OFFCURVE",
"506.333 22 OFFCURVE",
"561 90 CURVE",
"561 -3 LINE",
"543 -15 LINE SMOOTH",
"509.667 -36.333 OFFCURVE",
"486 -64 OFFCURVE",
"486 -100 CURVE SMOOTH",
"486 -138.667 OFFCURVE",
"514.667 -176 OFFCURVE",
"580 -176 CURVE SMOOTH"
);
},
{
closed = 1;
nodes = (
"559 173.284 OFFCURVE",
"466.886 75 OFFCURVE",
"348 75 CURVE SMOOTH",
"228.668 75 OFFCURVE",
"140 173.436 OFFCURVE",
"140 288 CURVE SMOOTH",
"140 403.268 OFFCURVE",
"228.751 499 OFFCURVE",
"348 499 CURVE SMOOTH",
"466.886 499 OFFCURVE",
"559 400.716 OFFCURVE",
"559 287 CURVE SMOOTH"
);
}
);
userData = {
assembly = "PUSHB[ ]	/* 6 values pushed */\01255 45 20 0 2 48 \012CALL[ ]	/* CallFunction */";
};
width = 712;
}
);
leftKerningGroup = d;
note = aogonek.salt_ss;
rightKerningGroup = u;
},
{
glyphname = ae.salt_low;
layers = (
{
layerId = "952C609B-CA64-4350-B6E7-D316939CE488";
paths = (
{
closed = 1;
nodes = (
"756.333 508 OFFCURVE",
"826.667 445 OFFCURVE",
"848 353 CURVE",
"478 353 LINE",
"499.333 446.333 OFFCURVE",
"569.667 508 OFFCURVE",
"663 508 CURVE SMOOTH"
);
},
{
closed = 1;
nodes = (
"182.667 44 OFFCURVE",
"136 97 OFFCURVE",
"136 169 CURVE SMOOTH",
"136 231.667 OFFCURVE",
"182.667 287 OFFCURVE",
"252 287 CURVE SMOOTH",
"324 287 OFFCURVE",
"373 233 OFFCURVE",
"373 169 CURVE SMOOTH",
"373 94.333 OFFCURVE",
"321.333 44 OFFCURVE",
"252 44 CURVE SMOOTH"
);
},
{
closed = 1;
nodes = (
"893 150 LINE",
"843.667 100.667 OFFCURVE",
"775.333 66 OFFCURVE",
"686 66 CURVE SMOOTH",
"560.667 66 OFFCURVE",
"480 147 OFFCURVE",
"472 267 CURVE",
"970 267 LINE",
"970 293 LINE SMOOTH",
"970 379.667 OFFCURVE",
"936.833 458.167 OFFCURVE",
"881.5 513.5 CURVE SMOOTH",
"826.167 568.833 OFFCURVE",
"749.667 603 OFFCURVE",
"663 603 CURVE SMOOTH",
"575 603 OFFCURVE",
"497.333 564.333 OFFCURVE",
"444 503 CURVE",
"412 559 OFFCURVE",
"349.333 590 OFFCURVE",
"252 590 CURVE SMOOTH",
"198.667 590 OFFCURVE",
"167 585.333 OFFCURVE",
"99 572 CURVE",
"104 479 LINE",
"174.667 492.333 OFFCURVE",
"201.333 496 OFFCURVE",
"240 496 CURVE SMOOTH",
"320 497.333 OFFCURVE",
"361 463.667 OFFCURVE",
"361 353 CURVE SMOOTH",
"361 322 LINE",
"327.667 344.667 OFFCURVE",
"281.667 360 OFFCURVE",
"227 360 CURVE SMOOTH",
"107.001 360 OFFCURVE",
"21 275.908 OFFCURVE",
"21 166 CURVE SMOOTH",
"21 54 OFFCURVE",
"108 -29 OFFCURVE",
"232 -29 CURVE SMOOTH",
"344 -29 OFFCURVE",
"408.333 28.333 OFFCURVE",
"431 91 CURVE",
"485.667 17.667 OFFCURVE",
"575.333 -29 OFFCURVE",
"686 -29 CURVE SMOOTH",
"812.667 -29 OFFCURVE",
"900 19 OFFCURVE",
"960 79 CURVE"
);
}
);
userData = {
assembly = "MPPEM[ ]	/* MeasurePixelPerEm */\012PUSHB[ ]	/* 1 value pushed */\01221 \012LT[ ]	/* LessThan */\012IF[ ]	/* If */\012NPUSHB[ ]	/* 20 values pushed */\01247 1 0 8 53 46 2 1 0 39 1 3 1 69 25 2 11 10 4 74 \012ELSE[ ]	/* Else */\012MPPEM[ ]	/* MeasurePixelPerEm */\012PUSHB[ ]	/* 1 value pushed */\01234 \012LT[ ]	/* LessThan */\012IF[ ]	/* If */\012NPUSHB[ ]	/* 23 values pushed */\01247 1 0 8 53 1 7 0 46 1 1 7 39 1 3 1 69 25 2 11 10 5 74 \012ELSE[ ]	/* Else */\012NPUSHB[ ]	/* 23 values pushed */\01247 1 0 8 53 1 7 0 46 1 6 7 39 1 3 1 69 25 2 11 10 5 74 \012EIF[ ]	/* EndIf */\012EIF[ ]	/* EndIf */\012MPPEM[ ]	/* MeasurePixelPerEm */\012PUSHB[ ]	/* 1 value pushed */\01219 \012LT[ ]	/* LessThan */\012IF[ ]	/* If */\012NPUSHB[ ]	/* 52 values pushed */\0120 3 10 1 3 87 6 1 1 0 10 11 1 10 97 7 12 2 0 0 8 91 9 1 8 8 31 75 0 11 11 4 91 5 1 4 4 29 75 13 1 2 2 4 91 5 1 4 4 29 4 76 \012ELSE[ ]	/* Else */\012MPPEM[ ]	/* MeasurePixelPerEm */\012PUSHB[ ]	/* 1 value pushed */\01221 \012LT[ ]	/* LessThan */\012IF[ ]	/* If */\012NPUSHB[ ]	/* 63 values pushed */\0120 3 10 1 3 87 6 1 1 0 10 11 1 10 97 7 12 2 0 0 9 91 0 9 9 31 75 7 12 2 0 0 8 91 0 8 8 31 75 0 11 11 4 91 5 1 4 4 29 75 13 1 2 2 4 91 5 1 4 4 29 4 76 \012ELSE[ ]	/* Else */\012MPPEM[ ]	/* MeasurePixelPerEm */\012PUSHB[ ]	/* 1 value pushed */\01226 \012LT[ ]	/* LessThan */\012IF[ ]	/* If */\012NPUSHB[ ]	/* 60 values pushed */\0120 3 10 1 3 87 6 1 1 0 10 11 1 10 97 12 1 0 0 9 91 0 9 9 31 75 0 7 7 8 91 0 8 8 31 75 0 11 11 4 91 5 1 4 4 29 75 13 1 2 2 4 91 5 1 4 4 29 4 76 \012ELSE[ ]	/* Else */\012MPPEM[ ]	/* MeasurePixelPerEm */\012PUSHB[ ]	/* 1 value pushed */\01233 \012LT[ ]	/* LessThan */\012IF[ ]	/* If */\012NPUSHB[ ]	/* 56 values pushed */\0120 9 12 1 0 7 9 0 99 0 8 0 7 1 8 7 99 0 3 10 1 3 87 6 1 1 0 10 11 1 10 97 0 11 11 4 91 5 1 4 4 29 75 13 1 2 2 4 91 5 1 4 4 29 4 76 \012ELSE[ ]	/* Else */\012MPPEM[ ]	/* MeasurePixelPerEm */\012PUSHB[ ]	/* 1 value pushed */\01234 \012LT[ ]	/* LessThan */\012IF[ ]	/* If */\012NPUSHB[ ]	/* 56 values pushed */\0120 9 12 1 0 7 9 0 99 0 8 0 7 1 8 7 99 0 3 10 1 3 87 6 1 1 0 10 11 1 10 97 0 11 11 4 91 5 1 4 4 32 75 13 1 2 2 4 91 5 1 4 4 32 4 76 \012ELSE[ ]	/* Else */\012MPPEM[ ]	/* MeasurePixelPerEm */\012PUSHB[ ]	/* 1 value pushed */\01243 \012LT[ ]	/* LessThan */\012IF[ ]	/* If */\012NPUSHB[ ]	/* 57 values pushed */\0120 9 12 1 0 7 9 0 99 0 8 0 7 6 8 7 99 0 6 0 3 10 6 3 99 0 1 0 10 11 1 10 97 0 11 11 4 91 5 1 4 4 32 75 13 1 2 2 4 91 5 1 4 4 32 4 76 \012ELSE[ ]	/* Else */\012NPUSHB[ ]	/* 58 values pushed */\0120 9 12 1 0 7 9 0 99 0 8 0 7 6 8 7 99 0 6 0 3 10 6 3 99 0 1 0 10 11 1 10 97 0 11 2 4 11 87 13 1 2 4 4 2 87 13 1 2 2 4 91 5 1 4 2 4 79 \012EIF[ ]	/* EndIf */\012EIF[ ]	/* EndIf */\012EIF[ ]	/* EndIf */\012EIF[ ]	/* EndIf */\012EIF[ ]	/* EndIf */\012EIF[ ]	/* EndIf */\012NPUSHB[ ]	/* 35 values pushed */\0128 7 1 0 67 65 63 62 57 55 51 49 44 42 37 35 29 27 23 21 14 12 7 18 8 18 4 3 0 6 1 6 14 7 20 \012CALL[ ]	/* CallFunction */";
};
width = 991;
}
);
leftKerningGroup = a;
note = ae.salt_low;
rightKerningGroup = e;
},
{
glyphname = c.salt_low;
layers = (
{
layerId = "952C609B-CA64-4350-B6E7-D316939CE488";
paths = (
{
closed = 1;
nodes = (
"484 112 LINE",
"480 112 LINE",
"438.667 81.333 OFFCURVE",
"385.667 75 OFFCURVE",
"351 75 CURVE SMOOTH",
"230.68 75 OFFCURVE",
"140 168.347 OFFCURVE",
"140 286 CURVE SMOOTH",
"140 403.223 OFFCURVE",
"230.81 496 OFFCURVE",
"351 496 CURVE SMOOTH",
"385.667 496 OFFCURVE",
"438.667 489.333 OFFCURVE",
"480 460 CURVE",
"484 460 LINE",
"528 541 LINE",
"481.333 571.667 OFFCURVE",
"416.333 591 OFFCURVE",
"351 591 CURVE SMOOTH",
"259 591 OFFCURVE",
"175.5 556.667 OFFCURVE",
"117.5 502 CURVE SMOOTH",
"59.5 447.333 OFFCURVE",
"24 370 OFFCURVE",
"24 286 CURVE SMOOTH",
"24 200.667 OFFCURVE",
"59.5 123.667 OFFCURVE",
"117.5 69 CURVE SMOOTH",
"175.5 14.333 OFFCURVE",
"259 -20 OFFCURVE",
"351 -20 CURVE SMOOTH",
"416.333 -20 OFFCURVE",
"481.333 -0.667 OFFCURVE",
"528 30 CURVE"
);
}
);
userData = {
assembly = "NPUSHB[ ]	/* 14 values pushed */\01217 1 2 1 18 1 3 2 1 1 0 3 3 74 \012MPPEM[ ]	/* MeasurePixelPerEm */\012PUSHB[ ]	/* 1 value pushed */\01226 \012LT[ ]	/* LessThan */\012IF[ ]	/* If */\012NPUSHB[ ]	/* 21 values pushed */\0120 2 2 1 91 0 1 1 31 75 0 3 3 0 91 0 0 0 32 0 76 \012ELSE[ ]	/* Else */\012MPPEM[ ]	/* MeasurePixelPerEm */\012PUSHB[ ]	/* 1 value pushed */\01243 \012LT[ ]	/* LessThan */\012IF[ ]	/* If */\012NPUSHB[ ]	/* 19 values pushed */\0120 1 0 2 3 1 2 99 0 3 3 0 91 0 0 0 32 0 76 \012ELSE[ ]	/* Else */\012NPUSHB[ ]	/* 24 values pushed */\0120 1 0 2 3 1 2 99 0 3 0 0 3 87 0 3 3 0 91 0 0 3 0 79 \012EIF[ ]	/* EndIf */\012EIF[ ]	/* EndIf */\012PUSHB[ ]	/* 7 values pushed */\01240 38 40 35 4 7 24 \012CALL[ ]	/* CallFunction */";
};
width = 542;
}
);
leftKerningGroup = c;
note = c.salt_low;
rightKerningGroup = c;
},
{
glyphname = s.salt_low;
layers = (
{
layerId = "952C609B-CA64-4350-B6E7-D316939CE488";
paths = (
{
closed = 1;
nodes = (
"96.171 592 OFFCURVE",
"28 520.951 OFFCURVE",
"28 442 CURVE SMOOTH",
"28 361.937 OFFCURVE",
"71.289 326.634 OFFCURVE",
"176 260 CURVE SMOOTH",
"257.285 208.662 OFFCURVE",
"292 176.508 OFFCURVE",
"292 145 CURVE SMOOTH",
"292 111.667 OFFCURVE",
"260 78.333 OFFCURVE",
"188 77 CURVE SMOOTH",
"148 77 OFFCURVE",
"109 94.333 OFFCURVE",
"53 125 CURVE",
"12 40 LINE",
"69.333 5.333 OFFCURVE",
"136.667 -18 OFFCURVE",
"202 -18 CURVE SMOOTH",
"326 -16.667 OFFCURVE",
"408 54 OFFCURVE",
"408 154 CURVE SMOOTH",
"408 186.667 OFFCURVE",
"396.667 216.167 OFFCURVE",
"374 242.5 CURVE SMOOTH",
"351.333 268.833 OFFCURVE",
"307 303.667 OFFCURVE",
"241 347 CURVE SMOOTH",
"205 369.667 OFFCURVE",
"179.667 387.333 OFFCURVE",
"165 400 CURVE SMOOTH",
"150.333 412.667 OFFCURVE",
"143 426.333 OFFCURVE",
"143 441 CURVE SMOOTH",
"143 474.333 OFFCURVE",
"175.667 498 OFFCURVE",
"225 498 CURVE SMOOTH",
"254.333 498 OFFCURVE",
"292 488.333 OFFCURVE",
"328 467 CURVE",
"372 550 LINE",
"333.333 570 OFFCURVE",
"278.333 592 OFFCURVE",
"217 592 CURVE SMOOTH"
);
}
);
userData = {
assembly = "NPUSHB[ ]	/* 16 values pushed */\0123 1 1 0 29 23 4 3 3 1 22 1 2 3 3 74 \012MPPEM[ ]	/* MeasurePixelPerEm */\012PUSHB[ ]	/* 1 value pushed */\01226 \012LT[ ]	/* LessThan */\012IF[ ]	/* If */\012NPUSHB[ ]	/* 22 values pushed */\0120 1 1 0 91 4 1 0 0 31 75 0 3 3 2 91 0 2 2 32 2 76 \012ELSE[ ]	/* Else */\012MPPEM[ ]	/* MeasurePixelPerEm */\012PUSHB[ ]	/* 1 value pushed */\01243 \012LT[ ]	/* LessThan */\012IF[ ]	/* If */\012NPUSHB[ ]	/* 20 values pushed */\0124 1 0 0 1 3 0 1 99 0 3 3 2 91 0 2 2 32 2 76 \012ELSE[ ]	/* Else */\012NPUSHB[ ]	/* 25 values pushed */\0124 1 0 0 1 3 0 1 99 0 3 2 2 3 87 0 3 3 2 91 0 2 3 2 79 \012EIF[ ]	/* EndIf */\012EIF[ ]	/* EndIf */\012NPUSHB[ ]	/* 15 values pushed */\0121 0 27 25 20 18 8 6 0 43 1 43 5 7 20 \012CALL[ ]	/* CallFunction */";
};
width = 430;
}
);
leftKerningGroup = s;
note = s.salt_low;
rightKerningGroup = s;
},
{
glyphname = f_f;
layers = (
{
layerId = "952C609B-CA64-4350-B6E7-D316939CE488";
paths = (
{
closed = 1;
nodes = (
"197 0 LINE",
"197 480 LINE",
"337 480 LINE",
"337 0 LINE",
"447 0 LINE",
"447 480 LINE",
"524 480 LINE",
"524 574 LINE",
"447 574 LINE",
"447 598 LINE SMOOTH",
"447 683.333 OFFCURVE",
"492 695 OFFCURVE",
"536 695 CURVE",
"536 792 LINE",
"424.55 792 OFFCURVE",
"337 754.038 OFFCURVE",
"337 606 CURVE SMOOTH",
"337 574 LINE",
"197 574 LINE",
"197 598 LINE SMOOTH",
"197 683.333 OFFCURVE",
"242 695 OFFCURVE",
"286 695 CURVE",
"286 792 LINE",
"174.55 792 OFFCURVE",
"87 754.038 OFFCURVE",
"87 606 CURVE SMOOTH",
"87 574 LINE",
"12 574 LINE",
"12 480 LINE",
"87 480 LINE",
"87 0 LINE"
);
}
);
userData = {
assembly = "MPPEM[ ]	/* MeasurePixelPerEm */\012PUSHB[ ]	/* 1 value pushed */\01226 \012LT[ ]	/* LessThan */\012IF[ ]	/* If */\012NPUSHB[ ]	/* 33 values pushed */\0127 1 4 4 3 91 6 1 3 3 30 75 11 9 2 1 1 2 89 8 5 2 2 2 23 75 10 1 0 0 21 0 76 \012ELSE[ ]	/* Else */\012MPPEM[ ]	/* MeasurePixelPerEm */\012PUSHB[ ]	/* 1 value pushed */\01233 \012LT[ ]	/* LessThan */\012IF[ ]	/* If */\012NPUSHB[ ]	/* 31 values pushed */\0128 5 2 2 11 9 2 1 0 2 1 97 7 1 4 4 3 91 6 1 3 3 30 75 10 1 0 0 21 0 76 \012ELSE[ ]	/* Else */\012MPPEM[ ]	/* MeasurePixelPerEm */\012PUSHB[ ]	/* 1 value pushed */\01243 \012LT[ ]	/* LessThan */\012IF[ ]	/* If */\012NPUSHB[ ]	/* 31 values pushed */\0128 5 2 2 11 9 2 1 0 2 1 97 7 1 4 4 3 91 6 1 3 3 30 75 10 1 0 0 24 0 76 \012ELSE[ ]	/* Else */\012NPUSHB[ ]	/* 31 values pushed */\01210 1 0 1 0 115 8 5 2 2 11 9 2 1 0 2 1 97 7 1 4 4 3 91 6 1 3 3 30 4 76 \012EIF[ ]	/* EndIf */\012EIF[ ]	/* EndIf */\012EIF[ ]	/* EndIf */\012NPUSHB[ ]	/* 18 values pushed */\01235 34 33 32 31 30 19 17 21 19 17 21 17 17 16 12 7 29 \012CALL[ ]	/* CallFunction */";
};
width = 539;
}
);
leftKerningGroup = f;
note = f_f;
},
{
glyphname = f_f_i;
layers = (
{
layerId = "952C609B-CA64-4350-B6E7-D316939CE488";
paths = (
{
closed = 1;
nodes = (
"692 780 LINE",
"578 780 LINE",
"578 661 LINE",
"692 661 LINE"
);
},
{
closed = 1;
nodes = (
"690 574 LINE",
"580 574 LINE",
"580 0 LINE",
"690 0 LINE"
);
},
{
closed = 1;
nodes = (
"197 0 LINE",
"197 480 LINE",
"337 480 LINE",
"337 0 LINE",
"447 0 LINE",
"447 480 LINE",
"517 480 LINE",
"517 574 LINE",
"447 574 LINE",
"447 598 LINE SMOOTH",
"447 683.333 OFFCURVE",
"493 695 OFFCURVE",
"533 695 CURVE",
"533 792 LINE",
"424.193 792 OFFCURVE",
"337 753.207 OFFCURVE",
"337 606 CURVE SMOOTH",
"337 574 LINE",
"197 574 LINE",
"197 598 LINE SMOOTH",
"197 683.333 OFFCURVE",
"242 695 OFFCURVE",
"286 695 CURVE",
"286 792 LINE",
"174.55 792 OFFCURVE",
"87 754.038 OFFCURVE",
"87 606 CURVE SMOOTH",
"87 574 LINE",
"12 574 LINE",
"12 480 LINE",
"87 480 LINE",
"87 0 LINE"
);
}
);
userData = {
assembly = "MPPEM[ ]	/* MeasurePixelPerEm */\012PUSHB[ ]	/* 1 value pushed */\01221 \012LT[ ]	/* LessThan */\012IF[ ]	/* If */\012NPUSHB[ ]	/* 51 values pushed */\01211 1 8 8 1 91 10 7 16 3 1 1 22 75 0 0 0 1 91 10 7 16 3 1 1 22 75 15 13 2 5 5 3 89 12 9 6 17 4 3 3 23 75 14 4 2 2 2 21 2 76 \012ELSE[ ]	/* Else */\012MPPEM[ ]	/* MeasurePixelPerEm */\012PUSHB[ ]	/* 1 value pushed */\01226 \012LT[ ]	/* LessThan */\012IF[ ]	/* If */\012NPUSHB[ ]	/* 47 values pushed */\01211 1 8 8 7 91 10 1 7 7 30 75 0 0 0 1 89 16 1 1 1 22 75 15 13 2 5 5 3 89 12 9 6 17 4 3 3 23 75 14 4 2 2 2 21 2 76 \012ELSE[ ]	/* Else */\012MPPEM[ ]	/* MeasurePixelPerEm */\012PUSHB[ ]	/* 1 value pushed */\01233 \012LT[ ]	/* LessThan */\012IF[ ]	/* If */\012NPUSHB[ ]	/* 48 values pushed */\01215 13 2 5 2 3 5 85 11 1 8 8 7 91 10 1 7 7 30 75 0 0 0 1 89 16 1 1 1 22 75 12 9 6 17 4 3 3 2 89 14 4 2 2 2 21 2 76 \012ELSE[ ]	/* Else */\012MPPEM[ ]	/* MeasurePixelPerEm */\012PUSHB[ ]	/* 1 value pushed */\01243 \012LT[ ]	/* LessThan */\012IF[ ]	/* If */\012NPUSHB[ ]	/* 48 values pushed */\01215 13 2 5 2 3 5 85 11 1 8 8 7 91 10 1 7 7 30 75 0 0 0 1 89 16 1 1 1 22 75 12 9 6 17 4 3 3 2 89 14 4 2 2 2 24 2 76 \012ELSE[ ]	/* Else */\012NPUSHB[ ]	/* 45 values pushed */\01215 13 2 5 2 3 5 85 12 9 6 17 4 3 14 4 2 2 3 2 93 11 1 8 8 7 91 10 1 7 7 30 75 0 0 0 1 89 16 1 1 1 22 0 76 \012EIF[ ]	/* EndIf */\012EIF[ ]	/* EndIf */\012EIF[ ]	/* EndIf */\012EIF[ ]	/* EndIf */\012NPUSHB[ ]	/* 42 values pushed */\0124 4 0 0 43 42 41 40 39 38 37 36 33 32 31 30 25 24 21 20 19 18 13 12 11 10 9 8 4 7 4 7 6 5 0 3 0 3 17 18 7 21 \012CALL[ ]	/* CallFunction */";
};
width = 738;
}
);
leftKerningGroup = f;
note = f_f_i;
rightKerningGroup = i;
},
{
glyphname = f_f_l;
layers = (
{
layerId = "952C609B-CA64-4350-B6E7-D316939CE488";
paths = (
{
closed = 1;
nodes = (
"690 780 LINE",
"580 780 LINE",
"580 0 LINE",
"690 0 LINE"
);
},
{
closed = 1;
nodes = (
"197 0 LINE",
"197 480 LINE",
"337 480 LINE",
"337 0 LINE",
"447 0 LINE",
"447 480 LINE",
"517 480 LINE",
"517 574 LINE",
"447 574 LINE",
"447 598 LINE SMOOTH",
"447 683.333 OFFCURVE",
"493 695 OFFCURVE",
"533 695 CURVE",
"533 792 LINE",
"424.193 792 OFFCURVE",
"337 753.207 OFFCURVE",
"337 606 CURVE SMOOTH",
"337 574 LINE",
"197 574 LINE",
"197 598 LINE SMOOTH",
"197 683.333 OFFCURVE",
"242 695 OFFCURVE",
"286 695 CURVE",
"286 792 LINE",
"174.55 792 OFFCURVE",
"87 754.038 OFFCURVE",
"87 606 CURVE SMOOTH",
"87 574 LINE",
"12 574 LINE",
"12 480 LINE",
"87 480 LINE",
"87 0 LINE"
);
}
);
userData = {
assembly = "MPPEM[ ]	/* MeasurePixelPerEm */\012PUSHB[ ]	/* 1 value pushed */\01221 \012LT[ ]	/* LessThan */\012IF[ ]	/* If */\012NPUSHB[ ]	/* 36 values pushed */\0129 1 6 6 1 91 8 5 14 3 1 1 22 75 13 11 2 3 3 4 89 10 7 2 4 4 23 75 12 2 2 0 0 21 0 76 \012ELSE[ ]	/* Else */\012MPPEM[ ]	/* MeasurePixelPerEm */\012PUSHB[ ]	/* 1 value pushed */\01226 \012LT[ ]	/* LessThan */\012IF[ ]	/* If */\012NPUSHB[ ]	/* 40 values pushed */\01214 1 1 1 22 75 9 1 6 6 5 91 8 1 5 5 30 75 13 11 2 3 3 4 89 10 7 2 4 4 23 75 12 2 2 0 0 21 0 76 \012ELSE[ ]	/* Else */\012MPPEM[ ]	/* MeasurePixelPerEm */\012PUSHB[ ]	/* 1 value pushed */\01233 \012LT[ ]	/* LessThan */\012IF[ ]	/* If */\012NPUSHB[ ]	/* 38 values pushed */\01210 7 2 4 13 11 2 3 0 4 3 97 14 1 1 1 22 75 9 1 6 6 5 91 8 1 5 5 30 75 12 2 2 0 0 21 0 76 \012ELSE[ ]	/* Else */\012MPPEM[ ]	/* MeasurePixelPerEm */\012PUSHB[ ]	/* 1 value pushed */\01243 \012LT[ ]	/* LessThan */\012IF[ ]	/* If */\012NPUSHB[ ]	/* 38 values pushed */\01210 7 2 4 13 11 2 3 0 4 3 97 14 1 1 1 22 75 9 1 6 6 5 91 8 1 5 5 30 75 12 2 2 0 0 24 0 76 \012ELSE[ ]	/* Else */\012NPUSHB[ ]	/* 38 values pushed */\01210 7 2 4 13 11 2 3 0 4 3 97 9 1 6 6 5 91 8 1 5 5 30 75 12 2 2 0 0 1 89 14 1 1 1 22 0 76 \012EIF[ ]	/* EndIf */\012EIF[ ]	/* EndIf */\012EIF[ ]	/* EndIf */\012EIF[ ]	/* EndIf */\012NPUSHB[ ]	/* 34 values pushed */\0120 0 39 38 37 36 35 34 33 32 29 28 27 26 21 20 17 16 15 14 9 8 7 6 5 4 0 3 0 3 17 15 7 21 \012CALL[ ]	/* CallFunction */";
};
width = 738;
}
);
leftKerningGroup = f;
note = f_f_l;
rightKerningGroup = d;
},
{
glyphname = f_i;
layers = (
{
layerId = "952C609B-CA64-4350-B6E7-D316939CE488";
paths = (
{
closed = 1;
nodes = (
"267 480 LINE",
"267 574 LINE",
"197 574 LINE",
"197 598 LINE SMOOTH",
"197 683.333 OFFCURVE",
"243 695 OFFCURVE",
"283 695 CURVE",
"283 792 LINE",
"174.193 792 OFFCURVE",
"87 753.207 OFFCURVE",
"87 606 CURVE SMOOTH",
"87 574 LINE",
"12 574 LINE",
"12 480 LINE",
"87 480 LINE",
"87 0 LINE",
"197 0 LINE",
"197 480 LINE"
);
},
{
closed = 1;
nodes = (
"442 780 LINE",
"328 780 LINE",
"328 661 LINE",
"442 661 LINE"
);
},
{
closed = 1;
nodes = (
"440 574 LINE",
"330 574 LINE",
"330 0 LINE",
"440 0 LINE"
);
}
);
userData = {
assembly = "MPPEM[ ]	/* MeasurePixelPerEm */\012PUSHB[ ]	/* 1 value pushed */\01221 \012LT[ ]	/* LessThan */\012IF[ ]	/* If */\012NPUSHB[ ]	/* 45 values pushed */\0120 5 5 4 91 11 8 2 4 4 30 75 0 7 7 4 91 11 8 2 4 4 30 75 2 1 0 0 3 89 12 10 6 3 3 3 23 75 9 1 1 1 21 1 76 \012ELSE[ ]	/* Else */\012MPPEM[ ]	/* MeasurePixelPerEm */\012PUSHB[ ]	/* 1 value pushed */\01226 \012LT[ ]	/* LessThan */\012IF[ ]	/* If */\012NPUSHB[ ]	/* 42 values pushed */\0120 5 5 4 91 0 4 4 30 75 0 7 7 8 89 11 1 8 8 22 75 2 1 0 0 3 89 12 10 6 3 3 3 23 75 9 1 1 1 21 1 76 \012ELSE[ ]	/* Else */\012MPPEM[ ]	/* MeasurePixelPerEm */\012PUSHB[ ]	/* 1 value pushed */\01233 \012LT[ ]	/* LessThan */\012IF[ ]	/* If */\012NPUSHB[ ]	/* 43 values pushed */\0122 1 0 1 3 0 85 0 5 5 4 91 0 4 4 30 75 0 7 7 8 89 11 1 8 8 22 75 12 10 6 3 3 3 1 89 9 1 1 1 21 1 76 \012ELSE[ ]	/* Else */\012MPPEM[ ]	/* MeasurePixelPerEm */\012PUSHB[ ]	/* 1 value pushed */\01243 \012LT[ ]	/* LessThan */\012IF[ ]	/* If */\012NPUSHB[ ]	/* 43 values pushed */\0122 1 0 1 3 0 85 0 5 5 4 91 0 4 4 30 75 0 7 7 8 89 11 1 8 8 22 75 12 10 6 3 3 3 1 89 9 1 1 1 24 1 76 \012ELSE[ ]	/* Else */\012NPUSHB[ ]	/* 40 values pushed */\0122 1 0 1 3 0 85 12 10 6 3 3 9 1 1 3 1 93 0 5 5 4 91 0 4 4 30 75 0 7 7 8 89 11 1 8 8 22 7 76 \012EIF[ ]	/* EndIf */\012EIF[ ]	/* EndIf */\012EIF[ ]	/* EndIf */\012EIF[ ]	/* EndIf */\012NPUSHB[ ]	/* 25 values pushed */\01224 24 20 20 24 27 24 27 26 25 20 23 20 23 18 19 17 21 17 17 17 16 13 7 28 \012CALL[ ]	/* CallFunction */";
};
width = 488;
}
);
leftKerningGroup = f;
note = f_i;
rightKerningGroup = i;
},
{
glyphname = f_l;
layers = (
{
layerId = "952C609B-CA64-4350-B6E7-D316939CE488";
paths = (
{
closed = 1;
nodes = (
"267 480 LINE",
"267 574 LINE",
"197 574 LINE",
"197 598 LINE SMOOTH",
"197 683.333 OFFCURVE",
"243 695 OFFCURVE",
"283 695 CURVE",
"283 792 LINE",
"174.193 792 OFFCURVE",
"87 753.207 OFFCURVE",
"87 606 CURVE SMOOTH",
"87 574 LINE",
"12 574 LINE",
"12 480 LINE",
"87 480 LINE",
"87 0 LINE",
"197 0 LINE",
"197 480 LINE"
);
},
{
closed = 1;
nodes = (
"440 780 LINE",
"330 780 LINE",
"330 0 LINE",
"440 0 LINE"
);
}
);
userData = {
assembly = "MPPEM[ ]	/* MeasurePixelPerEm */\012PUSHB[ ]	/* 1 value pushed */\01221 \012LT[ ]	/* LessThan */\012IF[ ]	/* If */\012NPUSHB[ ]	/* 31 values pushed */\0120 5 5 4 91 9 8 2 4 4 30 75 2 1 0 0 3 89 6 1 3 3 23 75 7 1 1 1 21 1 76 \012ELSE[ ]	/* Else */\012MPPEM[ ]	/* MeasurePixelPerEm */\012PUSHB[ ]	/* 1 value pushed */\01226 \012LT[ ]	/* LessThan */\012IF[ ]	/* If */\012NPUSHB[ ]	/* 35 values pushed */\0129 1 8 8 22 75 0 5 5 4 91 0 4 4 30 75 2 1 0 0 3 89 6 1 3 3 23 75 7 1 1 1 21 1 76 \012ELSE[ ]	/* Else */\012MPPEM[ ]	/* MeasurePixelPerEm */\012PUSHB[ ]	/* 1 value pushed */\01233 \012LT[ ]	/* LessThan */\012IF[ ]	/* If */\012NPUSHB[ ]	/* 33 values pushed */\0126 1 3 2 1 0 1 3 0 97 9 1 8 8 22 75 0 5 5 4 91 0 4 4 30 75 7 1 1 1 21 1 76 \012ELSE[ ]	/* Else */\012MPPEM[ ]	/* MeasurePixelPerEm */\012PUSHB[ ]	/* 1 value pushed */\01243 \012LT[ ]	/* LessThan */\012IF[ ]	/* If */\012NPUSHB[ ]	/* 33 values pushed */\0126 1 3 2 1 0 1 3 0 97 9 1 8 8 22 75 0 5 5 4 91 0 4 4 30 75 7 1 1 1 24 1 76 \012ELSE[ ]	/* Else */\012NPUSHB[ ]	/* 33 values pushed */\0126 1 3 2 1 0 1 3 0 97 0 5 5 4 91 0 4 4 30 75 7 1 1 1 8 89 9 1 8 8 22 1 76 \012EIF[ ]	/* EndIf */\012EIF[ ]	/* EndIf */\012EIF[ ]	/* EndIf */\012EIF[ ]	/* EndIf */\012NPUSHB[ ]	/* 17 values pushed */\01220 20 20 23 20 23 18 19 17 21 17 17 17 16 10 7 28 \012CALL[ ]	/* CallFunction */";
};
width = 488;
}
);
leftKerningGroup = f;
note = f_l;
rightKerningGroup = d;
},
{
glyphname = ordfeminine;
layers = (
{
layerId = "952C609B-CA64-4350-B6E7-D316939CE488";
paths = (
{
closed = 1;
nodes = (
"145 394 OFFCURVE",
"119 427 OFFCURVE",
"119 467 CURVE SMOOTH",
"119 503 OFFCURVE",
"145 533 OFFCURVE",
"185 533 CURVE SMOOTH",
"226.333 533 OFFCURVE",
"252 503 OFFCURVE",
"252 467 CURVE SMOOTH",
"252 425.667 OFFCURVE",
"223.667 394 OFFCURVE",
"185 394 CURVE SMOOTH"
);
},
{
closed = 1;
nodes = (
"261 345 LINE",
"355 345 LINE",
"355 616 LINE SMOOTH",
"355 704 OFFCURVE",
"298.333 758 OFFCURVE",
"181 758 CURVE SMOOTH",
"139.667 758 OFFCURVE",
"112.667 754.333 OFFCURVE",
"66 745 CURVE",
"68 657 LINE",
"117.333 666.333 OFFCURVE",
"141.333 670 OFFCURVE",
"168 670 CURVE SMOOTH",
"225.333 671.333 OFFCURVE",
"251 650.333 OFFCURVE",
"251 585 CURVE SMOOTH",
"251 573 LINE",
"228.333 587.667 OFFCURVE",
"196.667 597 OFFCURVE",
"158 597 CURVE SMOOTH",
"67.333 597 OFFCURVE",
"12 536 OFFCURVE",
"12 464 CURVE SMOOTH",
"12 386.667 OFFCURVE",
"68.667 331 OFFCURVE",
"142 331 CURVE SMOOTH",
"195.333 331 OFFCURVE",
"234.333 352.667 OFFCURVE",
"261 378 CURVE"
);
}
);
userData = {
assembly = "MPPEM[ ]	/* MeasurePixelPerEm */\012PUSHB[ ]	/* 1 value pushed */\01213 \012LT[ ]	/* LessThan */\012IF[ ]	/* If */\012NPUSHB[ ]	/* 18 values pushed */\01233 1 4 5 32 1 3 4 25 1 1 3 13 1 2 0 4 74 \012ELSE[ ]	/* Else */\012MPPEM[ ]	/* MeasurePixelPerEm */\012PUSHB[ ]	/* 1 value pushed */\01214 \012LT[ ]	/* LessThan */\012IF[ ]	/* If */\012NPUSHB[ ]	/* 18 values pushed */\01233 1 4 5 32 1 3 4 25 1 1 3 13 1 6 0 4 74 \012ELSE[ ]	/* Else */\012MPPEM[ ]	/* MeasurePixelPerEm */\012PUSHB[ ]	/* 1 value pushed */\01218 \012LT[ ]	/* LessThan */\012IF[ ]	/* If */\012NPUSHB[ ]	/* 18 values pushed */\01233 1 4 5 32 1 3 4 25 1 1 3 13 1 2 0 4 74 \012ELSE[ ]	/* Else */\012NPUSHB[ ]	/* 18 values pushed */\01233 1 4 5 32 1 3 4 25 1 1 3 13 1 6 0 4 74 \012EIF[ ]	/* EndIf */\012EIF[ ]	/* EndIf */\012EIF[ ]	/* EndIf */\012MPPEM[ ]	/* MeasurePixelPerEm */\012PUSHB[ ]	/* 1 value pushed */\01213 \012LT[ ]	/* LessThan */\012IF[ ]	/* If */\012NPUSHB[ ]	/* 29 values pushed */\0120 3 0 1 0 3 1 99 7 1 0 8 6 2 2 0 2 95 0 4 4 5 91 0 5 5 56 4 76 \012ELSE[ ]	/* Else */\012MPPEM[ ]	/* MeasurePixelPerEm */\012PUSHB[ ]	/* 1 value pushed */\01214 \012LT[ ]	/* LessThan */\012IF[ ]	/* If */\012NPUSHB[ ]	/* 36 values pushed */\0128 1 6 0 2 0 6 2 112 0 3 0 1 0 3 1 99 7 1 0 0 2 0 2 95 0 4 4 5 91 0 5 5 56 4 76 \012ELSE[ ]	/* Else */\012MPPEM[ ]	/* MeasurePixelPerEm */\012PUSHB[ ]	/* 1 value pushed */\01218 \012LT[ ]	/* LessThan */\012IF[ ]	/* If */\012NPUSHB[ ]	/* 29 values pushed */\0120 3 0 1 0 3 1 99 7 1 0 8 6 2 2 0 2 95 0 4 4 5 91 0 5 5 56 4 76 \012ELSE[ ]	/* Else */\012MPPEM[ ]	/* MeasurePixelPerEm */\012PUSHB[ ]	/* 1 value pushed */\01248 \012LT[ ]	/* LessThan */\012IF[ ]	/* If */\012NPUSHB[ ]	/* 36 values pushed */\0128 1 6 0 2 0 6 2 112 0 3 0 1 0 3 1 99 7 1 0 0 2 0 2 95 0 4 4 5 91 0 5 5 56 4 76 \012ELSE[ ]	/* Else */\012NPUSHB[ ]	/* 43 values pushed */\0128 1 6 0 2 0 6 2 112 0 5 0 4 3 5 4 99 0 3 0 1 0 3 1 99 7 1 0 6 2 0 87 7 1 0 0 2 91 0 2 0 2 79 \012EIF[ ]	/* EndIf */\012EIF[ ]	/* EndIf */\012EIF[ ]	/* EndIf */\012EIF[ ]	/* EndIf */\012NPUSHB[ ]	/* 25 values pushed */\01212 12 1 0 12 40 12 40 37 35 30 28 23 21 17 15 7 5 0 11 1 11 9 9 20 \012CALL[ ]	/* CallFunction */";
};
width = 385;
}
);
note = ordfeminine;
unicode = 00AA;
},
{
glyphname = ordmasculine;
layers = (
{
layerId = "952C609B-CA64-4350-B6E7-D316939CE488";
paths = (
{
closed = 1;
nodes = (
"117.803 766 OFFCURVE",
"15 671.815 OFFCURVE",
"15 546 CURVE SMOOTH",
"15 419.859 OFFCURVE",
"118.311 325 OFFCURVE",
"250 325 CURVE SMOOTH",
"382.821 325 OFFCURVE",
"484 419.859 OFFCURVE",
"484 546 CURVE SMOOTH",
"484 671.815 OFFCURVE",
"383.337 766 OFFCURVE",
"250 766 CURVE SMOOTH"
);
},
{
closed = 1;
nodes = (
"322 678 OFFCURVE",
"376 619.333 OFFCURVE",
"376 546 CURVE SMOOTH",
"376 472.667 OFFCURVE",
"322 413 OFFCURVE",
"250 413 CURVE SMOOTH",
"178 413 OFFCURVE",
"123 471.333 OFFCURVE",
"123 546 CURVE SMOOTH",
"123 619.333 OFFCURVE",
"178 678 OFFCURVE",
"250 678 CURVE SMOOTH"
);
}
);
userData = {
assembly = "MPPEM[ ]	/* MeasurePixelPerEm */\012PUSHB[ ]	/* 1 value pushed */\01248 \012LT[ ]	/* LessThan */\012IF[ ]	/* If */\012NPUSHB[ ]	/* 20 values pushed */\0120 3 0 1 3 1 95 5 1 2 2 0 91 4 1 0 0 56 2 76 \012ELSE[ ]	/* Else */\012NPUSHB[ ]	/* 26 values pushed */\0124 1 0 5 1 2 3 0 2 99 0 3 1 1 3 87 0 3 3 1 91 0 1 3 1 79 \012EIF[ ]	/* EndIf */\012NPUSHB[ ]	/* 19 values pushed */\01221 20 1 0 27 25 20 31 21 31 11 9 0 19 1 19 6 9 20 \012CALL[ ]	/* CallFunction */";
};
width = 498;
}
);
note = ordmasculine;
unicode = 00BA;
},
{
glyphname = mu;
layers = (
{
layerId = "952C609B-CA64-4350-B6E7-D316939CE488";
paths = (
{
closed = 1;
nodes = (
"142 -190 LINE",
"142 66 LINE",
"172.667 16.667 OFFCURVE",
"231.667 -15 OFFCURVE",
"297 -15 CURVE SMOOTH",
"361 -15 OFFCURVE",
"420.333 16.667 OFFCURVE",
"451 66 CURVE",
"451 0 LINE",
"547 0 LINE",
"547 574 LINE",
"437 574 LINE",
"437 221 LINE SMOOTH",
"437 133.387 OFFCURVE",
"364.847 82 OFFCURVE",
"296 82 CURVE SMOOTH",
"228.056 82 OFFCURVE",
"156 133.79 OFFCURVE",
"156 221 CURVE SMOOTH",
"156 574 LINE",
"46 574 LINE",
"46 -220 LINE"
);
}
);
userData = {
assembly = "PUSHB[ ]	/* 4 values pushed */\0122 1 1 48 \012CALL[ ]	/* CallFunction */";
};
width = 593;
}
);
leftKerningGroup = p;
note = mu;
rightKerningGroup = u;
unicode = 03BC;
},
{
glyphname = zero.salt_slash;
layers = (
{
layerId = "952C609B-CA64-4350-B6E7-D316939CE488";
paths = (
{
closed = 1;
nodes = (
"234 770 OFFCURVE",
"165.833 738.5 OFFCURVE",
"118.5 676.5 CURVE SMOOTH",
"71.167 614.5 OFFCURVE",
"42 520.667 OFFCURVE",
"42 398 CURVE SMOOTH",
"42 346 LINE SMOOTH",
"42 224.667 OFFCURVE",
"71.167 131.5 OFFCURVE",
"118.5 69.5 CURVE SMOOTH",
"165.833 7.5 OFFCURVE",
"234 -24 OFFCURVE",
"310 -24 CURVE SMOOTH",
"387.333 -24 OFFCURVE",
"455.167 7.5 OFFCURVE",
"502.5 69.5 CURVE SMOOTH",
"549.833 131.5 OFFCURVE",
"579 224.667 OFFCURVE",
"579 346 CURVE SMOOTH",
"579 398 LINE SMOOTH",
"579 520.667 OFFCURVE",
"549.833 614.5 OFFCURVE",
"502.5 676.5 CURVE SMOOTH",
"455.167 738.5 OFFCURVE",
"387.333 770 OFFCURVE",
"310 770 CURVE SMOOTH"
);
},
{
closed = 1;
nodes = (
"403.333 675 OFFCURVE",
"468 586 OFFCURVE",
"468 398 CURVE SMOOTH",
"468 346 LINE SMOOTH",
"468 271.333 OFFCURVE",
"457.667 212 OFFCURVE",
"439 168 CURVE",
"245 657 LINE",
"263.667 669 OFFCURVE",
"286 675 OFFCURVE",
"310 675 CURVE SMOOTH"
);
},
{
closed = 1;
nodes = (
"220.667 71 OFFCURVE",
"152 159.333 OFFCURVE",
"152 346 CURVE SMOOTH",
"152 398 LINE SMOOTH",
"152 474 OFFCURVE",
"163.333 534 OFFCURVE",
"182 578 CURVE",
"377 89 LINE",
"357 77 OFFCURVE",
"334 71 OFFCURVE",
"310 71 CURVE SMOOTH"
);
}
);
userData = {
assembly = "NPUSHB[ ]	/* 9 values pushed */\01237 36 26 25 4 3 2 1 74 \012MPPEM[ ]	/* MeasurePixelPerEm */\012PUSHB[ ]	/* 1 value pushed */\01233 \012LT[ ]	/* LessThan */\012IF[ ]	/* If */\012NPUSHB[ ]	/* 24 values pushed */\0125 1 2 2 0 91 4 1 0 0 28 75 6 1 3 3 1 91 0 1 1 29 1 76 \012ELSE[ ]	/* Else */\012MPPEM[ ]	/* MeasurePixelPerEm */\012PUSHB[ ]	/* 1 value pushed */\01243 \012LT[ ]	/* LessThan */\012IF[ ]	/* If */\012NPUSHB[ ]	/* 24 values pushed */\0125 1 2 2 0 91 4 1 0 0 22 75 6 1 3 3 1 91 0 1 1 32 1 76 \012ELSE[ ]	/* Else */\012MPPEM[ ]	/* MeasurePixelPerEm */\012PUSHB[ ]	/* 1 value pushed */\01249 \012LT[ ]	/* LessThan */\012IF[ ]	/* If */\012NPUSHB[ ]	/* 21 values pushed */\0126 1 3 0 1 3 1 95 5 1 2 2 0 91 4 1 0 0 22 2 76 \012ELSE[ ]	/* Else */\012NPUSHB[ ]	/* 28 values pushed */\0124 1 0 5 1 2 3 0 2 99 6 1 3 1 1 3 87 6 1 3 3 1 91 0 1 3 1 79 \012EIF[ ]	/* EndIf */\012EIF[ ]	/* EndIf */\012EIF[ ]	/* EndIf */\012NPUSHB[ ]	/* 23 values pushed */\01234 33 23 22 1 0 33 43 34 43 22 32 23 32 12 10 0 21 1 21 7 7 20 \012CALL[ ]	/* CallFunction */";
};
width = 621;
}
);
note = zero.salt_slash;
},
